<?xml version="1.0" encoding="utf-8"?>
<!-- Generator: Adobe Illustrator 21.1.0, SVG Export Plug-In . SVG Version: 6.00 Build 0)  -->
<svg version="1.1" id="Layer_1" xmlns="http://www.w3.org/2000/svg" xmlns:xlink="http://www.w3.org/1999/xlink" x="0px" y="0px"
	 viewBox="-49 141 512 512" style="enable-background:new -49 141 512 512;" xml:space="preserve">
<style type="text/css">
	.st0{fill:none; stroke: #ffc748;}
	.st1{fill: #ffc748}
</style>
<path class="st1" d="M463,175.88c0.039-9.349-3.569-18.126-10.159-24.716c-6.589-6.589-15.384-10.193-24.716-10.159
	c-9.322,0.039-18.098,3.702-24.711,10.314c-2.8,2.8-7.893,8.848-10.679,12.205c-2.926,3.525-2.442,8.755,1.083,11.68
	c3.524,2.926,8.754,2.442,11.68-1.083c4.364-5.256,7.971-9.395,9.646-11.071c3.498-3.497,8.132-5.435,13.05-5.456
	c0.027,0,0.052,0,0.079,0c4.862,0,9.419,1.88,12.837,5.299c3.437,3.437,5.32,8.024,5.299,12.916
	c-0.021,4.917-1.959,9.551-5.456,13.05c-3.131,3.131-13.893,11.668-29.312,22.439c-9.121-15.594-26.037-26.099-45.37-26.099H244.808
	c-16.396,0-31.81,6.385-43.405,17.978L-41.387,445.97c-4.908,4.91-7.613,11.436-7.613,18.378c0,6.942,2.704,13.47,7.613,18.378
	l162.667,162.667c5.068,5.067,11.722,7.6,18.378,7.6c6.656,0,13.312-2.534,18.378-7.6l242.792-242.791
	c11.593-11.594,17.978-27.008,17.978-43.405V237.734c0-3.585-0.363-7.085-1.051-10.47c17.551-12.077,30.435-22.18,34.929-26.674
	C459.298,193.978,462.961,185.202,463,175.88z M402.217,237.734v121.463c0,11.965-4.66,23.214-13.119,31.673L146.306,633.663
	c-3.664,3.665-9.63,3.665-13.295,0L-29.656,470.996c-1.775-1.775-2.754-4.136-2.754-6.648s0.978-4.872,2.754-6.647L213.135,214.91
	c8.461-8.46,19.709-13.119,31.673-13.119h121.463c13.64,0,25.53,7.637,31.618,18.859c-9.798,6.488-20.769,13.387-32.408,20.171
	c-0.363-0.398-0.734-0.792-1.119-1.177c-13.584-13.584-35.686-13.584-49.27,0s-13.584,35.686,0,49.27
	c6.792,6.792,15.714,10.187,24.635,10.187s17.843-3.395,24.635-10.187c9.067-9.067,12.072-21.926,9.036-33.517
	c10.123-5.893,19.844-11.916,28.815-17.743C402.215,237.681,402.217,237.708,402.217,237.734z M332.319,268.006
	c1.457,2.897,4.381,4.569,7.417,4.569c1.253,0,2.526-0.285,3.722-0.887c4.862-2.446,9.707-4.99,14.504-7.596
	c0.048,4.735-1.722,9.485-5.328,13.09c-7.116,7.115-18.692,7.115-25.808,0c-7.115-7.116-7.115-18.692,0-25.808
	c3.558-3.558,8.231-5.336,12.904-5.336c3.7,0,7.389,1.134,10.536,3.363c-4.695,2.552-9.46,5.051-14.263,7.468
	C331.908,258.927,330.259,263.914,332.319,268.006z"/>
<path class="st1" d="M198.162,309.961c-4.581,0-8.295,3.713-8.295,8.295v175.179c0,4.581,3.714,8.295,8.295,8.295
	c4.581,0,8.295-3.714,8.295-8.295V318.256C206.457,313.674,202.743,309.961,198.162,309.961z"/>
<path class="st1" d="M110.963,381.211c-13.584,13.584-13.584,35.686,0,49.27c6.793,6.793,15.713,10.188,24.635,10.187
	c8.92,0,17.843-3.397,24.634-10.187c6.581-6.581,10.205-15.329,10.205-24.635c0-9.306-3.624-18.054-10.205-24.634
	C146.648,367.626,124.545,367.627,110.963,381.211z M148.501,418.749c-7.116,7.116-18.692,7.115-25.807,0
	c-7.115-7.116-7.115-18.692,0-25.808c3.558-3.558,8.231-5.336,12.904-5.336c4.673,0,9.346,1.778,12.904,5.336l0,0
	c3.447,3.447,5.345,8.029,5.345,12.904C153.846,410.72,151.948,415.302,148.501,418.749z"/>
<path class="st1" d="M236.092,381.211c-13.584,13.584-13.584,35.686,0,49.27c6.792,6.792,15.713,10.187,24.635,10.187
	c8.921,0,17.843-3.395,24.634-10.187c13.584-13.584,13.584-35.686,0-49.27C271.777,367.626,249.673,367.627,236.092,381.211z
	 M273.629,418.749c-7.116,7.116-18.692,7.115-25.807,0c-7.115-7.116-7.115-18.692,0-25.808c3.558-3.558,8.231-5.336,12.904-5.336
	s9.346,1.778,12.904,5.336C280.745,400.057,280.745,411.633,273.629,418.749z"/>
</svg>
