<?xml version="1.0" encoding="utf-8"?>
<!-- Generator: Adobe Illustrator 21.1.0, SVG Export Plug-In . SVG Version: 6.00 Build 0)  -->
<svg version="1.1" id="Слой_1" xmlns="http://www.w3.org/2000/svg" xmlns:xlink="http://www.w3.org/1999/xlink" x="0px" y="0px"
	 viewBox="0 0 388.348 387.348" style="enable-background:new 0 0 388.348 387.348;" xml:space="preserve">
<style type="text/css">
	.st0{fill:none; stroke: #ffc748;}
	.st1{fill: #ffc748}
</style>
<g>
	<path class="st1" d="M344.402,0v119.793H312.48V55.902H192.688V23.957H68.883v95.836h-27.93V0H1v387.348h39.949v-71.875h303.453v71.875h43.946
		V0H344.402z M13,375.348V12h15.949v363.348H13z M192.688,67.902H300.48v51.891H192.688V67.902z M120.812,35.957h19.946v35.918
		h-19.946V35.957z M80.883,35.957h27.929v47.918h43.946V35.957h27.93v83.836H80.883V35.957z M344.402,303.473H40.953v-11.957
		h303.449V303.473z M88.867,279.516v-51.891H196.66v51.891H88.867z M280.535,243.598V195.68h27.93v83.836H208.66V195.68h27.93
		v47.918H280.535z M248.59,231.598V195.68h19.945v35.918H248.59z M344.402,279.516h-23.937V183.68H196.66v31.945H76.867v63.891
		H40.953V155.75h303.449V279.516z M344.402,143.75H40.953v-11.957h303.449V143.75z M376.348,375.348h-19.946V12h19.946V375.348z
		 M376.348,375.348"/>
	<rect class="st1" x="262.555" y="87.848" width="23.957" height="12"/>
	<rect class="st1" x="214.637" y="87.848" width="39.934" height="12"/>
	<rect class="st1" x="158.734" y="247.57" width="23.961" height="12"/>
	<rect class="st1" x="110.82" y="247.57" width="39.93" height="12"/>
</g>
</svg>
