<?xml version="1.0" encoding="utf-8"?>
<!-- Generator: Adobe Illustrator 21.1.0, SVG Export Plug-In . SVG Version: 6.00 Build 0)  -->
<svg version="1.1" id="Layer_1" xmlns="http://www.w3.org/2000/svg" xmlns:xlink="http://www.w3.org/1999/xlink" x="0px" y="0px"
	 viewBox="4.998 141 404.003 512" style="enable-background:new 4.998 141 404.003 512;" xml:space="preserve">
<style type="text/css">
	.st0{fill:none; stroke: #ffc748;}
	.st1{fill: #ffc748}
</style>
<path class="st1"  d="M401.501,479.568c4.143,0,7.5-3.357,7.5-7.5v-16.771c0-11.246-9.149-20.396-20.396-20.396h-53.159
	c-0.667-1.041,5.564,5.313-104.844-105.095c4.034-8.863,2.754-19.243-3.379-26.89c30.311-18.5,21.994-64.658-12.723-71.462v-15.812
	h11.305c11.246,0,20.396-9.15,20.396-20.395v-33.849c0-11.247-9.151-20.396-20.396-20.396h-37.609
	c-11.246,0-20.396,9.15-20.396,20.396v33.85c0,11.246,9.15,20.395,20.396,20.395H199.5v22.589c0,4.143,3.357,7.5,7.5,7.5
	c13.196,0,23.931,10.735,23.931,23.931c0,12.135-9.08,22.18-20.8,23.719c-2.154-0.26-4.104-0.261-6.262,0
	c-11.722-1.539-20.801-11.585-20.801-23.719c0-4.143-3.357-7.5-7.5-7.5c-4.143,0-7.5,3.358-7.5,7.5
	c0,14.066,7.499,26.414,18.71,33.256c-6.169,7.689-7.391,18.076-3.378,26.89c-0.52,0.52-104.563,104.519-105.018,105.094H25.395
	c-11.247,0-20.396,9.15-20.396,20.396v177.308c0,11.246,9.15,20.396,20.396,20.396h363.211c11.247,0,20.396-9.151,20.396-20.396
	V473.815c0-4.143-3.357-7.5-7.5-7.5s-7.5,3.357-7.5,7.5v158.789c0,2.975-2.42,5.395-5.395,5.395H25.395
	c-2.975,0-5.395-2.42-5.395-5.395V455.296c0-2.975,2.42-5.395,5.395-5.395h363.211c2.975,0,5.395,2.42,5.395,5.395v16.771
	C394.001,476.21,397.358,479.568,401.501,479.568z M182.8,195.245v-33.849c0-2.975,2.42-5.395,5.395-5.395h37.609
	c2.975,0,5.395,2.42,5.395,5.395v33.85c0,2.974-2.42,5.394-5.395,5.394h-37.609C185.22,200.64,182.8,198.219,182.8,195.245z
	 M209.555,308.5c4.791,1.154,8.367,5.465,8.367,10.606c0,6.021-4.899,10.922-10.922,10.922c-6.021,0-10.922-4.899-10.922-10.922
	c0-5.141,3.575-9.452,8.367-10.606C206.343,308.623,207.649,308.624,209.555,308.5z M193.314,341.108
	c8.378,5.229,18.991,5.232,27.374-0.001l93.794,93.794H99.52L193.314,341.108z"/>
<path class="st1"  d="M48.311,478.578v135.219c0,4.143,3.357,7.5,7.5,7.5s7.5-3.357,7.5-7.5V478.578c0-4.143-3.357-7.5-7.5-7.5
	S48.311,474.435,48.311,478.578z"/>
<path class="st1"  d="M91.507,478.578v135.219c0,4.143,3.358,7.5,7.5,7.5c4.143,0,7.5-3.357,7.5-7.5V478.578c0-4.143-3.357-7.5-7.5-7.5
	C94.866,471.078,91.507,474.435,91.507,478.578z"/>
<path class="st1"  d="M134.704,478.578v135.219c0,4.143,3.357,7.5,7.5,7.5c4.143,0,7.5-3.357,7.5-7.5V478.578c0-4.143-3.357-7.5-7.5-7.5
	C138.062,471.078,134.704,474.435,134.704,478.578z"/>
<path class="st1"  d="M177.902,478.578v135.219c0,4.143,3.357,7.5,7.5,7.5c4.143,0,7.5-3.357,7.5-7.5V478.578c0-4.143-3.357-7.5-7.5-7.5
	C181.259,471.078,177.902,474.435,177.902,478.578z"/>
<path class="st1"  d="M221.097,478.578v135.219c0,4.143,3.357,7.5,7.5,7.5c4.143,0,7.5-3.357,7.5-7.5V478.578c0-4.143-3.357-7.5-7.5-7.5
	C224.456,471.078,221.097,474.435,221.097,478.578z"/>
<path class="st1"  d="M264.294,478.578v135.219c0,4.143,3.357,7.5,7.5,7.5c4.143,0,7.5-3.357,7.5-7.5V478.578c0-4.143-3.357-7.5-7.5-7.5
	C267.652,471.078,264.294,474.435,264.294,478.578z"/>
<path class="st1"  d="M307.492,478.578v135.219c0,4.143,3.357,7.5,7.5,7.5s7.5-3.357,7.5-7.5V478.578c0-4.143-3.357-7.5-7.5-7.5
	S307.492,474.435,307.492,478.578z"/>
<path class="st1"  d="M350.688,478.578v135.219c0,4.143,3.357,7.5,7.5,7.5s7.5-3.357,7.5-7.5V478.578c0-4.143-3.357-7.5-7.5-7.5
	C354.046,471.078,350.688,474.435,350.688,478.578z"/>
</svg>
