<?xml version="1.0" encoding="utf-8"?>
<!-- Generator: Adobe Illustrator 21.1.0, SVG Export Plug-In . SVG Version: 6.00 Build 0)  -->
<svg version="1.1" id="Layer_1" xmlns="http://www.w3.org/2000/svg" xmlns:xlink="http://www.w3.org/1999/xlink" x="0px" y="0px"
	 viewBox="-49 225.811 497.563 427.189" style="enable-background:new -49 225.811 497.563 427.189;" xml:space="preserve">
<style type="text/css">
	.st0{fill:none; stroke: #ffc748;}
	.st1{fill: #ffc748}
</style>
<path  class="st1"  d="M266.199,647c-48.315,0-96.222-1.972-151.033-25.781l-5.213-2.265l-2.543,5.083c-7.03,14.048-21.117,22.775-36.763,22.775
	h-96.18c-4.978,0-9.028-4.05-9.028-9.028v-256.48c0-4.978,4.05-9.028,9.028-9.028h128.24c4.978,0,9.028,4.05,9.028,9.028v17.534
	l8.624-4.192c40.976-19.927,126.238-61.39,133.191-145.316c1.075-12.968,12.652-23.519,25.81-23.519l0.41,0.003
	c15.16,0.238,29.383,6.326,40.042,17.143c10.661,10.821,16.535,25.151,16.541,40.351v5.048c0,28.066-5.651,49.744-19.506,74.822
	l-4.916,8.901h95.543c22.656,0,41.089,18.432,41.089,41.088c0,10.529-4.008,20.557-11.286,28.233l-3.845,4.054l3.771,4.124
	c6.954,7.598,10.784,17.438,10.784,27.709c0,14.407-7.367,27.519-19.708,35.074l-5.043,3.086l3.014,5.09
	c3.733,6.302,5.707,13.519,5.707,20.87c0,14.407-7.367,27.519-19.708,35.074l-5.043,3.086l3.014,5.09
	c3.733,6.301,5.707,13.518,5.707,20.87c0,22.656-18.432,41.088-41.088,41.088h-47.515c-11.464,0-22.267,0.102-32.714,0.2
	l-0.601,0.006C285.322,646.905,275.476,647,266.199,647z M279.354,243.867c-3.855,0-7.506,3.251-7.811,6.957
	c-3.421,41.306-23.616,77.928-60.023,108.847c-30.177,25.63-65.554,42.686-91.385,55.14l-8.204,3.961l0.001,181.149l3.472,1.614
	c54.596,25.349,100.491,27.411,150.568,27.411c8.803,0,17.772-0.084,27.268-0.172l1.004-0.011
	c10.029-0.096,21.399-0.204,33.081-0.204h47.515c12.7,0,23.032-10.332,23.032-23.031c0-12.7-10.332-23.032-23.032-23.032
	c-4.979,0-9.028-4.05-9.028-9.028s4.05-9.028,9.028-9.028h16.03c12.699,0,23.031-10.332,23.031-23.031
	c0-12.7-10.332-23.032-23.031-23.032h-15.455c-4.979,0-9.028-4.05-9.028-9.028s4.05-9.028,9.028-9.028h31.484
	c12.7,0,23.032-10.332,23.032-23.031c0-12.7-10.332-23.032-23.032-23.032h-31.484c-4.979,0-9.028-4.05-9.028-9.028
	c0-4.978,4.05-9.027,9.028-9.027h32.06c12.7,0,23.032-10.332,23.032-23.032s-10.332-23.032-23.032-23.032h-144.27
	c-4.979,0-9.028-4.05-9.028-9.028s4.05-9.028,9.028-9.028h27.192l1.77-2.772c16.946-26.571,26.13-47.341,26.13-80.951v-5.032
	c0-21.421-17.42-39.121-38.833-39.456L279.354,243.867z M38.587,564.637c4.978,0,9.028,4.05,9.028,9.027v55.093h23.032
	c12.7,0,23.032-10.332,23.032-23.032V390.332H-16.505v238.425h46.064v-55.093C29.559,568.687,33.609,564.637,38.587,564.637z"/>
</svg>
