<?xml version="1.0" encoding="utf-8"?>
<!-- Generator: Adobe Illustrator 21.1.0, SVG Export Plug-In . SVG Version: 6.00 Build 0)  -->
<svg version="1.1" id="Layer_1" xmlns="http://www.w3.org/2000/svg" xmlns:xlink="http://www.w3.org/1999/xlink" x="0px" y="0px"
	 viewBox="12.441 141 389.118 512" style="enable-background:new 12.441 141 389.118 512;" xml:space="preserve">
<style type="text/css">
	.st0{fill:none; stroke: #ffc748;}
	.st1{fill: #ffc748}
</style>
<path  class="st1"  d="M37.195,409.245C-3.868,456.565,7.567,529.37,61.047,561.93c0.144,0.176,33.882,41.523,34.031,41.695
	c1.522,1.729,9.572,10.353,18.488,10.353c7.293,0,15.07-6.104,18.672-10.567l33.824-41.451
	c32.557-19.786,51.063-55.514,48.369-93.577C208.088,378.777,96.054,341.42,37.195,409.245z M157.27,549.738
	c-0.763,0.45-1.439,1.032-1.999,1.719c-32.415,39.725-37.495,47.136-41.705,47.518c-4.184-0.382-9.083-7.54-41.727-47.546
	c-0.559-0.685-1.235-1.266-1.997-1.716c-46.354-27.374-56.58-90.001-21.317-130.635c50.099-57.733,145.545-25.89,150.943,50.361
	C201.789,502.243,185.62,533.012,157.27,549.738z"/>
<path  class="st1"  d="M198.077,175.842c-41.063,47.32-29.628,120.125,23.851,152.684c0.144,0.176,33.882,41.524,34.031,41.695
	c1.522,1.729,9.572,10.353,18.488,10.353c7.293,0,15.07-6.104,18.672-10.567l33.824-41.452
	c32.557-19.786,51.063-55.514,48.369-93.577C368.969,145.374,256.935,108.017,198.077,175.842z M318.151,316.334
	c-0.763,0.45-1.439,1.032-1.999,1.719c-32.415,39.725-37.495,47.136-41.704,47.518c-4.184-0.382-9.083-7.54-41.727-47.546
	c-0.559-0.685-1.235-1.266-1.997-1.716c-46.354-27.374-56.58-90.001-21.317-130.635c50.099-57.733,145.545-25.89,150.943,50.361
	C362.671,268.839,346.502,299.608,318.151,316.334z"/>
<path  class="st1"  d="M113.566,422.537c-28.594,0-51.855,23.262-51.855,51.856c0,28.593,23.262,51.855,51.855,51.855s51.856-23.262,51.856-51.855
	C165.422,445.798,142.16,422.537,113.566,422.537z M113.566,511.246c-20.321,0-36.854-16.532-36.854-36.854
	c0-20.321,16.533-36.855,36.854-36.855s36.855,16.533,36.855,36.855C150.421,494.714,133.887,511.246,113.566,511.246z"/>
<path  class="st1"  d="M274.452,380.578c8.669,0,16.337-7.915,18.481-10.342c0.161-0.186,33.859-41.487,34.015-41.678
	c54.338-33.023,65.68-107.193,21-155.816c-2.803-3.052-7.547-3.251-10.598-0.448c-3.051,2.803-3.251,7.547-0.448,10.598
	c38.815,42.24,28.016,105.861-18.746,133.447c-0.764,0.45-1.44,1.032-2,1.719c-32.577,39.923-37.627,47.219-41.681,47.52
	c-1.363-0.098-4.9-2.658-7.179-5.183c-37.254-45.651-34.923-43.108-36.568-44.08c-24.412-14.418-40.18-39.881-42.179-68.113
	c-4.862-68.704,69.375-115.062,128.883-80.716c3.585,2.073,8.174,0.843,10.245-2.746c2.071-3.587,0.842-8.174-2.746-10.245
	c-17.481-10.092-37.398-14.669-57.617-13.239c-55.617,3.936-97.663,52.388-93.728,108.005c2.314,32.697,20.355,62.23,48.346,79.272
	l33.85,41.48C257.978,372.679,266.014,380.578,274.452,380.578z"/>
<path  class="st1"  d="M274.452,189.139c-28.594,0-51.855,23.262-51.855,51.856s23.262,51.856,51.855,51.856s51.855-23.262,51.855-51.856
	S303.044,189.139,274.452,189.139z M274.452,277.849c-20.321,0-36.854-16.533-36.854-36.855c0-20.321,16.533-36.855,36.854-36.855
	s36.854,16.533,36.854,36.855S294.773,277.849,274.452,277.849z"/>
<path  class="st1"  d="M301.864,413.786c0.612-4.097-2.213-7.914-6.309-8.527c-6.097-0.911-12.338-1.373-18.55-1.373c-4.142,0-7.5,3.357-7.5,7.5
	c0,4.143,3.358,7.5,7.5,7.5c5.472,0,10.968,0.406,16.333,1.209C297.461,420.708,301.255,417.862,301.864,413.786z"/>
<path  class="st1"  d="M370.895,458.13c-3.466,2.27-4.435,6.918-2.166,10.384c5.637,8.608,10.021,17.942,13.028,27.745
	c0.99,3.228,3.959,5.302,7.167,5.302c5.027,0,8.656-4.869,7.173-9.703c-3.422-11.153-8.409-21.772-14.819-31.562
	C379.01,456.831,374.361,455.86,370.895,458.13z"/>
<path  class="st1"  d="M199.985,637.999h-32.874c-4.143,0-7.5,3.357-7.5,7.5c0,4.143,3.357,7.5,7.5,7.5h32.874c4.143,0,7.5-3.357,7.5-7.5
	C207.486,641.356,204.128,637.999,199.985,637.999z"/>
<path  class="st1"  d="M381.057,582.633c-3.542-2.147-8.154-1.018-10.303,2.524c-5.321,8.777-11.852,16.769-19.405,23.753
	c-3.041,2.813-3.228,7.558-0.415,10.6c2.815,3.044,7.562,3.224,10.6,0.415c8.583-7.935,16-17.017,22.048-26.99
	C385.729,589.392,384.599,584.78,381.057,582.633z"/>
<path  class="st1"  d="M265.732,637.999h-32.874c-4.143,0-7.5,3.357-7.5,7.5c0,4.143,3.357,7.5,7.5,7.5h32.874c4.143,0,7.5-3.357,7.5-7.5
	C273.233,641.356,269.875,637.999,265.732,637.999z"/>
<path  class="st1"  d="M358.31,434.083c-8.862-7.642-18.726-13.987-29.319-18.858c-3.761-1.734-8.217-0.084-9.948,3.68
	c-1.732,3.763-0.084,8.218,3.68,9.948c9.316,4.285,17.993,9.867,25.79,16.591c1.417,1.222,3.16,1.82,4.895,1.82
	C360.311,447.263,363.582,438.63,358.31,434.083z"/>
<path  class="st1"  d="M401.54,526.284c-0.072-4.142-3.517-7.465-7.63-7.368c-4.142,0.072-7.44,3.488-7.368,7.63
	c0.176,10.316-1.082,20.568-3.734,30.431c-1.281,4.764,2.311,9.451,7.247,9.451c3.309,0,6.337-2.207,7.237-5.554
	c2.831-10.526,4.267-21.439,4.267-32.435C401.559,527.719,401.553,527.001,401.54,526.284z"/>
<path  class="st1"  d="M326.151,626.384c-9.177,4.614-18.946,7.903-29.04,9.776c-8.926,1.654-7.648,14.876,1.358,14.876
	c1.979,0,17.85-2.916,34.422-11.251c3.7-1.861,5.191-6.369,3.33-10.071C334.36,626.014,329.852,624.52,326.151,626.384z"/>
<path  class="st1"  d="M134.152,637.999h-17.501c-4.143,0-7.5,3.357-7.5,7.5c0,4.143,3.357,7.5,7.5,7.5h17.501c4.143,0,7.5-3.357,7.5-7.5
	C141.653,641.356,138.295,637.999,134.152,637.999z"/>
</svg>
