<?xml version="1.0" encoding="utf-8"?>
<!-- Generator: Adobe Illustrator 21.1.0, SVG Export Plug-In . SVG Version: 6.00 Build 0)  -->
<svg version="1.1" id="Layer_1" xmlns="http://www.w3.org/2000/svg" xmlns:xlink="http://www.w3.org/1999/xlink" x="0px" y="0px"
	 viewBox="47.167 237.467 319.561 319.28" style="enable-background:new 47.167 237.467 319.561 319.28;" xml:space="preserve">
<style type="text/css">
	.st0{fill:none;}
	.st1{fill: #ffc748}
</style>
<path class="st1"  d="M207,556.747c-9.16,0-17.829-4.431-23.189-11.853c-3.03-4.265-8.04-6.814-13.397-6.814c-2.96,0-5.792,0.749-8.189,2.165
	c-4.186,2.348-8.959,3.595-13.785,3.595c-13.92,0-25.663-9.832-27.92-23.377c-1.317-7.792-8.181-13.446-16.321-13.446
	c-0.309,0-0.62,0.008-0.932,0.024c-0.007,0-0.015,0-0.022,0c-0.292,0-0.607,0.027-0.921,0.057c-0.264,0.023-0.528,0.049-0.816,0.049
	c-9.019,0-17.321-4.132-22.776-11.337c-5.213-7.053-6.79-15.948-4.317-24.395c2.371-7.79-1.73-16.064-9.544-19.235
	c-8.603-3.42-14.956-10.772-17.001-19.67c-1.958-8.866,0.543-18.142,6.693-24.805c5.562-6.016,5.564-15.172,0.006-21.297
	c-6.245-6.766-8.748-15.997-6.7-24.699c2.057-8.948,8.408-16.3,16.992-19.672c7.864-3.077,11.97-11.308,9.55-19.146
	c-2.562-8.403-1.023-17.294,4.222-24.391c5.292-7.16,13.804-11.434,22.769-11.434c0.616,0,1.198,0,1.756,0.093l0.082,0.014h1.149
	c8.09,0,14.875-5.647,16.134-13.427c2.155-13.544,13.896-23.373,27.919-23.373c4.826,0,9.6,1.247,13.804,3.605
	c2.495,1.361,5.204,2.048,8.063,2.048c5.47,0,10.484-2.556,13.412-6.836c5.484-7.552,13.72-11.724,23.175-11.724
	c9.371,0,17.822,4.318,23.186,11.847c3.081,4.337,8.092,6.927,13.401,6.927c2.959,0,5.791-0.749,8.188-2.166
	c4.186-2.348,8.959-3.594,13.784-3.594c13.903,0,25.646,9.833,27.921,23.379c1.316,7.791,8.18,13.444,16.32,13.444
	c0.31,0,0.619-0.008,0.933-0.025c0.007,0,0.015,0,0.022,0c0.276,0,0.602-0.025,0.939-0.052c0.319-0.026,0.651-0.053,1.011-0.053
	c8.987,0,17.209,4.129,22.558,11.33c5.25,7,6.825,15.853,4.324,24.293c-2.372,7.793,1.729,16.067,9.543,19.238
	c8.603,3.42,14.956,10.772,17.001,19.67c1.958,8.866-0.543,18.142-6.693,24.804c-5.562,6.015-5.564,15.171-0.006,21.297
	c6.246,6.766,8.749,15.996,6.7,24.698c-2.057,8.948-8.408,16.3-16.991,19.672c-7.865,3.077-11.971,11.309-9.55,19.146
	c2.541,8.339,0.964,17.229-4.329,24.391c-5.348,7.198-13.647,11.328-22.77,11.328c-0.616,0-1.197,0-1.756-0.093l-0.081-0.014H309.4
	c-8.09,0-14.876,5.646-16.135,13.427c-2.154,13.545-13.896,23.373-27.919,23.373c-4.825,0-9.599-1.247-13.804-3.605
	c-2.494-1.36-5.203-2.048-8.063-2.048c-5.47,0-10.483,2.556-13.412,6.836C224.924,552.322,216.299,556.747,207,556.747z
	 M170.52,526.106c9.196,0,17.823,4.428,23.078,11.845c3.081,4.336,8.004,6.822,13.509,6.822c5.438,0,10.322-2.486,13.402-6.821
	c5.255-7.418,13.882-11.846,23.078-11.846c4.825,0,9.599,1.247,13.804,3.605c2.494,1.36,5.203,2.048,8.063,2.048
	c6.979,0,14.761-4.614,16.135-13.432c2.171-13.52,13.791-23.336,27.63-23.336c0.673,0,1.357,0.024,2.032,0.071l1.03,0.003
	c5.317,0,10.122-2.404,13.181-6.597c2.966-3.993,3.879-9.054,2.501-13.878c-4.234-13.737,2.852-28.207,16.478-33.678
	c5.072-2.029,8.637-6.137,9.777-11.271c1.151-5.184-0.265-10.298-3.886-14.033c-9.861-10.684-9.863-26.745,0.014-37.342
	c3.603-3.828,5.016-8.978,3.872-14.125c-1.13-5.083-4.691-9.19-9.771-11.269c-13.633-5.433-20.718-19.948-16.489-33.769
	c1.401-4.901,0.483-9.928-2.511-13.81c-3.077-4.138-7.809-6.519-12.97-6.519c-0.443,0-0.891,0.018-1.341,0.053l-1.734-0.003
	c-13.982,0-25.77-9.832-28.027-23.378c-1.469-8.812-9.228-13.422-16.133-13.422c-2.932,0-5.65,0.729-8.082,2.166
	c-4.186,2.348-8.959,3.594-13.785,3.594c-9.196,0-17.824-4.428-23.077-11.845c-3.248-4.409-8.168-6.929-13.509-6.929
	c-5.391,0-10.311,2.481-13.499,6.807c-5.289,7.363-13.917,11.753-23.088,11.753c-4.827,0-9.6-1.247-13.804-3.605
	c-2.495-1.361-5.204-2.048-8.063-2.048c-6.978,0-14.76,4.614-16.135,13.433c-2.17,13.518-13.79,23.333-27.628,23.334
	c-0.673,0-1.357-0.024-2.033-0.072l-1.03-0.002c-5.317,0-10.122,2.404-13.181,6.597c-2.984,4.017-3.856,9.046-2.388,13.792
	c4.2,13.727-2.886,28.197-16.483,33.657c-5.072,2.029-8.636,6.137-9.777,11.271c-1.152,5.184,0.264,10.299,3.885,14.033
	c9.862,10.684,9.863,26.745-0.014,37.342c-3.603,3.828-5.015,8.979-3.871,14.125c1.13,5.084,4.691,9.191,9.771,11.27
	c13.632,5.433,20.717,19.948,16.489,33.768c-1.4,4.902-0.483,9.93,2.511,13.811c3.072,4.131,8.035,6.605,13.266,6.605
	c0.341,0,0.683-0.011,1.026-0.031l1.646,0.002c13.982,0,25.769,9.832,28.027,23.377c1.469,8.813,9.228,13.423,16.133,13.423
	c2.931,0,5.65-0.729,8.082-2.165C161.099,527.256,165.793,526.106,170.52,526.106z"/>
<path class="st1"  d="M207,509.92c-62.264,0-112.92-50.655-112.92-112.92c0-62.264,50.656-112.92,112.92-112.92
	c62.265,0,112.92,50.656,112.92,112.92C319.92,459.265,269.265,509.92,207,509.92z M207,295.947
	c-55.721,0-101.053,45.333-101.053,101.053c0,55.722,45.333,101.054,101.053,101.054c55.722,0,101.054-45.332,101.054-101.054
	C308.054,341.279,262.722,295.947,207,295.947z"/>
<g>
	<path class="st0" d="M238.793,361.207c-7.695,0-13.142,9.59-13.142,28.77c0,18.824,5.091,28.533,13.023,28.533
		c8.643,0,13.023-10.419,13.023-28.888C251.698,371.744,247.554,361.207,238.793,361.207z"/>
	<path class="st0" d="M238.675,417.51c-7.641,0-12.023-10.035-12.023-27.533c0-17.388,4.539-27.77,12.142-27.77
		c9.84,0,11.905,14.908,11.905,27.415C250.698,407.605,246.429,417.51,238.675,417.51z"/>
	<polygon  class="st1" points="172.512,437.086 172.512,368.946 171.021,368.946 156.909,376.062 154.709,366.324 173.893,356.913
		185.556,356.913 185.556,437.086 	"/>
	<path class="st1"  d="M230.352,438.478c-17.45,0-27.946-15.413-28.077-41.229c0-25.735,11.146-41.725,29.088-41.725
		c17.843,0,28.076,14.887,28.076,40.845C259.439,423.129,248.837,438.478,230.352,438.478z M230.983,365.406
		c-9.413,0-15.032,11.858-15.032,31.72c0,19.998,5.434,31.468,14.906,31.468c6.8,0,14.906-5.525,14.906-31.847
		C245.764,370.844,237.727,365.406,230.983,365.406z"/>
</g>
</svg>
