<?xml version="1.0" encoding="utf-8"?>
<!-- Generator: Adobe Illustrator 21.1.0, SVG Export Plug-In . SVG Version: 6.00 Build 0)  -->
<svg version="1.1" id="Layer_1" xmlns="http://www.w3.org/2000/svg" xmlns:xlink="http://www.w3.org/1999/xlink" x="0px" y="0px"
	 viewBox="-49 141 512 512" style="enable-background:new -49 141 512 512;" xml:space="preserve">
<style type="text/css">
	.st0{fill:none; stroke: #ffc748;}
	.st1{fill: #ffc748}
</style>
<path  class="st1" d="M200.634,279.413c35.329-24.068,82.948-19.558,113.228,10.721c30.28,30.281,34.789,77.899,10.721,113.228
	c-2.584,3.793-1.605,8.964,2.19,11.548c1.432,0.975,3.061,1.443,4.672,1.443c2.656,0,5.267-1.271,6.876-3.633
	c28.56-41.922,23.217-98.421-12.704-134.341c-35.922-35.921-92.42-41.265-134.341-12.704c-3.793,2.584-4.774,7.755-2.19,11.548
	C191.67,281.017,196.84,281.997,200.634,279.413z"/>
<path  class="st1" d="M250.827,459.118c21.008-0.001,42.132-6.261,60.44-19.039c3.763-2.626,4.687-7.808,2.059-11.572
	c-2.628-3.763-7.808-4.685-11.573-2.058c-35.456,24.746-83.422,20.477-114.051-10.153c-30.629-30.629-34.899-78.595-10.153-114.053
	c2.628-3.763,1.706-8.944-2.059-11.572c-3.765-2.626-8.945-1.706-11.573,2.059c-29.365,42.075-24.305,98.985,12.031,135.319
	C196.472,448.575,223.555,459.12,250.827,459.118z"/>
<path  class="st1" d="M461.63,328.981c-0.98-8.613-8.33-15.107-17.099-15.107h-12.484c-4.701-21.858-13.168-42.336-25.241-61.048l8.796-8.796
	c6.2-6.2,6.806-15.991,1.409-22.772c-5.005-6.29-10.445-12.382-16.167-18.106c-5.718-5.718-11.809-11.157-18.104-16.168
	c-6.782-5.397-16.573-4.791-22.772,1.41l-8.796,8.796c-18.712-12.074-39.19-20.541-61.048-25.241v-12.483
	c0-8.768-6.494-16.119-15.107-17.099c-15.985-1.817-32.482-1.817-48.468,0c-8.612,0.981-15.106,8.331-15.106,17.099v12.484
	c-21.858,4.701-42.336,13.167-61.048,25.241l-8.796-8.796c-6.2-6.2-15.991-6.807-22.772-1.409
	c-6.296,5.01-12.387,10.45-18.104,16.167c-5.724,5.724-11.164,11.816-16.167,18.104c-5.398,6.782-4.793,16.573,1.409,22.773
	l8.796,8.796c-12.074,18.712-20.541,39.19-25.241,61.048H57.032c-8.769,0-16.12,6.494-17.099,15.107l0,0
	c-0.909,7.99-1.37,16.143-1.37,24.234c0,8.09,0.461,16.243,1.37,24.234c0.98,8.613,8.33,15.107,17.099,15.107H69.47
	c5.094,23.563,14.703,45.457,27.838,64.766l-136.1,136.099c-13.611,13.61-13.611,35.757,0,49.367
	c6.805,6.805,15.745,10.208,24.684,10.208s17.878-3.402,24.684-10.208l136.099-136.099c19.31,13.134,41.202,22.742,64.767,27.837
	v12.438c0,8.769,6.495,16.12,15.107,17.098c7.99,0.909,16.144,1.37,24.234,1.37c8.09,0,16.244-0.461,24.234-1.37
	c8.612-0.979,15.107-8.33,15.107-17.098V534.48c21.858-4.701,42.336-13.167,61.048-25.241l8.795,8.795
	c6.199,6.2,15.989,6.807,22.773,1.41c6.293-5.008,12.384-10.447,18.104-16.167c5.723-5.723,11.163-11.814,16.167-18.103
	c5.398-6.782,4.793-16.573-1.409-22.773l-8.796-8.796c12.074-18.712,20.541-39.19,25.241-61.048h12.484
	c8.769,0,16.12-6.494,17.099-15.107c0.909-7.991,1.37-16.144,1.37-24.234C463,345.124,462.539,336.971,461.63,328.981z
	 M-1.178,631.035c-7.13,7.129-18.73,7.129-25.86,0c-7.129-7.129-7.129-18.729,0-25.858l134.401-134.401
	c7.753,9.443,16.417,18.107,25.86,25.86L-1.178,631.035z M445.113,375.57c-0.017,0.145-0.268,0.362-0.582,0.362h-19.324
	c-4.032,0-7.483,2.893-8.184,6.864c-4.306,24.352-13.64,46.923-27.74,67.084c-2.311,3.303-1.917,7.789,0.934,10.641l13.631,13.631
	c0.222,0.222,0.247,0.553,0.155,0.668c-4.617,5.801-9.633,11.42-14.915,16.702c-5.278,5.278-10.897,10.296-16.7,14.914
	c-0.115,0.092-0.447,0.066-0.668-0.156l-13.63-13.63c-2.85-2.851-7.337-3.245-10.641-0.934
	c-20.161,14.101-42.733,23.434-67.085,27.74c-3.971,0.703-6.864,4.152-6.864,8.185v19.324c0,0.315-0.216,0.565-0.362,0.583
	c-14.739,1.677-29.971,1.677-44.711,0c-0.145-0.018-0.362-0.268-0.362-0.583V527.69c0-4.032-2.893-7.482-6.864-8.184
	c-31.901-5.638-60.719-20.288-83.768-41.187l19.543-19.543c24.97,22.214,57.836,35.732,93.807,35.732
	c77.91,0,141.294-63.384,141.294-141.294s-63.384-141.294-141.294-141.294s-141.294,63.384-141.294,141.294
	c0,35.971,13.519,68.838,35.732,93.807l-19.543,19.543c-20.9-23.049-35.548-51.867-41.187-83.768
	c-0.701-3.971-4.152-6.864-8.185-6.864H57.032c-0.314,0-0.566-0.216-0.582-0.362c-0.839-7.369-1.263-14.891-1.263-22.355
	s0.424-14.986,1.263-22.355l0,0c0.017-0.145,0.268-0.362,0.582-0.362h19.324c4.032,0,7.482-2.893,8.184-6.864
	c4.306-24.352,13.64-46.923,27.74-67.084c2.311-3.304,1.917-7.789-0.934-10.641l-13.631-13.631
	c-0.222-0.222-0.247-0.553-0.155-0.669c4.616-5.8,9.632-11.42,14.914-16.7c5.275-5.276,10.895-10.294,16.7-14.914
	c0.114-0.092,0.445-0.068,0.668,0.155l13.631,13.631c2.85,2.851,7.336,3.245,10.641,0.934c20.161-14.101,42.733-23.434,67.085-27.74
	c3.971-0.703,6.864-4.153,6.864-8.185v-19.322c0-0.315,0.217-0.566,0.362-0.583c14.742-1.677,29.971-1.677,44.711,0
	c0.146,0.017,0.363,0.268,0.363,0.583v19.323c0,4.032,2.893,7.482,6.864,8.185c24.352,4.306,46.923,13.64,67.085,27.74
	c3.302,2.311,7.789,1.917,10.641-0.934l13.631-13.631c0.223-0.224,0.554-0.247,0.668-0.156c5.806,4.621,11.425,9.639,16.7,14.915
	c5.282,5.282,10.298,10.9,14.914,16.702c0.092,0.115,0.066,0.445-0.155,0.668l-13.631,13.631c-2.851,2.85-3.245,7.336-0.934,10.641
	c14.101,20.161,23.434,42.733,27.74,67.084c0.702,3.971,4.152,6.864,8.184,6.864h19.324c0.314,0,0.566,0.216,0.582,0.362
	c0.839,7.368,1.263,14.891,1.263,22.355C446.377,360.68,445.952,368.201,445.113,375.57z M126.111,353.215
	c0-68.744,55.927-124.671,124.671-124.671s124.671,55.927,124.671,124.671s-55.927,124.671-124.671,124.671
	S126.111,421.959,126.111,353.215z"/>
<path  class="st1" d="M251.318,282.307c-4.59,0-8.311,3.72-8.311,8.311c0,4.59,3.721,8.311,8.311,8.311c29.34,0,53.21,24.352,53.21,54.285
	c0,4.59,3.721,8.311,8.311,8.311s8.311-3.721,8.311-8.311C321.151,314.116,289.824,282.307,251.318,282.307z"/>
</svg>
