<?xml version="1.0" encoding="utf-8"?>
<!-- Generator: Adobe Illustrator 21.1.0, SVG Export Plug-In . SVG Version: 6.00 Build 0)  -->
<svg version="1.1" id="Слой_1" xmlns="http://www.w3.org/2000/svg" xmlns:xlink="http://www.w3.org/1999/xlink" x="0px" y="0px"
	 viewBox="0 0 51.9 69" style="enable-background:new 0 0 51.9 69;" xml:space="preserve">
<g>
	<path  style="fill: #5A65A7" d="M40,30.9c-0.8,0-1.5-0.7-1.5-1.5V6.5C38.5,4.6,36.9,3,35,3H15c-1.9,0-3.5,1.6-3.5,3.5v22.9c0,0.8-0.7,1.5-1.5,1.5
		s-1.5-0.7-1.5-1.5V6.5C8.5,2.9,11.4,0,15,0h20c3.6,0,6.5,2.9,6.5,6.5v22.9C41.5,30.2,40.9,30.9,40,30.9z"/>
</g>
<g>
	<path  style="fill: #5A65A7" d="M26,69c-1.4,0-2.8-0.7-3.6-1.9L0.8,35.5c-0.9-1.3-1-3-0.3-4.4s2.2-2.3,3.8-2.3H10c0.8,0,1.5,0.7,1.5,1.5s-0.7,1.5-1.5,1.5
		H4.3c-0.7,0-1,0.5-1.2,0.7s-0.3,0.8,0.1,1.3l21.6,31.6c0.5,0.7,1.7,0.7,2.2,0l21.6-31.6c0.4-0.6,0.2-1.1,0.1-1.3s-0.4-0.7-1.2-0.7
		H40c-0.8,0-1.5-0.7-1.5-1.5s0.7-1.5,1.5-1.5h7.6c1.6,0,3.1,0.9,3.8,2.3c0.7,1.4,0.7,3.1-0.3,4.4L29.5,67.1C28.7,68.3,27.4,69,26,69
		z"/>
</g>
<g>
	<path  style="fill: #5A65A7" d="M15.7,25.4c-0.8,0-1.5-0.7-1.5-1.5V5.4c0-0.8,0.7-1.5,1.5-1.5s1.5,0.7,1.5,1.5v18.5C17.2,24.7,16.5,25.4,15.7,25.4z"/>
</g>
<g>
	<path  style="fill: #5A65A7" d="M15.7,33.7c-0.8,0-1.5-0.7-1.5-1.5v-3.7c0-0.8,0.7-1.5,1.5-1.5s1.5,0.7,1.5,1.5v3.7C17.2,33,16.5,33.7,15.7,33.7z"/>
</g>
</svg>
