<?xml version="1.0" encoding="utf-8"?>
<!-- Generator: Adobe Illustrator 21.1.0, SVG Export Plug-In . SVG Version: 6.00 Build 0)  -->
<svg version="1.1" id="Слой_1" xmlns="http://www.w3.org/2000/svg" xmlns:xlink="http://www.w3.org/1999/xlink" x="0px" y="0px"
	 viewBox="0 0 33 33" style="enable-background:new 0 0 33 33;" xml:space="preserve">
<style type="text/css">
	.st0{fill:#525CA3;}
</style>
<g>
	<path class="st0" d="M16.5,33C7.4,33,0,25.6,0,16.5S7.4,0,16.5,0S33,7.4,33,16.5S25.6,33,16.5,33z M16.5,1.6
		C8.3,1.6,1.6,8.3,1.6,16.5c0,8.2,6.7,14.9,14.9,14.9s14.9-6.7,14.9-14.9S24.7,1.6,16.5,1.6z"/>
</g>
<g>
	<path class="st0" d="M9.3,19.9c-2.6,0-4.6-2.1-4.6-4.6s2.1-4.6,4.6-4.6c2.6,0,4.6,2.1,4.6,4.6S11.9,19.9,9.3,19.9z M9.3,12.2
		c-1.7,0-3.1,1.4-3.1,3.1s1.4,3.1,3.1,3.1s3.1-1.4,3.1-3.1S11,12.2,9.3,12.2z"/>
</g>
<g>
	<path class="st0" d="M16,9.2c-1.3,0-2.3-1-2.3-2.3s1-2.3,2.3-2.3s2.3,1,2.3,2.3S17.3,9.2,16,9.2z M16,6.1c-0.4,0-0.8,0.4-0.8,0.8
		s0.4,0.8,0.8,0.8s0.8-0.4,0.8-0.8S16.4,6.1,16,6.1z"/>
</g>
<g>
	<path class="st0" d="M24.9,12.9c-1.2,0-2.2-1-2.2-2.2s1-2.2,2.2-2.2s2.2,1,2.2,2.2S26.1,12.9,24.9,12.9z M24.9,10
		c-0.4,0-0.7,0.3-0.7,0.7s0.3,0.7,0.7,0.7c0.4,0,0.7-0.3,0.7-0.7S25.2,10,24.9,10z"/>
</g>
<g>
	<path class="st0" d="M20,19.9c-0.9,0-1.6-0.7-1.6-1.6s0.7-1.6,1.6-1.6s1.6,0.7,1.6,1.6C21.6,19.2,20.9,19.9,20,19.9z M20,18.3
		L20,18.3L20,18.3z"/>
</g>
<g>
	<path class="st0" d="M13.8,24.7c-0.8,0-1.5-0.6-1.5-1.5s0.6-1.5,1.5-1.5s1.5,0.6,1.5,1.5S14.6,24.7,13.8,24.7z M13.8,23.1
		c-0.1,0-0.2,0.1-0.2,0.2c0,0.2,0.3,0.2,0.3,0C13.9,23.2,13.8,23.1,13.8,23.1z"/>
</g>
<g>
	<path class="st0" d="M22.1,27.3c-1.1,0-2.1-0.9-2.1-2.1c0-1.1,0.9-2.1,2.1-2.1c1.1,0,2.1,0.9,2.1,2.1
		C24.2,26.3,23.3,27.3,22.1,27.3z M22.1,24.7c-0.3,0-0.5,0.2-0.5,0.5s0.2,0.5,0.5,0.5s0.5-0.2,0.5-0.5S22.4,24.7,22.1,24.7z"/>
</g>
</svg>
