<?xml version="1.0" encoding="utf-8"?>
<!-- Generator: Adobe Illustrator 21.1.0, SVG Export Plug-In . SVG Version: 6.00 Build 0)  -->
<svg version="1.1" id="Слой_1" xmlns="http://www.w3.org/2000/svg" xmlns:xlink="http://www.w3.org/1999/xlink" x="0px" y="0px"
	 viewBox="0 0 57.262 25.981" style="enable-background:new 0 0 57.262 25.981;" xml:space="preserve">
<style type="text/css">
	.st0{fill-rule:evenodd;clip-rule:evenodd;fill:#fff;}
</style>
<path class="st0" d="M12.247,1.11v0.496h32.769V1.11c0-0.613,0.496-1.11,1.105-1.11h4.036c0.609,0,1.105,0.497,1.105,1.11v6.371
	c0,0.543-0.391,0.992-0.906,1.086l2.281,5.133l4.477,10.074c0.093,0.164,0.148,0.351,0.148,0.551c0,0.609-0.496,1.105-1.109,1.105
	H49.5c-0.421,0-0.828-0.246-1.011-0.656l1.011-0.449l-1.007,0.445l-0.68-1.531l-0.707-1.59l-0.707,1.59l-0.633,1.429
	c-0.145,0.442-0.562,0.762-1.055,0.762h-6.652c-0.148,0-0.305-0.027-0.449-0.094c-0.559-0.25-0.809-0.902-0.563-1.461h0.004
	L41.575,13.7l2.379-5.352c0.144-0.445,0.562-0.766,1.054-0.766h0.012c-0.004-0.031-0.004-0.066-0.004-0.101v-0.5H12.247v0.5
	c0,0.242-0.079,0.469-0.215,0.652h0.222c0.493,0,0.907,0.321,1.051,0.766l2.379,5.351l4.523,10.176h0.004
	c0.25,0.559,0,1.211-0.558,1.461c-0.149,0.063-0.301,0.094-0.449,0.094h-6.657c-0.488,0-0.906-0.32-1.05-0.762L10.86,23.79
	l-0.707-1.594L9.446,23.79l-1.008-0.446l1.012,0.449l-0.039,0.082l-0.645,1.446l0.004,0.004c-0.184,0.41-0.586,0.656-1.012,0.656
	H1.106C0.497,25.981,0,25.485,0,24.875c0-0.199,0.051-0.39,0.145-0.55L4.621,14.25l2.426-5.457l1.008,0.446L7.043,8.79
	c0.032-0.071,0.071-0.141,0.118-0.204H7.106c-0.613,0-1.109-0.496-1.109-1.105V1.11C5.997,0.497,6.493,0,7.106,0h4.031
	C11.75,0,12.247,0.497,12.247,1.11L12.247,1.11z M10.032,6.375v-4.16H8.211v4.16H10.032z M45.719,9.797L43.59,14.59l-3.836,8.629
	h4.243l0.386-0.871l1.715-3.859l1.008,0.445l-1.012-0.449c0.25-0.559,0.903-0.809,1.461-0.563c0.297,0.133,0.508,0.379,0.602,0.664
	l1.672,3.762l0.386,0.871h4.242l-3.836-8.629l-2.128-4.793H45.719z M48.157,18.586c0.082,0.254,0.078,0.536-0.039,0.797
	L48.157,18.586z M49.207,8.692l0.231-0.106L49.207,8.692z M13.668,15.141l-2.129-4.793H8.766l-2.129,4.793l-3.836,8.625h4.242
	l0.352-0.789c0.008-0.027,0.019-0.055,0.031-0.082h0.008l1.668-3.758c0.094-0.285,0.305-0.531,0.602-0.664
	c0.558-0.25,1.214,0.004,1.46,0.563l-1.011,0.449l1.008-0.445l1.714,3.859l0.387,0.867h4.242L13.668,15.141z M12.871,4.766h31.52
	V3.821h-31.52V4.766z M47.227,2.215v4.16h1.82v-4.16H47.227z M47.227,2.215"/>
</svg>
