<?xml version="1.0" encoding="utf-8"?>
<!-- Generator: Adobe Illustrator 21.1.0, SVG Export Plug-In . SVG Version: 6.00 Build 0)  -->
<svg version="1.1" id="Слой_1" xmlns="http://www.w3.org/2000/svg" xmlns:xlink="http://www.w3.org/1999/xlink" x="0px" y="0px"
	 viewBox="0 0 49.652 33.882" style="enable-background:new 0 0 49.652 33.882;" xml:space="preserve">
<style type="text/css">
	.st0{fill-rule:evenodd;clip-rule:evenodd;fill:#fff;}
</style>
<path class="st0" d="M37.219,12.664H31.18v19.004h6.039V12.664z M39.43,10.449v23.433H28.969V4.07c0-1.188,0.64-2.246,1.672-2.988
	C31.57,0.414,32.832,0,34.199,0s2.629,0.414,3.559,1.082c1.031,0.742,1.672,1.8,1.672,2.988V10.449z M34.199,2.214
	c-0.902,0-1.703,0.25-2.269,0.657c-0.461,0.332-0.75,0.761-0.75,1.199v0.59h6.039V4.07c0-0.438-0.289-0.867-0.75-1.199
	C35.902,2.464,35.102,2.214,34.199,2.214L34.199,2.214z M31.18,9.507h6.039V7.816H31.18V9.507z M31.18,9.507"/>
<path class="st0" d="M1.106,31.668C0.496,31.668,0,32.164,0,32.777c0,0.609,0.496,1.105,1.106,1.105h47.437
	c0.613,0,1.109-0.496,1.109-1.105c0-0.613-0.496-1.109-1.109-1.109H1.106z M1.106,31.668"/>
<path class="st0" d="M17.246,12.664h-6.035v19.004h6.035V12.664z M19.461,10.449v23.433H8.996V4.07c0-1.188,0.641-2.246,1.676-2.988
	C11.602,0.414,12.863,0,14.231,0c1.363,0,2.625,0.414,3.554,1.082c1.035,0.742,1.676,1.8,1.676,2.988V10.449z M16.5,2.871
	c-0.566-0.407-1.371-0.657-2.269-0.657c-0.903,0-1.707,0.25-2.27,0.657c-0.465,0.332-0.75,0.761-0.75,1.199v0.59h6.035V4.07
	C17.246,3.632,16.961,3.203,16.5,2.871L16.5,2.871z M11.211,9.507h6.035V7.816h-6.035V9.507z M11.211,9.507"/>
</svg>
