<?xml version="1.0" encoding="utf-8"?>
<!-- Generator: Adobe Illustrator 21.1.0, SVG Export Plug-In . SVG Version: 6.00 Build 0)  -->
<svg version="1.1" id="Слой_1" xmlns="http://www.w3.org/2000/svg" xmlns:xlink="http://www.w3.org/1999/xlink" x="0px" y="0px"
	 viewBox="0 0 44.547 29.86" style="enable-background:new 0 0 44.547 29.86;" xml:space="preserve">
<style type="text/css">
	.st0{fill-rule:evenodd;clip-rule:evenodd;fill:#fff;}
</style>
<path class="st0" d="M5.398,27.493h2.055V9.457c0-0.339,0.031-0.679,0.098-1.003c0.066-0.336,0.164-0.661,0.293-0.969
	c0.129-0.313,0.293-0.614,0.484-0.903c0.191-0.281,0.41-0.546,0.648-0.789L8.98,5.797L8.973,5.793l0.07-0.066
	c0.035-0.035,0.074-0.07,0.113-0.102C9.371,5.426,9.598,5.25,9.832,5.098V5.094c0.027-0.015,0.059-0.035,0.086-0.051
	c0.238-0.148,0.488-0.277,0.746-0.382V4.657h0.004h-0.004l0.062-0.024c0.293-0.117,0.594-0.207,0.907-0.269
	c0.332-0.063,0.668-0.098,1.011-0.098h19.141c0.344,0,0.684,0.035,1.012,0.098c0.336,0.066,0.66,0.168,0.968,0.293
	c0.309,0.129,0.61,0.293,0.895,0.484c0.297,0.199,0.563,0.418,0.797,0.648c0.238,0.239,0.457,0.504,0.648,0.793
	c0.192,0.282,0.352,0.582,0.485,0.899c0.125,0.305,0.226,0.633,0.293,0.969c0.062,0.328,0.097,0.668,0.097,1.007v18.036h2.055V9.457
	c0-0.492-0.047-0.964-0.137-1.406l-0.004,0.004l-0.007-0.031c-0.094-0.465-0.231-0.91-0.407-1.332
	c-0.187-0.449-0.41-0.867-0.668-1.254c-0.257-0.387-0.562-0.754-0.906-1.098c-0.344-0.344-0.711-0.648-1.098-0.906
	c-0.386-0.258-0.804-0.48-1.253-0.668c-0.43-0.18-0.887-0.32-1.36-0.414l0.215-1.086l-0.215,1.082l-0.004,0.004
	c-0.027-0.004-0.058-0.012-0.086-0.02c-0.418-0.078-0.855-0.117-1.32-0.117H12.644c-0.48,0-0.949,0.047-1.406,0.137
	c-0.473,0.094-0.93,0.234-1.359,0.414C9.433,2.95,9.015,3.172,8.633,3.426L8.019,2.512l0.614,0.922L8.574,3.469
	C8.203,3.723,7.855,4.008,7.539,4.321l0.004,0.004L7.504,4.36l-0.02,0.023L7.476,4.391L7.453,4.418l-0.02,0.024h0.004
	C7.402,4.481,7.371,4.52,7.332,4.551C7.047,4.86,6.789,5.192,6.566,5.536C6.332,5.899,6.125,6.289,5.953,6.7
	C5.769,7.145,5.625,7.598,5.535,8.055c-0.09,0.441-0.137,0.91-0.137,1.406v18.035V27.493z M8.558,29.707H4.293
	c-0.613,0-1.11-0.496-1.11-1.105V9.457c0-0.609,0.067-1.222,0.188-1.836C3.496,7,3.68,6.407,3.91,5.852
	c0.219-0.527,0.492-1.035,0.805-1.516c0.297-0.461,0.636-0.894,1.004-1.289V3.043l0.015-0.015c0.024-0.032,0.047-0.063,0.074-0.09
	l0.028-0.027c0.023-0.028,0.047-0.055,0.07-0.082L5.91,2.832l0.008-0.007C5.937,2.801,5.961,2.778,5.98,2.754l0.782,0.785
	L5.984,2.758c0.418-0.414,0.871-0.793,1.364-1.125L7.406,1.59L7.41,1.594V1.59h0.004c0.508-0.34,1.055-0.633,1.617-0.863
	c0.574-0.238,1.168-0.422,1.777-0.543C11.406,0.063,12.019,0,12.644,0h19.145c0.574,0,1.152,0.059,1.73,0.168
	c0.036,0,0.071,0.008,0.11,0.016c0.605,0.121,1.203,0.305,1.773,0.543c0.571,0.234,1.117,0.531,1.637,0.875
	c0.523,0.352,1.008,0.746,1.434,1.172c0.425,0.43,0.82,0.91,1.171,1.437c0.344,0.516,0.641,1.063,0.879,1.633
	c0.231,0.563,0.414,1.145,0.535,1.742l0.008,0.032h-0.004l0.004,0.003h-0.008c0.125,0.61,0.188,1.227,0.188,1.84v19.141
	c0,0.609-0.496,1.105-1.105,1.105h-4.266c-0.613,0-1.11-0.496-1.11-1.105V9.461c0-0.207-0.019-0.402-0.054-0.59
	c-0.035-0.191-0.094-0.375-0.164-0.542c-0.074-0.18-0.164-0.348-0.274-0.512c-0.109-0.16-0.238-0.313-0.382-0.461
	c-0.153-0.149-0.305-0.277-0.458-0.383c-0.156-0.105-0.332-0.199-0.511-0.273c-0.172-0.071-0.356-0.125-0.547-0.164
	c-0.184-0.036-0.383-0.055-0.59-0.055H12.644c-0.203,0-0.402,0.019-0.586,0.055c-0.171,0.035-0.339,0.082-0.492,0.14L11.512,6.7
	l-0.079-0.192L11.43,6.512L11.508,6.7c-0.137,0.054-0.274,0.125-0.403,0.207L11.043,6.95V6.946c-0.141,0.093-0.27,0.195-0.387,0.3
	L10.629,7.27l-0.004,0.004c-0.024,0.027-0.051,0.058-0.078,0.086c-0.028,0.027-0.059,0.054-0.09,0.082
	c-0.109,0.113-0.207,0.238-0.293,0.371c-0.106,0.156-0.199,0.332-0.277,0.519C9.816,8.504,9.758,8.688,9.723,8.875
	c-0.04,0.184-0.059,0.379-0.059,0.582v19.145C9.664,29.211,9.168,29.707,8.558,29.707L8.558,29.707z M8.558,29.707"/>
<path class="st0" d="M24.746,5.371v18.543c0,0.614-0.496,1.11-1.109,1.11h-2.844c-0.61,0-1.106-0.496-1.106-1.11V5.371
	c0-0.609,0.496-1.105,1.106-1.105h2.844C24.25,4.266,24.746,4.762,24.746,5.371L24.746,5.371z M22.531,22.809V6.481h-0.629v16.328
	H22.531z M22.531,22.809"/>
<path class="st0" d="M22.215,23.012c2.054,0,3.722,0.422,3.722,0.942c0,0.839-4.007,1.257-6.351,0.664
	C17.242,24.028,18.902,23.012,22.215,23.012L22.215,23.012z M22.215,23.012"/>
<path class="st0" d="M22.215,22.571c1.062,0,2.031,0.109,2.738,0.289c0.883,0.222,1.426,0.605,1.426,1.094
	c0,0.488-0.543,0.871-1.426,1.093c-0.707,0.18-1.676,0.289-2.738,0.289c-1.063,0-2.032-0.109-2.739-0.289
	c-0.878-0.222-1.425-0.605-1.425-1.093c0-0.489,0.547-0.872,1.425-1.094C20.183,22.68,21.152,22.571,22.215,22.571L22.215,22.571z
	 M24.738,23.715c-0.637-0.16-1.531-0.261-2.523-0.261s-1.883,0.101-2.524,0.261c-0.465,0.117-0.754,0.207-0.754,0.239
	c0,0.031,0.289,0.117,0.754,0.238c0.641,0.16,1.532,0.262,2.524,0.262s1.886-0.102,2.527-0.262c0.465-0.121,0.754-0.207,0.754-0.238
	C25.496,23.922,25.207,23.832,24.738,23.715L24.738,23.715z M24.738,23.715"/>
<path class="st0" d="M33.055,27.645c-0.614,0-1.106,0.496-1.106,1.105c0,0.614,0.492,1.11,1.106,1.11h10.386
	c0.61,0,1.106-0.496,1.106-1.11c0-0.609-0.496-1.105-1.106-1.105H33.055z M33.055,27.645"/>
<path class="st0" d="M1.109,27.645C0.496,27.645,0,28.141,0,28.75c0,0.614,0.496,1.11,1.109,1.11h10.387
	c0.609,0,1.105-0.496,1.105-1.11c0-0.609-0.496-1.105-1.105-1.105H1.109z M1.109,27.645"/>
</svg>
