<?xml version="1.0" encoding="utf-8"?>
<!-- Generator: Adobe Illustrator 21.1.0, SVG Export Plug-In . SVG Version: 6.00 Build 0)  -->
<svg version="1.1" id="Слой_1" xmlns="http://www.w3.org/2000/svg" xmlns:xlink="http://www.w3.org/1999/xlink" x="0px" y="0px"
	 viewBox="0 0 56.422 25.235" style="enable-background:new 0 0 56.422 25.235;" xml:space="preserve">
<style type="text/css">
	.st0{fill-rule:evenodd;clip-rule:evenodd;fill:#fff;}
</style>
<path class="st0" d="M45.211,23.434V11.707c0-0.457-0.09-0.89-0.254-1.285c-0.171-0.414-0.425-0.785-0.742-1.105
	C43.899,9,43.524,8.746,43.114,8.575c-0.395-0.165-0.832-0.254-1.289-0.254H14.399c-0.457,0-0.895,0.089-1.289,0.254
	C12.7,8.746,12.325,9,12.008,9.317c-0.316,0.316-0.57,0.691-0.742,1.105c-0.164,0.395-0.254,0.828-0.254,1.285v11.727
	c0,0.613-0.496,1.109-1.109,1.109H3.797c-0.609,0-1.105-0.496-1.105-1.109V11.707c0-1.574,0.316-3.086,0.89-4.468
	c0.594-1.43,1.465-2.719,2.543-3.801l0.786,0.781L6.125,3.434l0.067-0.059c1.066-1.05,2.336-1.902,3.738-2.484
	C11.313,0.317,12.821,0,14.399,0h27.426c1.578,0,3.086,0.317,4.468,0.891c1.43,0.594,2.719,1.465,3.801,2.543l-0.781,0.785
	l0.785-0.785L50.157,3.5c1.05,1.067,1.902,2.336,2.484,3.739c0.574,1.382,0.891,2.894,0.891,4.468v11.727
	c0,0.613-0.496,1.109-1.106,1.109h-6.105C45.707,24.543,45.211,24.047,45.211,23.434L45.211,23.434z M47.426,11.707v10.621h3.895
	V11.707c0-1.285-0.258-2.507-0.719-3.621c-0.473-1.136-1.16-2.164-2.012-3.031L48.532,5h0.004l-0.004-0.004
	c-0.875-0.875-1.926-1.582-3.086-2.066c-1.114-0.461-2.336-0.719-3.621-0.719H14.399c-1.285,0-2.508,0.258-3.621,0.719
	C9.641,3.403,8.614,4.09,7.746,4.942L7.692,5V4.996L7.688,5C6.813,5.879,6.106,6.926,5.621,8.086
	c-0.46,1.114-0.718,2.336-0.718,3.621v10.621h3.894V11.707c0-0.75,0.153-1.472,0.43-2.132c0.285-0.692,0.703-1.309,1.219-1.821
	c0.511-0.515,1.129-0.933,1.82-1.219c0.66-0.277,1.383-0.429,2.133-0.429h27.426c0.75,0,1.472,0.152,2.136,0.429
	c0.688,0.286,1.305,0.704,1.821,1.219c0.511,0.512,0.929,1.129,1.214,1.821C47.274,10.235,47.426,10.957,47.426,11.707
	L47.426,11.707z M47.426,11.707"/>
<rect x="30.852" y="1.106" class="st0" width="5.027" height="6.105"/>
<path class="st0" d="M30.852,0h6.133v8.321h-7.242V0H30.852z M34.774,2.211h-2.817v3.895h2.817V2.211z M34.774,2.211"/>
<rect x="20.11" y="1.106" class="st0" width="5.027" height="6.105"/>
<path class="st0" d="M20.11,0h6.136v8.321h-7.242V0H20.11z M24.032,2.211h-2.813v3.895h2.813V2.211z M24.032,2.211"/>
<path class="st0" d="M1.11,23.024c-0.614,0-1.11,0.492-1.11,1.105c0,0.61,0.496,1.106,1.11,1.106h11.5
	c0.609,0,1.105-0.496,1.105-1.106c0-0.613-0.496-1.105-1.105-1.105H1.11z M1.11,23.024"/>
<path class="st0" d="M43.817,23.024c-0.614,0-1.11,0.492-1.11,1.105c0,0.61,0.496,1.106,1.11,1.106h11.5
	c0.609,0,1.105-0.496,1.105-1.106c0-0.613-0.496-1.105-1.105-1.105H43.817z M43.817,23.024"/>
</svg>
