<?xml version="1.0" encoding="utf-8"?>
<!-- Generator: Adobe Illustrator 21.1.0, SVG Export Plug-In . SVG Version: 6.00 Build 0)  -->
<svg version="1.1" id="Слой_1" xmlns="http://www.w3.org/2000/svg" xmlns:xlink="http://www.w3.org/1999/xlink" x="0px" y="0px"
	 viewBox="0 0 55.947 38.606" style="enable-background:new 0 0 55.947 38.606;" xml:space="preserve">
<style type="text/css">
	.st0{fill-rule:evenodd;clip-rule:evenodd;fill:#fff;}
</style>
<path class="st0" d="M9.481,0h36.988c1.254,0,2.395,0.511,3.219,1.34c0.824,0.824,1.336,1.964,1.336,3.218v24.469
	c0,0.684-0.555,1.238-1.238,1.238H6.161c-0.684,0-1.238-0.554-1.238-1.238V4.558c0-1.254,0.511-2.394,1.335-3.218
	C7.087,0.511,8.227,0,9.481,0L9.481,0z M46.469,2.476H9.481c-0.574,0-1.094,0.235-1.469,0.614C7.633,3.465,7.399,3.988,7.399,4.558
	v23.231h41.149V4.558c0-0.57-0.235-1.093-0.61-1.468C47.559,2.711,47.04,2.476,46.469,2.476L46.469,2.476z M46.469,2.476"/>
<path class="st0" d="M50.856,28.222c-0.34-0.589-1.094-0.793-1.683-0.453c-0.59,0.34-0.793,1.094-0.454,1.684l4.926,8.535
	c0.34,0.59,1.094,0.793,1.684,0.453s0.793-1.094,0.453-1.683L50.856,28.222z M50.856,28.222"/>
<path class="st0" d="M0.165,36.758c-0.34,0.589-0.137,1.343,0.453,1.683c0.59,0.34,1.344,0.137,1.683-0.453l3.86-6.687l3.859,6.687
	c0.34,0.59,1.094,0.793,1.684,0.453s0.793-1.094,0.453-1.683l-4.871-8.434c-0.102-0.227-0.274-0.426-0.508-0.559
	c-0.59-0.343-1.348-0.14-1.691,0.454l1.074,0.617l-1.07-0.614L0.165,36.758z M0.165,36.758"/>
<path class="st0" d="M33.7,1.804c0-0.683-0.555-1.238-1.238-1.238c-0.684,0-1.239,0.555-1.239,1.238v27.125
	c0,0.684,0.555,1.239,1.239,1.239c0.683,0,1.238-0.555,1.238-1.239V1.804z M33.7,1.804"/>
<path class="st0" d="M24.723,1.804c0-0.683-0.554-1.238-1.238-1.238s-1.238,0.555-1.238,1.238v27.125
	c0,0.684,0.554,1.239,1.238,1.239s1.238-0.555,1.238-1.239V1.804z M24.723,1.804"/>
<path class="st0" d="M15.747,1.804c0-0.683-0.555-1.238-1.239-1.238c-0.683,0-1.238,0.555-1.238,1.238v27.125
	c0,0.684,0.555,1.239,1.238,1.239c0.684,0,1.239-0.555,1.239-1.239V1.804z M15.747,1.804"/>
<path class="st0" d="M42.68,1.804c0-0.683-0.554-1.238-1.238-1.238s-1.238,0.555-1.238,1.238v27.125
	c0,0.684,0.554,1.239,1.238,1.239s1.238-0.555,1.238-1.239V1.804z M42.68,1.804"/>
<path class="st0" d="M43.79,36.758c-0.34,0.589-0.137,1.343,0.453,1.683c0.594,0.34,1.344,0.137,1.683-0.453l4.821-8.348
	c0.34-0.589,0.133-1.343-0.457-1.683c-0.59-0.34-1.344-0.133-1.68,0.457L43.79,36.758z M43.79,36.758"/>
</svg>
