<?xml version="1.0" encoding="utf-8"?>
<!-- Generator: Adobe Illustrator 21.1.0, SVG Export Plug-In . SVG Version: 6.00 Build 0)  -->
<svg version="1.1" id="Слой_1" xmlns="http://www.w3.org/2000/svg" xmlns:xlink="http://www.w3.org/1999/xlink" x="0px" y="0px"
	 viewBox="0 0 42.25 30.617" style="enable-background:new 0 0 42.25 30.617;" xml:space="preserve">
<style type="text/css">
	.st0{fill-rule:evenodd;clip-rule:evenodd;fill:#fff;}
	.st1{fill:none;stroke:#fff;stroke-width:2;stroke-linecap:round;stroke-linejoin:round;}
	.st2{fill:none;stroke:#fff;stroke-width:1.1338;stroke-linecap:round;stroke-linejoin:round;}
</style>
<path class="st0" d="M0.38,29.508c0,0.613,0.496,1.109,1.105,1.109c0.614,0,1.11-0.496,1.11-1.109V2.211h37.027v27.297
	c0,0.613,0.496,1.109,1.106,1.109c0.613,0,1.109-0.496,1.109-1.109V1.105C41.837,0.496,41.341,0,40.728,0H1.485
	C0.876,0,0.38,0.496,0.38,1.105V29.508z M0.38,29.508"/>
<line class="st1" x1="1.485" y1="16.989" x2="40.728" y2="16.989"/>
<path class="st0" d="M40.626,3.676c0.414-0.41,0.418-1.082,0.004-1.496c-0.41-0.411-1.078-0.414-1.492-0.004l-5.442,5.406
	l-5.652-5.469c-0.016-0.015-0.031-0.031-0.047-0.047c-0.414-0.41-1.086-0.41-1.496,0.008h0.004l-5.281,5.328l-5.289-5.25
	l-0.743,0.746l0.746-0.75c-0.417-0.41-1.085-0.41-1.5,0.004c-0.015,0.02-0.031,0.035-0.046,0.055l-5.43,5.391L3.466,2.223
	c-0.418-0.411-1.09-0.403-1.5,0.015c-0.41,0.418-0.403,1.09,0.015,1.5L7.458,9.09l-5.48,5.441c-0.415,0.414-0.415,1.082-0.004,1.496
	c0.414,0.414,1.082,0.414,1.496,0.004l5.496-5.461l5.387,5.266l0.742-0.754l-0.742,0.754c0.421,0.41,1.089,0.402,1.5-0.016
	c0.015-0.015,0.031-0.035,0.046-0.054l5.336-5.375l5.516,5.476c0.016,0.02,0.031,0.035,0.047,0.055
	c0.414,0.414,1.082,0.418,1.5,0.004l-0.746-0.75l0.742,0.746l5.422-5.383l5.429,5.258c0.418,0.406,1.086,0.398,1.497-0.02
	c0.406-0.418,0.394-1.086-0.024-1.496l-5.406-5.23L40.626,3.676z M32.196,9.07l-4.644,4.617L22.72,8.891l4.551-4.586L32.196,9.07z
	 M10.47,9.074l4.722-4.687l4.543,4.515l-4.648,4.688L10.47,9.074z M10.47,9.074"/>
<path class="st2" d="M0.731,29.507h1.508 M39.974,29.507h1.507"/>
</svg>
