<?xml version="1.0" encoding="utf-8"?>
<!-- Generator: Adobe Illustrator 21.1.0, SVG Export Plug-In . SVG Version: 6.00 Build 0)  -->
<svg version="1.1" id="Слой_1" xmlns="http://www.w3.org/2000/svg" xmlns:xlink="http://www.w3.org/1999/xlink" x="0px" y="0px"
	 viewBox="0 0 41.958 30.617" style="enable-background:new 0 0 41.958 30.617;" xml:space="preserve">
<style type="text/css">
	.st0{fill-rule:evenodd;clip-rule:evenodd;fill:#fff;}
	.st1{fill:none;stroke:#fff;stroke-width:1.1338;stroke-linecap:round;stroke-linejoin:round;}
</style>
<path class="st0" d="M0.265,29.511c0,0.61,0.496,1.106,1.105,1.106c0.609,0,1.106-0.496,1.106-1.106V2.214h37.031v27.297
	c0,0.61,0.496,1.106,1.105,1.106c0.614,0,1.106-0.496,1.106-1.106V1.109C41.718,0.496,41.226,0,40.612,0H1.37
	C0.761,0,0.265,0.496,0.265,1.109V29.511z M0.265,29.511"/>
<path class="st1" d="M1.37,5.426h39.242 M0.616,29.512h1.508 M39.858,29.512h1.508 M1.37,9.96h39.242 M1.37,14.496h39.242
	 M1.37,19.258h39.242 M7.198,19.258V2.059 M12.733,19.258V2.059 M18.265,19.258V2.059 M23.8,19.258V2.059 M29.335,19.258V2.059
	 M34.866,19.258V2.059"/>
</svg>
