<?xml version="1.0" encoding="utf-8"?>
<!-- Generator: Adobe Illustrator 21.1.0, SVG Export Plug-In . SVG Version: 6.00 Build 0)  -->
<svg version="1.1" id="Слой_1" xmlns="http://www.w3.org/2000/svg" xmlns:xlink="http://www.w3.org/1999/xlink" x="0px" y="0px"
	 viewBox="0 0 50.5 31.439" style="enable-background:new 0 0 50.5 31.439;" xml:space="preserve">
<style type="text/css">
	.st0{fill:none;stroke:#fff;stroke-width:2.2677;}
	.st1{fill-rule:evenodd;clip-rule:evenodd;fill:#fff;}
</style>
<path class="st0" d="M9.625,13.11c4.641,0,8.402,3.762,8.402,8.402c0,7.485-9.05,11.231-14.339,5.938
	C-1.605,22.161,2.141,13.11,9.625,13.11L9.625,13.11z M9.625,13.11 M35.223,12.626c4.64,0,8.402,3.757,8.402,8.398
	c0,7.484-9.047,11.23-14.34,5.938C23.992,21.672,27.738,12.626,35.223,12.626L35.223,12.626z M35.223,12.626"/>
<path class="st1" d="M17.648,20.11l1.418,1.687l15.196-12.75L32.844,7.36L17.648,20.11z M17.648,20.11"/>
<path class="st1" d="M10.223,20.211h8.652l0.191,2.27H9.082c-0.625,0-1.133-0.508-1.133-1.137c0-0.039,0-0.082,0.004-0.121
	L9.074,9.356l2.27,0.07L10.223,20.211z M10.223,20.211"/>
<path class="st1" d="M7.797,6.703h5.117v0.008c0.059-0.004,0.117-0.008,0.176-0.008c1.168,0,2.117,0.864,2.117,1.926
	c0,1.063-0.949,1.926-2.117,1.926c-0.059,0-0.117-0.004-0.176-0.008v0.008H7.797v-0.004c-0.051,0-0.098,0.004-0.149,0.004
	c-1.171,0-2.117-0.863-2.117-1.926c0-1.062,0.946-1.926,2.117-1.926c0.051,0,0.098,0.004,0.149,0.004V6.703z M7.797,6.703"/>
<path class="st1" d="M19.516,28.563L48.344,0.43C48.551,0.168,48.871,0,49.23,0c0.625,0,1.133,0.508,1.133,1.137V29.41
	c0,0.684-0.609,1.172-1.273,1.133H20.34c-0.028,0-0.051,0-0.074,0c-0.024,0-0.047,0-0.071,0c-0.593-0.039-1.062-0.531-1.062-1.133
	c0-0.336,0.148-0.64,0.379-0.847H19.516z M48.082,3.852L23.055,28.274h25.027V3.852z M48.082,3.852"/>
<path class="st1" d="M35.141,19.524c0.625,0,1.132,0.507,1.132,1.136c0,1.008-1.218,1.516-1.933,0.801
	C33.625,20.746,34.129,19.524,35.141,19.524L35.141,19.524z M35.141,19.524"/>
<path class="st1" d="M27.941,0.336h5.161V0.34l0.058-0.004c0.633,0,1.145,0.481,1.145,1.074l1.816,17.762
	c0.055,0.477,0.109,0.938,0.152,1.375l-0.011,0.004l0.011,0.109l-1.683-0.027l-0.582,0.031L32.156,2.606h-4.215V2.602
	c-0.589-0.039-1.058-0.532-1.058-1.133c0-0.598,0.469-1.09,1.058-1.129V0.336z M27.941,0.336"/>
</svg>
