<?xml version="1.0" encoding="utf-8"?>
<!-- Generator: Adobe Illustrator 21.1.0, SVG Export Plug-In . SVG Version: 6.00 Build 0)  -->
<svg version="1.1" id="Слой_1" xmlns="http://www.w3.org/2000/svg" xmlns:xlink="http://www.w3.org/1999/xlink" x="0px" y="0px"
	 viewBox="0 0 50.984 18.937" style="enable-background:new 0 0 50.984 18.937;" xml:space="preserve">
<style type="text/css">
	.st0{fill-rule:evenodd;clip-rule:evenodd;fill:#fff;}
</style>
<path class="st0" d="M41.516,0.441c4.965,0,9.027,4.063,9.027,9.028s-4.062,9.023-9.027,9.023V0.441z M9.469,18.492
	c-4.965,0-9.024-4.058-9.024-9.023s4.059-9.028,9.024-9.028V18.492z M9.469,18.492"/>
<path class="st0" d="M41.516,0c2.605,0,4.968,1.066,6.687,2.781c1.715,1.719,2.781,4.086,2.781,6.688
	c0,2.601-1.066,4.968-2.781,6.687v-0.004c-1.715,1.719-4.082,2.785-6.687,2.785h-0.442V0H41.516z M47.578,3.406
	c-1.457-1.457-3.433-2.398-5.617-2.508v17.141c2.184-0.113,4.16-1.051,5.617-2.508v-0.004c1.555-1.554,2.52-3.699,2.52-6.058
	C50.098,7.105,49.133,4.961,47.578,3.406L47.578,3.406z M9.469,18.937c-2.602,0-4.969-1.066-6.688-2.785v0.004
	C1.067,14.437,0,12.07,0,9.469C0,6.867,1.067,4.5,2.781,2.781h0.004C4.5,1.066,6.867,0,9.469,0H9.91v18.937H9.469z M3.406,15.531
	c1.457,1.457,3.434,2.395,5.621,2.508V0.898C6.84,1.008,4.863,1.949,3.406,3.406C1.852,4.961,0.887,7.105,0.887,9.469
	c0,2.359,0.965,4.504,2.519,6.058V15.531z M3.406,15.531"/>
<path class="st0" d="M10.945,0.441h29.094v18.051H10.945V0.441z M14.074,10.75h6.293v5.918h-6.293V10.75z M14.074,2.266h6.293v5.921
	h-6.293V2.266z M30.621,10.75h6.289v5.918h-6.289V10.75z M30.621,2.266h6.289v5.921h-6.289V2.266z M22.348,10.75h6.289v5.918h-6.289
	V10.75z M22.348,2.266h6.289v5.921h-6.289V2.266z M22.348,2.266"/>
<path class="st0" d="M10.945,0h29.539v18.937h-29.98V0H10.945z M39.598,0.887H11.387v17.164h28.211V0.887z M14.074,10.305h6.735
	v6.804h-7.176v-6.804H14.074z M19.922,11.191H14.52v5.035h5.402V11.191z M14.074,1.824h6.735v6.805h-7.176V1.824H14.074z
	 M19.922,2.711H14.52v5.035h5.402V2.711z M30.621,10.305h6.731v6.804h-7.176v-6.804H30.621z M36.469,11.191h-5.406v5.035h5.406
	V11.191z M30.621,1.824h6.731v6.805h-7.176V1.824H30.621z M36.469,2.711h-5.406v5.035h5.406V2.711z M22.348,10.305h6.734v6.804
	h-7.176v-6.804H22.348z M28.195,11.191h-5.406v5.035h5.406V11.191z M22.348,1.824h6.734v6.805h-7.176V1.824H22.348z M28.195,2.711
	h-5.406v5.035h5.406V2.711z M28.195,2.711"/>
</svg>
