<?xml version="1.0" encoding="utf-8"?>
<!-- Generator: Adobe Illustrator 21.1.0, SVG Export Plug-In . SVG Version: 6.00 Build 0)  -->
<svg version="1.1" id="Слой_1" xmlns="http://www.w3.org/2000/svg" xmlns:xlink="http://www.w3.org/1999/xlink" x="0px" y="0px"
	 viewBox="0 0 30.416 33.882" style="enable-background:new 0 0 30.416 33.882;" xml:space="preserve">
<style type="text/css">
	.st0{fill-rule:evenodd;clip-rule:evenodd;fill:#fff;}
</style>
<path class="st0" d="M17.983,12.664h-6.039v19.004h6.039V12.664z M20.193,10.449v23.433H9.733V4.07c0-1.188,0.64-2.246,1.672-2.988
	C12.334,0.414,13.596,0,14.963,0s2.629,0.414,3.559,1.082c1.031,0.742,1.672,1.8,1.672,2.988V10.449z M14.963,2.214
	c-0.902,0-1.703,0.25-2.269,0.657c-0.461,0.332-0.75,0.761-0.75,1.199v0.59h6.039V4.07c0-0.438-0.289-0.867-0.75-1.199
	C16.666,2.464,15.865,2.214,14.963,2.214L14.963,2.214z M11.943,9.507h6.039V7.816h-6.039V9.507z M11.943,9.507"/>
<path class="st0" d="M1.106,31.668C0.496,31.668,0,32.164,0,32.777c0,0.609,0.496,1.105,1.106,1.105h28.201
	c0.613,0,1.109-0.496,1.109-1.105c0-0.613-0.496-1.109-1.109-1.109H1.106z M1.106,31.668"/>
<rect x="9.955" y="15.414" class="st0" width="10.125" height="3"/>
<rect x="9.955" y="20.789" class="st0" width="10.125" height="3"/>
<rect x="9.955" y="26.414" class="st0" width="10.125" height="3"/>
</svg>
