<?xml version="1.0" encoding="utf-8"?>
<!-- Generator: Adobe Illustrator 21.1.0, SVG Export Plug-In . SVG Version: 6.00 Build 0)  -->
<svg version="1.1" id="Слой_1" xmlns="http://www.w3.org/2000/svg" xmlns:xlink="http://www.w3.org/1999/xlink" x="0px" y="0px"
	 viewBox="0 0 386.331 366.165" style="enable-background:new 0 0 386.331 366.165;" xml:space="preserve">
<style type="text/css">.st10{fill:#ffb945; clip-rule:evenodd;fill-rule:evenodd;}
</style>
<g>
	<path class="st10"  d="M329.166,366.165c-5.054,0-9.165-4.111-9.165-9.165v-14.835h-93.67V357c0,5.054-4.111,9.165-9.165,9.165h-48
		c-5.054,0-9.166-4.111-9.166-9.165v-14.835H66.331V357c0,5.054-4.112,9.165-9.166,9.165h-48C4.112,366.165,0,362.054,0,357v-72
		c0-5.054,4.112-9.165,9.166-9.165H24V149c0-5.054,4.112-9.166,9.166-9.166H104V13c0-5.054,4.112-9.166,9.166-9.166h160
		c5.054,0,9.165,4.112,9.165,9.166v126.834h70.835c5.054,0,9.165,4.112,9.165,9.166v126.835h14.835c5.054,0,9.165,4.111,9.165,9.165
		v72c0,5.054-4.111,9.165-9.165,9.165H329.166z M329.166,323.835c5.054,0,9.165,4.111,9.165,9.165v14.835H368v-53.67H18.331v53.67
		H48V333c0-5.054,4.112-9.165,9.166-9.165h112c5.054,0,9.166,4.111,9.166,9.165v14.835H208V333c0-5.054,4.111-9.165,9.165-9.165
		H329.166z M202.331,275.835H344V158.166h-141.67V275.835z M42.331,275.835H184V158.166H42.331V275.835z M122.331,139.834H264
		V22.166H122.331V139.834z"/>
</g>
</svg>
