<?xml version="1.0" encoding="utf-8"?>
<!-- Generator: Adobe Illustrator 21.1.0, SVG Export Plug-In . SVG Version: 6.00 Build 0)  -->
<svg version="1.1" id="Слой_1" xmlns="http://www.w3.org/2000/svg" xmlns:xlink="http://www.w3.org/1999/xlink" x="0px" y="0px"
	 viewBox="0 0 48 44.801" style="enable-background:new 0 0 48 44.801;" xml:space="preserve">
<style type="text/css">.st10{fill:#ffb945; clip-rule:evenodd;fill-rule:evenodd;}
</style>
<g>
	<path class="st10" d="M36.801,12c0.446,0,0.801-0.359,0.801-0.801c0-0.441-0.355-0.801-0.801-0.801h-12c-0.441,0-0.796,0.36-0.796,0.801
		c0,0.442,0.355,0.801,0.796,0.801H36.801L36.801,12z M36.801,12"/>
	<path class="st10" d="M9.602,16.801c-0.441,0-0.801,0.359-0.801,0.801c0,0.441,0.36,0.796,0.801,0.796h27.199c0.446,0,0.801-0.355,0.801-0.796
		c0-0.442-0.355-0.801-0.801-0.801H9.602L9.602,16.801z M9.602,16.801"/>
	<path class="st10" d="M9.602,23.199c-0.441,0-0.801,0.36-0.801,0.801c0,0.441,0.36,0.801,0.801,0.801h27.199c0.446,0,0.801-0.36,0.801-0.801
		c0-0.441-0.355-0.801-0.801-0.801H9.602L9.602,23.199z M9.602,23.199"/>
	<path class="st10" d="M43.199,0H4.801C2.199,0,0,2.199,0,4.801v26.398C0,33.801,2.199,36,4.801,36h6.398v8c0,0.332,0.203,0.629,0.512,0.746
		c0.094,0.035,0.191,0.055,0.289,0.055c0.223,0,0.438-0.094,0.594-0.262L20.355,36h22.844C45.801,36,48,33.801,48,31.199V4.801
		C48,2.199,45.801,0,43.199,0L43.199,0z M46.398,31.199c0,1.735-1.464,3.199-3.199,3.199H21.742l2.863-3.328
		c0.29-0.332,0.25-0.84-0.082-1.129c-0.335-0.285-0.839-0.246-1.128,0.086L19.41,34.66l-6.609,7.27v-6.731
		c0-0.441-0.36-0.801-0.801-0.801H4.801c-1.735,0-3.199-1.464-3.199-3.199V4.801c0-1.735,1.464-3.199,3.199-3.199h38.398
		c1.735,0,3.199,1.464,3.199,3.199V31.199z M46.398,31.199"/>
</g>
</svg>
