<?xml version="1.0" encoding="utf-8"?>
<!-- Generator: Adobe Illustrator 21.1.0, SVG Export Plug-In . SVG Version: 6.00 Build 0)  -->
<svg version="1.1" id="Layer_1" xmlns="http://www.w3.org/2000/svg" xmlns:xlink="http://www.w3.org/1999/xlink" x="0px" y="0px"
	 viewBox="-49 141 512 512" style="enable-background:new -49 141 512 512;" xml:space="preserve">
<style type="text/css">.st10{fill:#ffb945; clip-rule:evenodd;fill-rule:evenodd;}
</style>
<path class="st10" d="M125.233,654.417c-12.324,0-23.922-4.787-32.659-13.479c-5.236-5.209-12.121-8.078-19.387-8.078h-18.37v1.277
	c0,11.183-9.098,20.28-20.281,20.28h-64.673c-11.183,0-20.281-9.098-20.281-20.28V450.895c0-11.183,9.098-20.28,20.281-20.28h64.673
	c11.183,0,20.281,9.098,20.281,20.28v1.278h18.074c5.197,0,9.793-3.313,11.437-8.244l3.01-9.032
	c8.725-26.168,13.149-53.425,13.149-81.012c0-17.126,13.933-31.06,31.06-31.06c11.176,0,21.683,4.352,29.586,12.254
	c7.902,7.902,12.254,18.41,12.254,29.586v55.17h98.287c17.126,0,31.059,13.933,31.059,31.059v10.779
	c0,8.015-3.161,15.789-8.72,21.558c5.559,5.769,8.72,13.543,8.72,21.558v10.779c0,8.016-3.161,15.79-8.72,21.558
	c5.559,5.769,8.72,13.544,8.72,21.559v10.778c0,8.015-3.161,15.79-8.72,21.559c5.559,5.768,8.72,13.542,8.72,21.558v10.778
	c0,17.126-13.933,31.06-31.059,31.06H125.233z M73.188,613.856c12.323,0,23.968,4.833,32.79,13.61
	c5.151,5.125,11.99,7.948,19.256,7.948h146.439c6.647,0,12.057-5.409,12.057-12.058v-10.778c0-6.647-5.409-12.057-12.057-12.057
	h-75.453c-5.239,0-9.502-4.262-9.502-9.501s4.263-9.502,9.502-9.502h75.453c6.647,0,12.057-5.409,12.057-12.057v-10.778
	c0-6.647-5.409-12.057-12.057-12.057h-75.453c-5.239,0-9.502-4.263-9.502-9.502s4.263-9.501,9.502-9.501h75.453
	c6.647,0,12.057-5.409,12.057-12.057v-10.779c0-6.647-5.409-12.057-12.057-12.057h-75.453c-5.239,0-9.502-4.262-9.502-9.501
	s4.263-9.501,9.502-9.501h75.453c6.647,0,12.057-5.409,12.057-12.057v-10.779c0-6.647-5.409-12.057-12.057-12.057h-98.287v12.057
	c0,5.239-4.263,9.501-9.502,9.501s-9.501-4.262-9.501-9.501v-86.229c0-6.1-2.375-11.835-6.688-16.148s-10.048-6.689-16.148-6.689
	c-6.648,0-12.056,5.408-12.056,12.056c0,29.635-4.752,58.914-14.124,87.023l-3.01,9.031c-4.235,12.702-16.077,21.236-29.466,21.236
	H54.817v142.682H73.188z M34.537,635.415c0.705,0,1.277-0.573,1.277-1.278V450.895c0-0.704-0.573-1.277-1.277-1.277h-64.673
	c-0.705,0-1.277,0.573-1.277,1.277v183.242c0,0.705,0.573,1.278,1.277,1.278h22.835V526.348c0-5.239,4.263-9.502,9.502-9.502
	s9.501,4.263,9.501,9.502v109.067H34.537z M370.624,532.169c-5.668,0-11.146-1.654-15.843-4.785l-40.433-26.955
	c-2.111-1.407-3.549-3.554-4.047-6.042c-0.498-2.489,0.003-5.022,1.412-7.134c1.765-2.65,4.723-4.232,7.911-4.232
	c1.877,0,3.696,0.553,5.264,1.597l40.433,26.954c1.576,1.051,3.415,1.605,5.318,1.605c2.578,0,4.994-0.996,6.803-2.805
	l18.382-18.382c3.227-3.228,3.731-8.324,1.2-12.121l-26.955-40.434c-1.995-2.993-2.138-6.799-0.372-9.933
	c5.593-9.931,9.988-20.538,13.063-31.526c0.97-3.462,3.762-6.052,7.287-6.757l47.646-9.529c4.475-0.895,7.723-4.856,7.723-9.42
	v-25.994c0-4.564-3.248-8.526-7.722-9.42l-47.646-9.529c-3.525-0.706-6.317-3.295-7.287-6.757
	c-3.075-10.991-7.471-21.598-13.063-31.526c-1.768-3.133-1.624-6.939,0.373-9.934l26.953-40.433
	c2.532-3.796,2.027-8.895-1.199-12.122l-18.381-18.38c-1.809-1.81-4.225-2.807-6.803-2.807c-1.903,0-3.742,0.556-5.318,1.606
	l-40.434,26.955c-1.565,1.044-3.389,1.596-5.271,1.596c-1.63,0-3.242-0.422-4.663-1.222c-9.926-5.592-20.532-9.987-31.526-13.063
	c-3.463-0.969-6.052-3.762-6.757-7.287l-9.529-47.645c-0.894-4.475-4.854-7.723-9.419-7.723h-25.994
	c-4.563,0-8.524,3.248-9.42,7.723l-9.528,47.645c-0.706,3.526-3.295,6.318-6.757,7.287c-10.993,3.076-21.6,7.471-31.526,13.063
	c-1.421,0.8-3.034,1.222-4.663,1.222c-1.883,0-3.706-0.552-5.271-1.596l-40.432-26.954c-1.575-1.05-3.414-1.605-5.318-1.605
	c-2.578,0-4.994,0.996-6.803,2.805l-18.381,18.382c-3.228,3.227-3.733,8.324-1.201,12.121l26.955,40.433
	c1.996,2.995,2.138,6.801,0.373,9.934c-5.595,9.933-9.99,20.54-13.063,31.526c-0.969,3.463-3.761,6.052-7.287,6.757l-47.645,9.529
	c-4.474,0.895-7.722,4.856-7.722,9.42v25.994c0,4.564,3.247,8.526,7.721,9.419l27.755,5.55c5.137,1.026,8.481,6.042,7.454,11.179
	c-0.885,4.428-4.801,7.641-9.31,7.641c-0.624,0-1.253-0.063-1.87-0.186l-27.755-5.551c-13.327-2.665-23-14.463-23-28.054v-25.994
	c0-13.59,9.673-25.389,23-28.055l42.047-8.408c2.736-8.56,6.205-16.932,10.322-24.913l-23.787-35.682
	c-7.538-11.307-6.035-26.489,3.573-36.099l18.382-18.383c5.39-5.39,12.583-8.358,20.256-8.358c5.669,0,11.148,1.655,15.844,4.785
	l35.682,23.787c7.979-4.117,16.353-7.585,24.913-10.322l8.41-42.047c2.665-13.327,14.463-23,28.054-23h25.994
	c13.59,0,25.389,9.673,28.054,23l8.409,42.047c8.561,2.737,16.934,6.206,24.913,10.322l35.682-23.787
	c4.695-3.131,10.174-4.787,15.843-4.787c7.672,0,14.866,2.969,20.257,8.361l18.38,18.38c9.609,9.61,11.113,24.792,3.575,36.1
	L389.049,284.9c4.118,7.983,7.588,16.355,10.322,24.913l42.048,8.408c13.326,2.666,22.998,14.465,22.998,28.056v25.994
	c0,13.59-9.672,25.389-22.998,28.054l-42.048,8.409c-2.735,8.557-6.204,16.929-10.322,24.912l23.787,35.682
	c7.538,11.308,6.035,26.49-3.574,36.099l-18.381,18.383C385.49,529.2,378.296,532.169,370.624,532.169z M317.829,438.838
	c-2.459,0-4.792-0.936-6.569-2.636c-1.834-1.755-2.875-4.119-2.931-6.656c-0.056-2.538,0.881-4.944,2.636-6.778
	c19.961-20.858,28.859-49.158,24.413-77.644c-2.259-14.474-7.725-27.786-16.245-39.568c-3.069-4.245-2.113-10.197,2.131-13.268
	c1.632-1.18,3.555-1.803,5.562-1.803c3.044,0,5.925,1.47,7.706,3.934c10.294,14.232,16.896,30.306,19.623,47.775
	c5.366,34.385-5.371,68.542-29.46,93.712C322.886,437.797,320.448,438.838,317.829,438.838z M244.701,402.191
	c-20.928-0.001-39.146-15.606-42.375-36.299c-3.65-23.379,12.402-45.368,35.782-49.019c2.199-0.343,4.435-0.518,6.645-0.518
	c20.927,0,39.144,15.606,42.373,36.301c3.648,23.378-12.403,45.368-35.782,49.018C249.153,402.018,246.918,402.191,244.701,402.191
	L244.701,402.191z M244.728,335.363c-1.227,0-2.468,0.096-3.689,0.286c-13.025,2.034-21.969,14.287-19.936,27.313
	c1.8,11.531,11.949,20.226,23.61,20.226c1.23,0,2.476-0.097,3.701-0.288c13.025-2.034,21.969-14.287,19.937-27.313
	C266.551,344.057,256.395,335.363,244.728,335.363z M155.83,320.272c-1.577,0-3.148-0.403-4.544-1.166
	c-4.596-2.515-6.292-8.299-3.779-12.896c16.658-30.473,45.868-51.017,80.141-56.365c5.762-0.901,11.609-1.358,17.38-1.358
	c24.028,0,46.982,7.731,66.383,22.356c2.026,1.528,3.337,3.753,3.689,6.267c0.354,2.514-0.294,5.014-1.822,7.04
	c-1.812,2.403-4.58,3.782-7.593,3.782c-0.001,0-0.001,0-0.001,0c-2.076,0-4.052-0.662-5.713-1.913
	c-16.073-12.117-35.09-18.521-54.994-18.521c-4.78,0-9.624,0.378-14.398,1.124c-28.393,4.43-52.594,21.454-66.398,46.705
	c-1.667,3.05-4.864,4.945-8.344,4.945H155.83z"/>
<path class="st10" d="M301.316,450.895v10.779c0,8.485-3.584,16.149-9.317,21.558c5.733,5.409,9.317,13.073,9.317,21.558v10.779
	c0,8.485-3.584,16.149-9.317,21.558c5.733,5.409,9.317,13.073,9.317,21.558v10.779c0,8.485-3.584,16.149-9.317,21.558
	c5.733,5.409,9.317,13.073,9.317,21.558v10.779c0,16.344-13.297,29.642-29.642,29.642H125.233c-11.947,0-23.191-4.641-31.66-13.067
	c-5.503-5.475-12.742-8.491-20.386-8.491H53.4v2.695C53.4,644.537,44.937,653,34.537,653h-64.674C-40.537,653-49,644.537-49,634.137
	V450.895c0-10.401,8.463-18.863,18.863-18.863h64.674c10.401,0,18.863,8.463,18.863,18.863v2.695h19.492
	c5.809,0,10.945-3.703,12.782-9.213l3.011-9.032c8.773-26.314,13.221-53.721,13.221-81.461c0-16.344,13.297-29.642,29.642-29.642
	c10.797,0,20.949,4.205,28.584,11.84c7.635,7.635,11.839,17.786,11.839,28.584v86.229c0,4.466-3.62,8.084-8.084,8.084
	c-4.465,0-8.084-3.62-8.084-8.084v-86.229c0-6.479-2.522-12.569-7.103-17.15c-4.581-4.581-10.671-7.104-17.15-7.104
	c-7.43,0-13.474,6.044-13.474,13.474c0,29.482-4.728,58.609-14.051,86.574l-3.009,9.032c-4.042,12.122-15.343,20.268-28.121,20.268
	H53.4v24.253c0,4.466-3.62,8.084-8.084,8.084s-8.084-3.618-8.084-8.084v-43.116c0-1.486-1.209-2.695-2.695-2.695h-64.674
	c-1.485,0-2.695,1.208-2.695,2.695v183.242c0,1.486,1.209,2.695,2.695,2.695h24.253V526.347c0-4.466,3.62-8.084,8.084-8.084
	s8.084,3.618,8.084,8.084v110.484h24.253c1.485,0,2.695-1.208,2.695-2.695V487.347c0-4.466,3.62-8.084,8.084-8.084
	s8.084,3.618,8.084,8.084v127.926h19.788c11.947,0,23.237,4.688,31.79,13.198c5.417,5.391,12.611,8.36,20.256,8.36h146.44
	c7.43,0,13.474-6.044,13.474-13.474v-10.779c0-7.43-6.044-13.474-13.474-13.474h-75.453c-4.465,0-8.084-3.619-8.084-8.084
	c0-4.466,3.62-8.084,8.084-8.084h75.453c7.43,0,13.474-6.044,13.474-13.474v-10.779c0-7.43-6.044-13.474-13.474-13.474h-75.453
	c-4.465,0-8.084-3.618-8.084-8.084c0-4.466,3.62-8.084,8.084-8.084h75.453c7.43,0,13.474-6.044,13.474-13.474v-10.779
	c0-7.43-6.044-13.474-13.474-13.474h-75.453c-4.465,0-8.084-3.618-8.084-8.084c0-4.466,3.62-8.084,8.084-8.084h75.453
	c7.43,0,13.474-6.044,13.474-13.474v-10.779c0-7.43-6.044-13.474-13.474-13.474H164c-4.465,0-8.084-3.618-8.084-8.084
	s3.62-8.084,8.084-8.084h107.674C288.019,421.253,301.316,434.551,301.316,450.895z M203.726,365.673
	c-3.529-22.607,11.993-43.869,34.6-47.399l0,0c22.602-3.531,43.87,11.994,47.398,34.602c3.529,22.607-11.993,43.869-34.6,47.399
	c-2.158,0.337-4.304,0.5-6.423,0.5C224.62,400.774,206.918,386.122,203.726,365.673z M219.702,363.18
	c2.154,13.798,15.133,23.273,28.931,21.119c13.798-2.155,23.272-15.133,21.118-28.932c-2.154-13.798-15.13-23.262-28.931-21.119l0,0
	C227.022,336.403,217.548,349.381,219.702,363.18z M312.144,283.298c2.688-3.565,1.977-8.634-1.589-11.321
	c-23.838-17.972-53.206-25.34-82.691-20.73c-33.834,5.28-62.67,25.561-79.115,55.644c-2.142,3.918-0.702,8.829,3.215,10.972
	c1.231,0.673,2.56,0.993,3.871,0.992c2.86,0,5.632-1.521,7.1-4.207c14.017-25.64,38.591-42.926,67.422-47.425
	c25.126-3.925,50.151,2.352,70.464,17.666C304.388,287.574,309.457,286.864,312.144,283.298z M441.14,319.611l-42.868-8.573
	c-2.839-9.047-6.48-17.834-10.867-26.228l24.252-36.378c7.165-10.748,5.737-25.176-3.398-34.312l-18.38-18.38
	c-9.134-9.135-23.563-10.566-34.312-3.398l-36.378,24.252c-8.395-4.387-17.183-8.028-26.228-10.867l-8.574-42.868
	c-2.533-12.666-13.746-21.86-26.664-21.86h-25.994c-12.916,0-24.131,9.193-26.664,21.86l-8.574,42.868
	c-9.046,2.839-17.834,6.48-26.228,10.867l-36.378-24.252c-10.748-7.165-25.179-5.738-34.312,3.396l-18.381,18.382
	c-9.133,9.134-10.561,23.563-3.396,34.31l24.252,36.378c-4.387,8.395-8.028,17.182-10.867,26.228l-42.868,8.572
	c-12.666,2.534-21.86,13.747-21.86,26.665v25.993c0,12.917,9.193,24.132,21.86,26.665l27.755,5.55
	c4.379,0.874,8.637-1.964,9.512-6.342c0.875-4.378-1.964-8.637-6.342-9.512l-27.755-5.55c-5.134-1.025-8.861-5.573-8.861-10.809
	v-25.993c0-5.236,3.727-9.784,8.861-10.81l47.645-9.529c2.984-0.597,5.38-2.819,6.2-5.75c3.105-11.1,7.545-21.812,13.193-31.84
	c1.494-2.652,1.371-5.919-0.317-8.452l-26.955-40.433c-2.905-4.357-2.325-10.208,1.378-13.909l18.381-18.382
	c3.703-3.703,9.552-4.281,13.909-1.376l40.433,26.954c2.532,1.689,5.799,1.811,8.452,0.318c10.029-5.649,20.741-10.087,31.84-13.192
	c2.931-0.82,5.152-3.215,5.749-6.2l9.529-47.645c1.027-5.135,5.573-8.862,10.809-8.862h25.994c5.236,0,9.783,3.727,10.809,8.862
	l9.529,47.645c0.597,2.985,2.819,5.38,5.75,6.2c11.098,3.105,21.811,7.543,31.84,13.192c2.653,1.493,5.919,1.371,8.452-0.318
	l40.434-26.955c4.357-2.905,10.207-2.327,13.909,1.378l18.38,18.38c3.704,3.704,4.282,9.553,1.378,13.91l-26.955,40.433
	c-1.689,2.533-1.812,5.8-0.317,8.452c5.648,10.028,10.087,20.74,13.193,31.84c0.82,2.931,3.216,5.152,6.2,5.749l47.645,9.529
	c5.135,1.026,8.861,5.574,8.861,10.81v25.993c0,5.236-3.727,9.784-8.861,10.81l-47.645,9.529c-2.984,0.597-5.38,2.819-6.2,5.75
	c-3.105,11.098-7.544,21.81-13.193,31.84c-1.494,2.653-1.371,5.919,0.317,8.452l26.955,40.433
	c2.905,4.357,2.325,10.208-1.378,13.909l-18.381,18.382c-3.703,3.703-9.551,4.281-13.909,1.376l-40.433-26.954
	c-3.714-2.477-8.734-1.473-11.21,2.242c-2.477,3.714-1.472,8.734,2.242,11.21l40.433,26.955c4.582,3.055,9.831,4.548,15.057,4.548
	c7.03,0,14.015-2.704,19.254-7.944l18.381-18.382c9.133-9.134,10.561-23.563,3.396-34.31l-24.252-36.378
	c4.387-8.396,8.028-17.183,10.867-26.228l42.868-8.573c12.666-2.534,21.86-13.747,21.86-26.665v-25.993
	C463,333.359,453.807,322.146,441.14,319.611z M317.829,437.421c2.129,0,4.253-0.835,5.841-2.494
	c23.782-24.85,34.382-58.57,29.084-92.514c-2.691-17.244-9.208-33.113-19.371-47.163c-2.616-3.616-7.669-4.43-11.289-1.813
	c-3.617,2.617-4.429,7.67-1.813,11.289c8.652,11.964,14.203,25.483,16.497,40.18c4.514,28.925-4.521,57.662-24.79,78.843
	c-3.087,3.225-2.975,8.343,0.251,11.43C313.807,436.677,315.82,437.421,317.829,437.421z"/>
</svg>
