<?xml version="1.0" encoding="utf-8"?>
<!-- Generator: Adobe Illustrator 21.1.0, SVG Export Plug-In . SVG Version: 6.00 Build 0)  -->
<svg version="1.1" id="Layer_1" xmlns="http://www.w3.org/2000/svg" xmlns:xlink="http://www.w3.org/1999/xlink" x="0px" y="0px"
	 viewBox="-49 205 512 384" style="enable-background:new -49 205 512 384;" xml:space="preserve">
<style type="text/css">
	.st0{fill:#dadada;}
</style>
<path class="st0" d="M459.875,336.125l-128-128c-2-2-4.708-3.125-7.542-3.125H89.667c-2.833,0-5.542,1.125-7.542,3.125l-128,128
	c-2.021,2.031-3.146,4.792-3.125,7.656c0.042,2.875,1.229,5.615,3.292,7.594l245.333,234.667C201.688,588.01,204.354,589,207,589
	c2.646,0,5.313-0.99,7.375-2.958l245.333-234.667c2.063-1.979,3.25-4.719,3.292-7.594
	C463.021,340.917,461.896,338.156,459.875,336.125z M268.263,354.333L207,543.693l-61.263-189.359H268.263z M150.9,333l56.1-96.173
	L263.1,333H150.9z M225.566,226.333h84.108l-30.007,92.747L225.566,226.333z M134.332,319.081l-30.007-92.747h84.108
	L134.332,319.081z M116.421,333H-12.583l97.469-97.469L116.421,333z M123.322,354.333l60.533,187.102L-11.758,354.333H123.322z
	 M290.678,354.333h135.079L230.146,541.435L290.678,354.333z M297.579,333l31.535-97.469L426.583,333H297.579z"/>
</svg>
