<?xml version="1.0" encoding="utf-8"?>
<!-- Generator: Adobe Illustrator 21.1.0, SVG Export Plug-In . SVG Version: 6.00 Build 0)  -->
<svg version="1.1" id="Слой_1" xmlns="http://www.w3.org/2000/svg" xmlns:xlink="http://www.w3.org/1999/xlink" x="0px" y="0px"
	 viewBox="0 0 336.635 376" style="enable-background:new 0 0 336.635 376;" xml:space="preserve">
<style type="text/css">.st10{fill:#ffb945; clip-rule:evenodd;fill-rule:evenodd;}
</style>
<g>
	<path class="st10" d="M7.417,377.417C3.328,377.417,0,374.09,0,370V30c0-4.09,3.328-7.417,7.417-7.417h18.198c4.859-14.183,18.493-24,33.521-24
		c15.285,0,28.628,9.601,33.526,24h172.556c4.09,0,7.417,3.328,7.417,7.417v272.801c0,2.224-0.984,4.306-2.703,5.725l-66.192,66.192
		c-1.417,1.717-3.516,2.699-5.771,2.699H7.417z M190.602,362.583v-59.782c0-4.09,3.327-7.417,7.417-7.417h59.782V37.417H94.554V78
		c0,12.912-10.505,23.417-23.417,23.417c-12.913,0-23.417-10.505-23.417-23.417V54c0-4.09,3.328-7.417,7.417-7.417
		S62.554,49.91,62.554,54v24c0,4.732,3.85,8.583,8.583,8.583s8.583-3.85,8.583-8.583V37.417H14.835v325.166H190.602z
		 M205.436,352.039l41.821-41.821h-41.821V352.039z M76.248,22.583c-3.798-5.707-10.16-9.165-17.111-9.165
		c-6.825,0-13.306,3.532-17.107,9.165H76.248z"/>
	<path class="st10" d="M268.979,307.473c1.364-1.102,2.239-2.785,2.239-4.672V30c0-3.312-2.684-6-6-6H91.632C87.351,10.117,74.401,0,59.136,0
		C44.112,0,30.968,10.012,26.644,24H7.417c-3.312,0-6,2.688-6,6v340c0,3.312,2.688,6,6,6h190.551c1.937,0,3.621-0.875,4.719-2.234
		L268.979,307.473z M204.019,355.461v-46.66h46.66L204.019,355.461z M59.136,12c8.527,0,15.937,4.883,19.582,12H39.546
		C43.229,16.84,50.726,12,59.136,12L59.136,12z M13.417,36h67.719v42c0,5.516-4.489,10-10,10c-5.516,0-10-4.484-10-10V54
		c0-3.312-2.688-6-6-6c-3.317,0-6,2.688-6,6v24c0,12.129,9.867,22,22,22c12.129,0,22-9.871,22-22V36h166.082v260.801h-61.199
		c-3.313,0-6,2.683-6,6V364H13.417V36z M13.417,36"/>
	<path class="st10" d="M55.417,277.815c-4.09,0-7.417-3.327-7.417-7.417s3.328-7.417,7.417-7.417h161.801c4.09,0,7.417,3.327,7.417,7.417
		s-3.327,7.417-7.417,7.417H55.417z"/>
	<path class="st10" d="M217.218,276.398c3.316,0,6-2.683,6-6c0-3.312-2.684-6-6-6H55.417c-3.312,0-6,2.688-6,6c0,3.317,2.688,6,6,6H217.218z
		 M217.218,276.398"/>
	<path class="st10" d="M55.417,241.815c-4.09,0-7.417-3.327-7.417-7.417s3.328-7.417,7.417-7.417h161.801c4.09,0,7.417,3.327,7.417,7.417
		s-3.327,7.417-7.417,7.417H55.417z"/>
	<path class="st10" d="M55.417,240.398h161.801c3.316,0,6-2.683,6-6c0-3.312-2.684-6-6-6H55.417c-3.312,0-6,2.688-6,6
		C49.417,237.715,52.105,240.398,55.417,240.398L55.417,240.398z M55.417,240.398"/>
	<path class="st10" d="M55.417,205.815c-4.09,0-7.417-3.327-7.417-7.417s3.328-7.417,7.417-7.417h161.801c4.09,0,7.417,3.327,7.417,7.417
		s-3.327,7.417-7.417,7.417H55.417z"/>
	<path class="st10" d="M55.417,204.398h161.801c3.316,0,6-2.683,6-6c0-3.312-2.684-6-6-6H55.417c-3.312,0-6,2.688-6,6
		C49.417,201.715,52.105,204.398,55.417,204.398L55.417,204.398z M55.417,204.398"/>
	<path class="st10" d="M55.417,169.815c-4.09,0-7.417-3.328-7.417-7.417s3.328-7.417,7.417-7.417h161.801c4.09,0,7.417,3.328,7.417,7.417
		s-3.327,7.417-7.417,7.417H55.417z"/>
	<path class="st10" d="M55.417,168.398h161.801c3.316,0,6-2.683,6-6c0-3.312-2.684-6-6-6H55.417c-3.312,0-6,2.688-6,6
		C49.417,165.715,52.105,168.398,55.417,168.398L55.417,168.398z M55.417,168.398"/>
	<path class="st10" d="M55.417,133.815c-4.09,0-7.417-3.328-7.417-7.417s3.328-7.417,7.417-7.417h161.801c4.09,0,7.417,3.328,7.417,7.417
		s-3.327,7.417-7.417,7.417H55.417z"/>
	<path class="st10" d="M55.417,132.398h161.801c3.316,0,6-2.683,6-6c0-3.312-2.684-6-6-6H55.417c-3.312,0-6,2.688-6,6
		C49.417,129.715,52.105,132.398,55.417,132.398L55.417,132.398z M55.417,132.398"/>
	<path class="st10" d="M227.16,377.417c-4.09,0-7.417-3.327-7.417-7.417s3.327-7.417,7.417-7.417h62.642V37.417h-0.583
		c-4.09,0-7.417-3.328-7.417-7.417s3.327-7.417,7.417-7.417h8c4.09,0,7.417,3.328,7.417,7.417v340c0,4.09-3.327,7.417-7.417,7.417
		H227.16z"/>
	<path class="st10" d="M297.218,24h-8c-3.313,0-6,2.688-6,6s2.687,6,6,6h2v328h-64.059c-3.312,0-6,2.688-6,6s2.688,6,6,6h70.059
		c3.316,0,6-2.688,6-6V30C303.218,26.688,300.534,24,297.218,24L297.218,24z M297.218,24"/>
	<path class="st10" d="M321.218,377.417c-4.09,0-7.417-3.327-7.417-7.417s3.327-7.417,7.417-7.417h0.583V37.417h-0.583
		c-4.09,0-7.417-3.328-7.417-7.417s3.327-7.417,7.417-7.417h8c4.09,0,7.417,3.328,7.417,7.417v340c0,4.09-3.327,7.417-7.417,7.417
		H321.218z"/>
	<path class="st10" d="M329.218,24h-8c-3.313,0-6,2.688-6,6s2.687,6,6,6h2v328h-2c-3.313,0-6,2.688-6,6s2.687,6,6,6h8c3.316,0,6-2.688,6-6V30
		C335.218,26.688,332.534,24,329.218,24L329.218,24z M329.218,24"/>
</g>
</svg>
