<?xml version="1.0" encoding="utf-8"?>
<!-- Generator: Adobe Illustrator 21.1.0, SVG Export Plug-In . SVG Version: 6.00 Build 0)  -->
<svg version="1.1" id="Слой_1" xmlns="http://www.w3.org/2000/svg" xmlns:xlink="http://www.w3.org/1999/xlink" x="0px" y="0px"
	 viewBox="0 0 271.028 255.031" style="enable-background:new 0 0 271.028 255.031;" xml:space="preserve">
<style type="text/css">

	.st0{fill:#f7a521;stroke:#f7a521; clip-rule:evenodd;fill-rule:evenodd;}
</style>
<path class="st0" d="M52.754,27.293l5.074,10.66c4.231-0.094,16.614-8.496,35.84-0.809c3.817,1.524,6.973,3.739,10.36,5.887
	C103.633,44.73,90.676,66.746,88.77,69.91l-25.863,45.211c-5.157-1.199-15.598-8.547-18.399-13.074l-9.015-22.969L23.309,80.09
	c0.629,7.574,3.766,17.566,7.613,23.355c6.145,9.254,12.692,16.559,23.36,21.317c10.347,4.617,25.472,6.797,36.519,3.535
	l10.692-4.035l-5.079-11.172l-21.324,4.57c0.473-1.766,3.41-6.453,4.477-8.215l32.586-56.769c4.015,2.945,6.07,15.07,7.105,19.8
	l12.188-1.015c-0.543-6.488-3.321-14.918-5.586-19.801c-0.617-1.332-1.387-2.394-2.25-3.84
	c-6.071-10.152-13.313-15.851-23.641-21.035c-11-5.523-24.535-6.215-36.258-3.258C59.129,24.684,55.426,26.668,52.754,27.293
	L52.754,27.293z M75.332,0c24.594,0,46.434,11.789,60.18,30.019C149.262,11.789,171.102,0,195.696,0
	c41.601,0,75.332,33.726,75.332,75.332c0,38.379-28.707,70.059-65.817,74.734c3.895,9.098,6.055,19.114,6.055,29.633
	c0,41.606-33.727,75.332-75.332,75.332c-41.606,0-75.332-33.726-75.332-75.332c0-10.484,2.144-20.469,6.019-29.539
	C29.121,145.84,0,113.988,0,75.332C0,33.726,33.727,0,75.332,0L75.332,0z M75.332,9.68c26.918,0,50.051,16.203,60.18,39.386
	C145.645,25.883,168.778,9.68,195.696,9.68c36.257,0,65.652,29.394,65.652,65.652s-29.395,65.652-65.652,65.652
	c-2.371,0-4.711-0.129-7.012-0.375c8.105,10.922,12.902,24.446,12.902,39.09c0,36.262-29.394,65.652-65.652,65.652
	s-65.652-29.39-65.652-65.652c0-14.691,4.828-28.254,12.98-39.191c-2.598,0.312-5.246,0.476-7.93,0.476
	c-36.257,0-65.652-29.394-65.652-65.652S39.075,9.68,75.332,9.68L75.332,9.68z M140.582,114.105v-10.152l-10.152,9.137l-4.57-6.598
	l-4.571,1.524c1.414,6.07,5.36,8.437,10.157,11.168c1.429-2.133,3.527-3.52,5.582-5.079c-0.508,2.18-0.27,3.989,0,6.094
	c12.515-2.918,10.523-3.48,15.738-16.246l-4.566-0.508C147.809,108.129,145.344,113,140.582,114.105L140.582,114.105z
	 M120.782,102.43v1.523c6.117,0,4.57,0.25,5.25-2.875c0.832-3.84,3.05-4.707,6.937-7.785v10.152
	c1.899-0.508,8.219-7.304,10.152-9.136c0.707,0.964,0.532,0.582,1.223,1.316c2.121,2.266,1.727,2.117,3.348,5.281l4.566-1.015
	c-0.484-5.821-5.625-8.321-9.754-11.278l-5.476,5.188v-6.094c-4.825,0-8.473,1.793-11.055,4.176
	C123.817,93.871,120.782,98.519,120.782,102.43L120.782,102.43z M92.352,152.691v56.352c0,3.461,12.508,13.875,17.433,16.582
	c3.915,2.152,7.344,3.851,12.211,5.051c6.137,1.511,4.93,1.437,10.692,1.851c16.324,1.176,28.121-3.441,40.746-13.988
	c2.875-2.402,5.508-6.387,7.762-9.496c-1.481-0.395-7.649-4.91-9.645-6.09c-1.301,0.871-1.898,1.879-2.93,3.164
	c-1.554,1.942-1.296,1.82-3.23,3.367c-7.531,6.032-14.625,11.262-27.34,11.25c-10.035-0.008-20.723-3.113-27.644-9.437l-6.379-6.821
	v-46.707c0-1.484,5.789-6.668,7.554-8.187c3.071-2.633,11.403-6.113,15.286-7.051c2.351-0.57,8.75-1.687,11.453-1.324
	c10.699,1.437,14.91,2.215,23.582,8.437c4.918,3.532,5.3,4.868,9.648,10.157c1.738-0.465,8.567-5.508,10.152-6.602
	c-0.968-1.453-1.992-3.012-3.191-4.422c-0.742-0.871-1.266-1.222-2.004-2.054c-4.269-4.805-4.894-5.469-10.949-9.364
	c-3.84-2.472-6.086-3.359-10.68-5.058c-10.285-3.032-14.277-2.965-23.941-2.965c-3.469,0-9.516,2.07-12.254,2.98
	c-4.149,1.375-7.356,2.985-10.598,5.137l-8.59,6.645C97.875,145.66,92.352,151.457,92.352,152.691L92.352,152.691z M142.106,71.461
	l12.183,1.015c0.532-6.394,2.211-9.91,4.207-14.578c1.5-3.507,0.372-1.793,2.684-4.933c6.004-8.153,9.027-11.317,19.172-15.856
	c3.379-1.515,7.973-2.734,12.09-3.144c6.437-0.641,7.597-0.098,13.144,0.926c8.633,1.589,7.098,3.988,14.543,16.425l16.778,28.946
	c1.3,2.336,0.925,2.738,0.254,5.515c-0.708,2.918-1.149,3.824-2.075,6.067c-0.91,2.199-2.492,5.367-3.847,7.32
	c-0.68,0.977-1.133,1.355-1.817,2.246c-3.871,5.039-10.758,11.262-17.176,13.285l-12.773,2.965
	c-7.863,0.902-14.77-1.441-21.836-4.062l-5.07,10.664c7.234,1.988,16.554,5.582,23.863,5.582c7.738,0,15.773-1.7,21.16-4.223
	c3.805-1.785,8.817-4.652,12.141-7.148c3.492-2.622,6.738-6.539,9.414-9.879c2.047-2.563,3.609-4.86,5.176-8.024
	c2.879-5.808,5.281-13.535,5.922-19.972c0.093-0.946-24.317-42.707-25.211-44.34l-5.188-9.028
	c-3.301-3.195-19.887-5.523-24.937-5.523c-13.297,0-26.789,6.152-36.188,15.094c-2.863,2.722-6.023,7.121-8.289,10.492
	c-1.102,1.637-1.441,2.465-2.449,4.152C143.391,59.121,143.239,69.105,142.106,71.461L142.106,71.461z M142.106,71.461"/>
</svg>
