<?xml version="1.0" encoding="utf-8"?>
<!-- Generator: Adobe Illustrator 21.1.0, SVG Export Plug-In . SVG Version: 6.00 Build 0)  -->
<svg version="1.1" id="Layer_1" xmlns="http://www.w3.org/2000/svg" xmlns:xlink="http://www.w3.org/1999/xlink" x="0px" y="0px"
	 viewBox="-49 141 512 512" style="enable-background:new -49 141 512 512;" xml:space="preserve">
<style type="text/css">.st10{fill:#ffb945;stroke:#ffb945; clip-rule:evenodd;fill-rule:evenodd;}</style>
<path class="st10" d="M102.555,473.525c-4.521,0-8.199-3.678-8.199-8.199V364.572l-1.328-0.474c-7.881-2.813-13.225-9.78-13.945-18.182
	l-3.885-45.267c-0.507-5.917,1.505-11.819,5.521-16.194c4.016-4.375,9.725-6.884,15.664-6.884h15.101l-3.326-50.979
	c-1.324-20.329,5.617-39.711,19.544-54.577c13.928-14.865,32.817-23.052,53.188-23.052h59.546c20.372,0,39.261,8.187,53.188,23.052
	c13.929,14.867,20.869,34.25,19.544,54.577l-3.324,50.978h14.08c5.938,0,11.647,2.509,15.663,6.884
	c4.017,4.375,6.029,10.277,5.521,16.193l-3.883,45.309c-0.214,2.507-3.89,40.217-32.069,55.287
	c-5.688,3.041-12.001,4.936-18.766,5.632l-0.938,0.097l-0.522,0.786c-8.319,12.531-19.738,23.017-33.023,30.324
	c-13.9,7.646-29.545,11.688-45.24,11.688c-15.694,0-31.338-4.042-45.241-11.688c-26.429-14.537-44.354-41.063-47.947-70.958
	l-0.212-1.761h-6.513v99.963C110.754,469.848,107.076,473.525,102.555,473.525z M232.646,233.285
	c-16.157,15.776-47.143,35.658-103,40.781l-1.94,0.178l5.649,86.624c1.73,26.536,16.675,50.029,39.976,62.845
	c11.47,6.309,24.381,9.644,37.337,9.644c12.957,0,25.868-3.335,37.338-9.644c7.395-4.066,14.029-9.258,19.722-15.432l2.314-2.51
	l-3.321-0.791c-9.01-2.146-18.799-5.924-29.096-11.228l-0.975-0.502l-0.947,0.551c-3.572,2.079-7.645,3.178-11.775,3.178
	c-12.957,0-23.498-10.542-23.498-23.499s10.541-23.498,23.498-23.498s23.498,10.541,23.498,23.498c0,1.646-0.176,3.303-0.523,4.923
	l-0.326,1.525l1.399,0.688c11.326,5.57,21.605,8.893,30.552,9.877l1.41,0.155l0.612-1.279c4.282-8.944,6.783-18.534,7.433-28.504
	l6.609-101.349l-1.632-0.397c-18.696-4.553-32.272-8.979-40.354-13.153c-7.362-3.804-13.101-8.032-17.055-12.567l-1.391-1.595
	L232.646,233.285z M303.854,367.124c-0.661,5.49-1.808,10.944-3.41,16.212l-1.566,5.149l4.549-2.876
	c5.948-3.762,10.886-9.605,14.675-17.368l1.403-2.877h-15.438L303.854,367.124z M223.926,366.382c-3.915,0-7.1,3.185-7.1,7.1
	s3.185,7.1,7.1,7.1s7.1-3.185,7.1-7.1S227.841,366.382,223.926,366.382z M305.189,348.964h14.855c2.547,0,4.63-1.913,4.846-4.45
	l3.881-45.268c0.117-1.374-0.331-2.689-1.263-3.704c-0.931-1.015-2.203-1.574-3.583-1.574h-15.149L305.189,348.964z M96.387,293.968
	c-1.379,0-2.652,0.56-3.583,1.575c-0.931,1.014-1.379,2.329-1.262,3.703l3.881,45.27c0.216,2.536,2.3,4.448,4.846,4.448h15.876
	l-3.587-54.996H96.387z M180.894,165.362c-15.789,0-30.428,6.345-41.221,17.865c-10.795,11.522-16.174,26.543-15.146,42.297
	l2.111,32.364l2.048-0.191c75.497-7.056,99.151-42.949,101.6-47.019l0.095-0.157l16.806-44.814l-2.676-0.187
	c-1.552-0.108-2.846-0.159-4.071-0.159H180.894z M245.335,217.34l0.019,0.416c0.134,2.974,4.086,8.12,14.778,13.645
	c4.436,2.291,13.798,6.047,33.214,10.927l2.327,0.585l1.134-17.389c1.027-15.753-4.352-30.775-15.146-42.296
	c-4.798-5.12-10.384-9.244-16.603-12.258l-1.975-0.957l-17.55,46.801l-0.061,0.159l0.01-0.02L245.335,217.34z"/>
<path class="st10" d="M-35.134,651.036c-2.437,0-4.731-1.072-6.292-2.943c-1.563-1.87-2.209-4.318-1.775-6.717l9.861-54.438
	c5.454-30.103,19.766-57.429,41.389-79.026c21.37-21.345,48.302-35.571,77.886-41.142c9.12-1.717,18.446-2.588,27.718-2.588h29.7
	c2.158,0,4.271,0.875,5.798,2.401l61.516,61.517l61.517-61.516c1.526-1.526,3.64-2.401,5.798-2.401h29.699
	c9.275,0,18.601,0.87,27.719,2.588c29.584,5.57,56.516,19.797,77.886,41.142c21.623,21.597,35.936,48.924,41.389,79.026
	l9.862,54.437c0.434,2.398-0.214,4.847-1.776,6.717c-1.562,1.871-3.855,2.943-6.292,2.943H-35.134z M83.69,483.993
	C31.878,495.984-7.726,537.54-17.204,589.862l-8.112,44.775h471.968l-8.111-44.775c-9.479-52.322-49.083-93.878-100.895-105.869
	l-1.081-0.25L216.467,603.841c-0.199,0.198-0.407,0.386-0.624,0.563c-1.454,1.186-3.291,1.838-5.175,1.838s-3.722-0.652-5.174-1.837
	c-0.218-0.177-0.426-0.364-0.625-0.563L84.771,483.743L83.69,483.993z M193.089,568.87l17.578,17.577l105.668-105.669l-4.631-0.137
	c-1.342-0.04-2.683-0.061-4.022-0.061h-26.304L193.089,568.87z M113.653,480.581c-1.34,0-2.682,0.02-4.024,0.061l-4.626,0.141
	l76.49,76.491l17.578-17.577l-59.114-59.115H113.653z"/>
</svg>
