<?xml version="1.0" encoding="utf-8"?>
<!-- Generator: Adobe Illustrator 21.1.0, SVG Export Plug-In . SVG Version: 6.00 Build 0)  -->
<svg version="1.1" id="Layer_1" xmlns="http://www.w3.org/2000/svg" xmlns:xlink="http://www.w3.org/1999/xlink" x="0px" y="0px"
	 viewBox="-49 194.593 512 404.813" style="enable-background:new -49 194.593 512 404.813;" xml:space="preserve">
<style type="text/css">.st10{fill:#ffb945; clip-rule:evenodd;fill-rule:evenodd;}
</style>
<path class="st10" d="M14.177,541.429c-1.218,0-2.408-0.236-3.535-0.704c-3.466-1.436-5.706-4.788-5.706-8.54v-79.544h-25.105
	c-14.334,0-25.996-11.661-25.996-25.996V220.589c0-14.334,11.662-25.996,25.996-25.996H323.29c14.334,0,25.995,11.662,25.995,25.996
	v79.055c0,5.097-4.146,9.244-9.243,9.244s-9.243-4.147-9.243-9.244v-79.055c0-4.141-3.368-7.509-7.509-7.509H-20.169
	c-4.141,0-7.509,3.368-7.509,7.509v206.056c0,4.141,3.368,7.51,7.509,7.51h34.343c4.793,0,8.731,3.576,9.192,8.334
	c0.03,2.175,0.051,40.386,0.058,60.538l0.002,6.84l73.006-73.005c1.573-1.572,3.672-2.522,5.91-2.675
	c0.594-0.012,13.936-0.026,22.736-0.032c5.095,0,9.242,4.146,9.242,9.244c0,5.097-4.147,9.243-9.244,9.243h-18.278l-86.081,86.08
	C18.97,540.468,16.647,541.429,14.177,541.429z"/>
<path class="st10" d="M413.791,599.406c-2.471,0-4.793-0.961-6.538-2.707l-61.811-61.811H193.754c-14.334,0-25.996-11.661-25.996-25.995V368.323
	c0-14.334,11.662-25.996,25.996-25.996H434.17c6.932,0,13.456,2.708,18.372,7.624c4.916,4.916,7.623,11.441,7.622,18.372v140.569
	c0,14.334-11.661,25.996-25.996,25.996h-11.136v55.274c0,3.752-2.239,7.104-5.706,8.54
	C416.198,599.17,415.01,599.406,413.791,599.406z M193.754,360.814c-4.141,0-7.509,3.368-7.509,7.509v140.571
	c0,4.141,3.368,7.509,7.509,7.509h155.523c2.231,0,4.392,0.816,6.082,2.299c0.147,0.125,0.256,0.223,0.37,0.335l0.118,0.113
	l48.695,48.694l0.004-6.838c0.005-9.603,0.023-34.542,0.047-36.14c0.396-4.752,4.426-8.464,9.2-8.464h20.376
	c4.141,0,7.509-3.368,7.509-7.509V368.323c0-4.141-3.368-7.509-7.509-7.509H193.754z"/>
<path class="st10" d="M313.964,426.531c-6.667,0-12.078,5.411-12.078,12.078s5.411,12.078,12.078,12.078c6.668,0,12.078-5.411,12.078-12.078
	C326.042,431.942,320.631,426.531,313.964,426.531z"/>
<path class="st10" d="M41.65,294.351c-5.878,0-10.661-4.782-10.661-10.661s4.782-10.661,10.661-10.661h219.823
	c5.878,0,10.661,4.782,10.661,10.661s-4.783,10.661-10.661,10.661H41.65z"/>
<path class="st10" d="M41.65,292.933c-5.097,0-9.243-4.146-9.243-9.243s4.146-9.243,9.243-9.243h219.823c5.097,0,9.244,4.146,9.244,9.243
	s-4.147,9.243-9.244,9.243H41.65z"/>
<path class="st10" d="M41.65,374.204c-5.878,0-10.661-4.782-10.661-10.661s4.782-10.661,10.661-10.661h83.425c5.878,0,10.661,4.782,10.661,10.661
	s-4.782,10.661-10.661,10.661H41.65z"/>
<path class="st10" d="M257.837,426.531c-6.666,0-12.078,5.411-12.078,12.078s5.412,12.078,12.078,12.078c6.668,0,12.078-5.411,12.078-12.078
	C269.915,431.942,264.505,426.531,257.837,426.531z"/>
<path class="st10" d="M370.079,426.531c-6.667,0-12.078,5.411-12.078,12.078s5.411,12.078,12.078,12.078c6.668,0,12.078-5.411,12.078-12.078
	C382.157,431.942,376.746,426.531,370.079,426.531z"/>
</svg>
