<?xml version="1.0" encoding="utf-8"?>
<!-- Generator: Adobe Illustrator 21.1.0, SVG Export Plug-In . SVG Version: 6.00 Build 0)  -->
<svg version="1.1" id="Слой_1" xmlns="http://www.w3.org/2000/svg" xmlns:xlink="http://www.w3.org/1999/xlink" x="0px" y="0px"
	 viewBox="0 0 48 48" style="enable-background:new 0 0 48 48;" xml:space="preserve">
<style type="text/css">.st10{fill:#ffb945; clip-rule:evenodd;fill-rule:evenodd;}
</style>
<g>
	<path class="st10"  d="M45.297,7.199H2.703C1.211,7.199,0,8.414,0,9.902v12.196c0,1.488,1.211,2.703,2.703,2.703h0.496v18.398h41.602V24.801
		h0.496c1.492,0,2.703-1.215,2.703-2.703V9.902C48,8.414,46.789,7.199,45.297,7.199L45.297,7.199z M1.602,9.902
		c0-0.605,0.492-1.101,1.101-1.101h42.594c0.609,0,1.101,0.496,1.101,1.101v0.735c-0.007-0.004-0.015-0.004-0.023-0.008
		c-0.113-0.051-0.23-0.082-0.352-0.117c-0.054-0.016-0.109-0.039-0.168-0.051c-0.179-0.039-0.367-0.063-0.558-0.063H2.703
		c-0.191,0-0.379,0.024-0.558,0.063c-0.059,0.012-0.114,0.035-0.168,0.051c-0.122,0.035-0.239,0.066-0.352,0.117
		c-0.008,0.004-0.016,0.004-0.023,0.008V9.902z M2.703,23.199c-0.609,0-1.101-0.496-1.101-1.101v-4.496h1.597v5.597H2.703z
		 M4.801,33.68c1.562,0.32,2.801,1.554,3.117,3.121H4.801V33.68z M43.199,41.602H4.801v-0.801h38.398V41.602z M43.199,39.199H4.801
		v-0.801h38.398V39.199z M40.082,36.801c0.316-1.567,1.555-2.801,3.117-3.121v3.121H40.082z M43.199,32.062
		c-2.445,0.356-4.383,2.29-4.734,4.739H9.535c-0.351-2.449-2.289-4.383-4.734-4.739v-14.46h10.457
		c-1.074,1.664-1.656,3.601-1.656,5.597c0,5.735,4.664,10.403,10.398,10.403c5.734,0,10.398-4.668,10.398-10.403
		c0-1.996-0.582-3.933-1.656-5.597h10.457V32.062z M23.199,17.602v1.652l-0.801-0.625c-0.324-0.254-0.496-0.641-0.492-1.027H23.199z
		 M20.309,17.602c0,0.867,0.39,1.734,1.109,2.293l1.781,1.386v4.348c-0.929-0.328-1.597-1.211-1.597-2.25
		c0-0.445-0.36-0.801-0.801-0.801c-0.442,0-0.801,0.356-0.801,0.801c0,1.93,1.375,3.547,3.199,3.918V28
		c0,0.441,0.36,0.801,0.801,0.801s0.801-0.36,0.801-0.801v-0.707c0.871-0.176,1.668-0.641,2.254-1.332
		c0.488-0.582,0.715-1.32,0.636-2.086c-0.086-0.781-0.488-1.508-1.109-1.988L24.801,20.5v-2.898h5.972
		c1.309,1.578,2.028,3.554,2.028,5.597C32.801,28.051,28.852,32,24,32c-4.852,0-8.801-3.949-8.801-8.801
		c0-2.043,0.719-4.019,2.028-5.597H20.309z M24.801,22.523l0.801,0.625c0.277,0.215,0.46,0.543,0.496,0.895
		c0.035,0.328-0.059,0.641-0.266,0.883c-0.277,0.328-0.637,0.558-1.031,0.699V22.523z M46.398,22.098
		c0,0.605-0.492,1.101-1.101,1.101h-0.496v-5.597h1.597V22.098z M46.398,16H1.602v-2.895C1.602,12.496,2.094,12,2.703,12h42.594
		c0.609,0,1.101,0.496,1.101,1.105V16z M46.398,16"/>
	<path class="st10"  d="M0.801,5.602c0.441,0,0.801-0.36,0.801-0.801V1.602h44.796v3.199c0,0.441,0.36,0.801,0.801,0.801
		c0.442,0,0.801-0.36,0.801-0.801V0H0v4.801C0,5.242,0.359,5.602,0.801,5.602L0.801,5.602z M0.801,5.602"/>
	<path class="st10"  d="M47.199,26.398c-0.441,0-0.801,0.36-0.801,0.801v19.199H1.602V27.199c0-0.441-0.36-0.801-0.801-0.801
		C0.359,26.398,0,26.758,0,27.199V48h48V27.199C48,26.758,47.641,26.398,47.199,26.398L47.199,26.398z M47.199,26.398"/>
</g>
</svg>
