<?xml version="1.0" encoding="utf-8"?>
<!-- Generator: Adobe Illustrator 21.1.0, SVG Export Plug-In . SVG Version: 6.00 Build 0)  -->
<svg version="1.1" id="Слой_1" xmlns="http://www.w3.org/2000/svg" xmlns:xlink="http://www.w3.org/1999/xlink" x="0px" y="0px"
	 viewBox="0 0 48 47.531" style="enable-background:new 0 0 48 47.531;" xml:space="preserve">
<style type="text/css">.st10{fill:#ffb945; clip-rule:evenodd;fill-rule:evenodd;}
</style>
<g>
	<path class="st10" d="M48,3.199C48,1.433,46.566,0,44.801,0H3.199C1.434,0,0,1.433,0,3.199c0,1.488,1.023,2.73,2.398,3.086v38.848l2.403-2.403
		l4.801,4.801l4.796-4.801l4.801,4.801L24,42.73l4.801,4.801l4.801-4.801l4.796,4.801l4.801-4.801l2.403,2.403V6.285
		C46.977,5.929,48,4.687,48,3.199L48,3.199z M44,41.269l-0.801-0.8l-4.801,4.8l-4.796-4.8l-4.801,4.8L24,40.469l-4.801,4.8
		l-4.801-4.8l-4.796,4.8l-4.801-4.8L4,41.269V4h40V41.269z M45.602,4.586V2.398H2.398v2.188C1.922,4.308,1.602,3.793,1.602,3.199
		c0-0.883,0.714-1.598,1.597-1.598h41.602c0.883,0,1.597,0.715,1.597,1.598C46.398,3.793,46.078,4.308,45.602,4.586L45.602,4.586z
		 M45.602,4.586"/>
	<path class="st10" d="M35.199,32h-12c-0.441,0-0.801,0.359-0.801,0.801c0,0.441,0.36,0.8,0.801,0.8h12c0.442,0,0.801-0.359,0.801-0.8
		C36,32.359,35.641,32,35.199,32L35.199,32z M35.199,32"/>
	<path class="st10" d="M38.633,32.23c-0.145,0.153-0.235,0.352-0.235,0.571c0,0.207,0.09,0.414,0.235,0.566c0.152,0.145,0.359,0.234,0.566,0.234
		c0.207,0,0.418-0.089,0.571-0.234c0.14-0.152,0.23-0.359,0.23-0.566c0-0.219-0.09-0.418-0.23-0.571
		C39.465,31.937,38.938,31.937,38.633,32.23L38.633,32.23z M38.633,32.23"/>
	<path class="st10" d="M39.199,20.801h-12c-0.441,0-0.801,0.355-0.801,0.8c0,0.442,0.36,0.797,0.801,0.797h12c0.442,0,0.801-0.355,0.801-0.797
		C40,21.156,39.641,20.801,39.199,20.801L39.199,20.801z M39.199,20.801"/>
	<path class="st10" d="M39.199,26.398h-8c-0.441,0-0.801,0.36-0.801,0.801c0,0.441,0.36,0.801,0.801,0.801h8C39.641,28,40,27.64,40,27.199
		C40,26.758,39.641,26.398,39.199,26.398L39.199,26.398z M39.199,26.398"/>
	<path class="st10" d="M22.398,27.199c0,0.441,0.36,0.801,0.801,0.801h1.602c0.441,0,0.801-0.36,0.801-0.801c0-0.441-0.36-0.801-0.801-0.801
		h-1.602C22.758,26.398,22.398,26.758,22.398,27.199L22.398,27.199z M22.398,27.199"/>
	<path class="st10" d="M36,16c0-0.442-0.359-0.801-0.801-0.801h-12c-0.441,0-0.801,0.359-0.801,0.801c0,0.441,0.36,0.801,0.801,0.801h12
		C35.641,16.801,36,16.441,36,16L36,16z M36,16"/>
	<path class="st10" d="M38.633,15.433c-0.145,0.149-0.235,0.348-0.235,0.567c0,0.207,0.09,0.414,0.235,0.566c0.152,0.145,0.359,0.235,0.566,0.235
		c0.215,0,0.418-0.09,0.571-0.235C39.91,16.414,40,16.207,40,16c0-0.207-0.09-0.418-0.23-0.567
		C39.473,15.137,38.93,15.137,38.633,15.433L38.633,15.433z M38.633,15.433"/>
	<path class="st10" d="M24.566,22.168c0.145-0.153,0.235-0.352,0.235-0.567c0-0.218-0.09-0.418-0.235-0.57c-0.293-0.297-0.832-0.297-1.132,0
		c-0.145,0.152-0.235,0.352-0.235,0.57c0,0.215,0.09,0.414,0.235,0.567c0.152,0.144,0.359,0.23,0.566,0.23
		C24.207,22.398,24.414,22.312,24.566,22.168L24.566,22.168z M24.566,22.168"/>
	<path class="st10" d="M28.566,27.769c0.145-0.152,0.235-0.355,0.235-0.57c0-0.215-0.09-0.422-0.235-0.566c-0.293-0.297-0.832-0.297-1.132,0
		c-0.145,0.148-0.235,0.359-0.235,0.566c0,0.207,0.09,0.418,0.235,0.57C27.586,27.91,27.793,28,28,28
		C28.207,28,28.414,27.91,28.566,27.769L28.566,27.769z M28.566,27.769"/>
	<path class="st10" d="M13.602,16.879V16c0-0.442-0.36-0.801-0.801-0.801C12.359,15.199,12,15.558,12,16v0.883
		c-0.871,0.179-1.668,0.64-2.254,1.336c-0.488,0.578-0.715,1.316-0.637,2.082c0.082,0.781,0.485,1.507,1.11,1.992L12,23.679v4.352
		c-0.93-0.332-1.602-1.211-1.602-2.254c0-0.441-0.355-0.801-0.796-0.801c-0.442,0-0.801,0.36-0.801,0.801
		c0,1.93,1.375,3.547,3.199,3.918v0.703c0,0.442,0.359,0.801,0.801,0.801c0.441,0,0.801-0.359,0.801-0.801v-0.703
		c0.871-0.18,1.668-0.641,2.253-1.336c0.489-0.578,0.715-1.32,0.633-2.086c-0.082-0.781-0.484-1.508-1.105-1.988l-1.781-1.387
		v-4.351c0.925,0.332,1.597,1.211,1.597,2.254c0,0.441,0.36,0.8,0.801,0.8s0.801-0.359,0.801-0.8
		C16.801,18.867,15.422,17.254,13.602,16.879L13.602,16.879z M14.402,25.547c0.278,0.218,0.461,0.547,0.496,0.894
		c0.036,0.328-0.058,0.645-0.265,0.887c-0.278,0.328-0.637,0.559-1.031,0.699v-3.101L14.402,25.547z M11.199,21.031
		c-0.281-0.219-0.461-0.547-0.496-0.898c-0.035-0.325,0.059-0.641,0.262-0.883c0.281-0.328,0.64-0.559,1.035-0.699v3.101
		L11.199,21.031z M11.199,21.031"/>
	<path class="st10" d="M32.801,8.801c0,0.441-0.36,0.8-0.801,0.8s-0.801-0.359-0.801-0.8C31.199,8.359,31.559,8,32,8S32.801,8.359,32.801,8.801
		L32.801,8.801z M32.801,8.801"/>
	<path class="st10" d="M29.602,8.801c0,0.441-0.36,0.8-0.801,0.8c-0.442,0-0.801-0.359-0.801-0.8C28,8.359,28.359,8,28.801,8
		C29.242,8,29.602,8.359,29.602,8.801L29.602,8.801z M29.602,8.801"/>
	<path class="st10" d="M36,8.801c0,0.441-0.359,0.8-0.801,0.8c-0.441,0-0.801-0.359-0.801-0.8c0-0.442,0.36-0.801,0.801-0.801
		C35.641,8,36,8.359,36,8.801L36,8.801z M36,8.801"/>
	<path class="st10" d="M26.398,8.801c0,0.441-0.355,0.8-0.796,0.8c-0.446,0-0.801-0.359-0.801-0.8C24.801,8.359,25.156,8,25.602,8
		C26.043,8,26.398,8.359,26.398,8.801L26.398,8.801z M26.398,8.801"/>
	<path class="st10" d="M39.199,8.801c0,0.441-0.355,0.8-0.801,0.8c-0.441,0-0.796-0.359-0.796-0.8C37.602,8.359,37.957,8,38.398,8
		C38.844,8,39.199,8.359,39.199,8.801L39.199,8.801z M39.199,8.801"/>
	<path class="st10" d="M16.801,8.801c0,0.441-0.36,0.8-0.801,0.8s-0.801-0.359-0.801-0.8C15.199,8.359,15.559,8,16,8S16.801,8.359,16.801,8.801
		L16.801,8.801z M16.801,8.801"/>
	<path class="st10" d="M20,8.801c0,0.441-0.359,0.8-0.801,0.8c-0.441,0-0.801-0.359-0.801-0.8c0-0.442,0.36-0.801,0.801-0.801
		C19.641,8,20,8.359,20,8.801L20,8.801z M20,8.801"/>
	<path class="st10" d="M23.199,8.801c0,0.441-0.355,0.8-0.801,0.8c-0.441,0-0.796-0.359-0.796-0.8C21.602,8.359,21.957,8,22.398,8
		C22.844,8,23.199,8.359,23.199,8.801L23.199,8.801z M23.199,8.801"/>
	<path class="st10" d="M42.398,8.801c0,0.441-0.355,0.8-0.796,0.8c-0.446,0-0.801-0.359-0.801-0.8C40.801,8.359,41.156,8,41.602,8
		C42.043,8,42.398,8.359,42.398,8.801L42.398,8.801z M42.398,8.801"/>
	<path class="st10" d="M13.602,8.801c0,0.441-0.36,0.8-0.801,0.8c-0.442,0-0.801-0.359-0.801-0.8C12,8.359,12.359,8,12.801,8
		C13.242,8,13.602,8.359,13.602,8.801L13.602,8.801z M13.602,8.801"/>
	<path class="st10" d="M10.398,8.801c0,0.441-0.355,0.8-0.796,0.8c-0.446,0-0.801-0.359-0.801-0.8C8.801,8.359,9.156,8,9.602,8
		C10.043,8,10.398,8.359,10.398,8.801L10.398,8.801z M10.398,8.801"/>
	<path class="st10" d="M7.199,8.801c0,0.441-0.355,0.8-0.801,0.8c-0.441,0-0.796-0.359-0.796-0.8C5.602,8.359,5.957,8,6.398,8
		C6.844,8,7.199,8.359,7.199,8.801L7.199,8.801z M7.199,8.801"/>
</g>
</svg>
