<?xml version="1.0" encoding="utf-8"?>
<!-- Generator: Adobe Illustrator 21.1.0, SVG Export Plug-In . SVG Version: 6.00 Build 0)  -->
<svg version="1.1" id="Layer_1" xmlns="http://www.w3.org/2000/svg" xmlns:xlink="http://www.w3.org/1999/xlink" x="0px" y="0px"
	 viewBox="-49 325.91 512 304.115" style="enable-background:new -49 325.91 512 304.115;" xml:space="preserve">
<style type="text/css">.st10{fill:#ffb945; clip-rule:evenodd;fill-rule:evenodd;}
</style>
<path class="st10" d="M-25.625,630.024c-11.112,0-20.164-9.039-20.178-20.149l-0.362-263.123c-0.008-5.388,2.083-10.457,5.889-14.272
	c3.806-3.816,8.87-5.922,14.259-5.93l465.618-0.64c5.409,0,10.468,2.092,14.273,5.89c3.816,3.807,5.922,8.871,5.929,14.26
	l0.362,263.122c0.008,5.39-2.084,10.459-5.889,14.274c-3.806,3.815-8.87,5.921-14.26,5.929L-25.6,630.024H-25.625z M113.884,495.576
	c2.704,0,5.203,1.224,6.857,3.356c2.929,3.778,2.24,9.235-1.537,12.164L-11.739,612.664l437.108-0.602L295.191,511.099
	c-1.83-1.419-2.998-3.467-3.288-5.765s0.332-4.57,1.752-6.4c1.655-2.134,4.155-3.356,6.859-3.356c1.937,0,3.771,0.629,5.307,1.818
	l137.012,106.267l-0.362-252.524L211.989,511.367c-1.46,1.014-3.172,1.55-4.949,1.55c-1.771,0-3.476-0.531-4.929-1.536
	L-28.817,351.794l0.346,251.904l137.048-106.301C110.113,496.206,111.948,495.576,113.884,495.576z M-9.784,343.868l216.809,149.83
	l216.378-150.424L-9.784,343.868z"/>
</svg>
