<?xml version="1.0" encoding="utf-8"?>
<!-- Generator: Adobe Illustrator 21.1.0, SVG Export Plug-In . SVG Version: 6.00 Build 0)  -->
<svg version="1.1" id="Layer_1" xmlns="http://www.w3.org/2000/svg" xmlns:xlink="http://www.w3.org/1999/xlink" x="0px" y="0px"
	 viewBox="3.724 141 406.554 512" style="enable-background:new 3.724 141 406.554 512;" xml:space="preserve">
<style type="text/css">.st10{fill:#ffb945; clip-rule:evenodd;fill-rule:evenodd;}
</style>
<path class="st10"  d="M78.732,300.986c-3.639,0-6.6-2.96-6.6-6.6v-2.451l-1.157-0.216c-14.423-2.698-24.497-12.81-24.497-24.59
	c0-3.639,2.96-6.599,6.599-6.599s6.599,2.96,6.599,6.599c0,4.379,4.258,8.717,10.596,10.793l1.859,0.609v-30.792l-0.915-0.347
	c-11.518-4.37-24.739-11.542-24.739-28.364c0-11.779,10.073-21.891,24.497-24.59l1.157-0.216v-2.451c0-3.639,2.96-6.599,6.6-6.599
	c3.639,0,6.599,2.96,6.599,6.599v2.451l1.157,0.216c14.423,2.698,24.497,12.81,24.497,24.59c0,3.639-2.96,6.599-6.599,6.599
	s-6.599-2.96-6.599-6.599c0-4.379-4.258-8.717-10.596-10.794l-1.859-0.609v30.792l0.915,0.347
	c11.518,4.37,24.739,11.542,24.739,28.364c0,11.779-10.073,21.891-24.497,24.59l-1.157,0.216v2.451
	C85.332,298.026,82.371,300.986,78.732,300.986z M85.332,278.533l1.859-0.609c6.338-2.077,10.596-6.414,10.596-10.793
	c0-5.166-1.742-9.221-10.414-13.472l-2.042-1V278.533z M70.274,208.236c-6.338,2.077-10.596,6.415-10.596,10.794
	c0,5.166,1.742,9.221,10.414,13.472l2.042,1v-25.875L70.274,208.236z"/>
<path class="st10"  d="M138.59,215.474c-3.639,0-6.599-2.96-6.599-6.599s2.96-6.599,6.599-6.599H207c3.639,0,6.6,2.96,6.6,6.599
	s-2.961,6.599-6.6,6.599H138.59z"/>
<path class="st10"  d="M138.59,283.884c-3.639,0-6.599-2.96-6.599-6.599c0-3.639,2.96-6.6,6.599-6.6h8.551c3.639,0,6.6,2.96,6.6,6.6
	c0,3.639-2.96,6.599-6.6,6.599H138.59z"/>
<path class="st10"  d="M53.079,343.74c-3.639,0-6.599-2.96-6.599-6.599s2.96-6.599,6.599-6.599h239.433c3.639,0,6.6,2.96,6.6,6.599
	s-2.961,6.599-6.6,6.599H53.079z"/>
<path class="st10"  d="M104.386,395.047c-3.639,0-6.599-2.96-6.599-6.599s2.96-6.599,6.599-6.599h25.654c3.639,0,6.599,2.96,6.599,6.599
	s-2.96,6.599-6.599,6.599H104.386z"/>
<path class="st10"  d="M53.079,395.047c-3.639,0-6.599-2.96-6.599-6.599s2.96-6.599,6.599-6.599h17.103c3.639,0,6.599,2.96,6.599,6.599
	s-2.96,6.599-6.599,6.599H53.079z"/>
<path class="st10"  d="M104.386,429.252c-3.639,0-6.599-2.961-6.599-6.6s2.96-6.6,6.599-6.6h25.654c3.639,0,6.599,2.961,6.599,6.6
	s-2.96,6.6-6.599,6.6H104.386z"/>
<path class="st10"  d="M53.079,429.252c-3.639,0-6.599-2.961-6.599-6.6s2.96-6.6,6.599-6.6h17.103c3.639,0,6.599,2.961,6.599,6.6
	s-2.96,6.6-6.599,6.6H53.079z"/>
<path class="st10"  d="M104.386,463.457c-3.639,0-6.599-2.961-6.599-6.6s2.96-6.6,6.599-6.6h25.654c3.639,0,6.599,2.961,6.599,6.6
	s-2.96,6.6-6.599,6.6H104.386z"/>
<path class="st10"  d="M53.079,463.457c-3.639,0-6.599-2.961-6.599-6.6s2.96-6.6,6.599-6.6h17.103c3.639,0,6.599,2.961,6.599,6.6
	s-2.96,6.6-6.599,6.6H53.079z"/>
<path class="st10"  d="M104.386,497.662c-3.639,0-6.599-2.961-6.599-6.601c0-3.639,2.96-6.6,6.599-6.6h25.654c3.639,0,6.599,2.961,6.599,6.6
	c0,3.64-2.96,6.601-6.599,6.601H104.386z"/>
<path class="st10"  d="M53.079,497.662c-3.639,0-6.599-2.961-6.599-6.601c0-3.639,2.96-6.6,6.599-6.6h17.103c3.639,0,6.599,2.961,6.599,6.6
	c0,3.64-2.96,6.601-6.599,6.601H53.079z"/>
<path class="st10"  d="M104.386,531.866c-3.639,0-6.599-2.961-6.599-6.6s2.96-6.6,6.599-6.6h25.654c3.639,0,6.599,2.961,6.599,6.6
	s-2.96,6.6-6.599,6.6H104.386z"/>
<path class="st10"  d="M53.079,531.866c-3.639,0-6.599-2.961-6.599-6.6s2.96-6.6,6.599-6.6h17.103c3.639,0,6.599,2.961,6.599,6.6
	s-2.96,6.6-6.599,6.6H53.079z"/>
<path class="st10"  d="M224.103,283.884c-3.639,0-6.6-2.96-6.6-6.599c0-3.639,2.961-6.6,6.6-6.6h8.551c3.639,0,6.6,2.96,6.6,6.6
	c0,3.639-2.961,6.599-6.6,6.599H224.103z"/>
<path class="st10"  d="M266.858,283.884c-3.639,0-6.6-2.96-6.6-6.599c0-3.639,2.961-6.6,6.6-6.6h8.551c3.639,0,6.6,2.96,6.6,6.6
	c0,3.639-2.961,6.599-6.6,6.599H266.858z"/>
<path class="st10"  d="M181.347,283.884c-3.639,0-6.6-2.96-6.6-6.599c0-3.639,2.96-6.6,6.6-6.6h8.551c3.639,0,6.6,2.96,6.6,6.6
	c0,3.639-2.96,6.599-6.6,6.599H181.347z"/>
<path class="st10"  d="M138.59,249.679c-3.639,0-6.599-2.96-6.599-6.6c0-3.639,2.96-6.599,6.599-6.599h85.512c3.639,0,6.6,2.96,6.6,6.599
	c0,3.639-2.961,6.6-6.6,6.6H138.59z"/>
<path class="st10"  d="M189.897,651.583c-17.784,0-32.252-14.469-32.252-32.253v-19.054H27.425c-13.069,0-23.702-10.633-23.702-23.702V166.119
	c0-13.069,10.632-23.702,23.702-23.702h222.331c1.738,0,3.438,0.704,4.665,1.932l85.514,85.513c1.246,1.246,1.933,2.903,1.933,4.667
	v130.217h36.156c17.785,0,32.254,14.469,32.254,32.253V619.33c0,17.784-14.469,32.253-32.254,32.253H189.897z M189.897,377.945
	c-10.506,0-19.054,8.548-19.054,19.054V619.33c0,10.507,8.548,19.054,19.054,19.054h188.126c10.507,0,19.054-8.547,19.054-19.054
	V396.999c0-10.506-8.547-19.054-19.054-19.054H189.897z M27.425,155.616c-5.792,0-10.503,4.711-10.503,10.503v410.455
	c0,5.791,4.712,10.502,10.503,10.502h130.22V396.999c0-17.784,14.468-32.253,32.252-32.253h138.771V241.128h-53.259
	c-17.784,0-32.253-14.469-32.253-32.253v-53.259H27.425z M256.355,208.875c0,10.506,8.547,19.054,19.054,19.054h43.927
	l-62.98-62.981V208.875z"/>
<path class="st10"  d="M207,463.457c-8.354,0-15.15-6.797-15.15-15.151v-34.204c0-8.354,6.796-15.151,15.15-15.151h153.921
	c8.354,0,15.151,6.797,15.151,15.151v34.204c0,8.354-6.797,15.151-15.151,15.151H207z M207,412.149
	c-1.076,0-1.952,0.876-1.952,1.952v34.204c0,1.076,0.876,1.952,1.952,1.952h153.921c1.076,0,1.952-0.876,1.952-1.952v-34.204
	c0-1.076-0.876-1.952-1.952-1.952H207z"/>
<path class="st10"  d="M207,540.418c-8.354,0-15.15-6.797-15.15-15.151v-17.103c0-8.354,6.796-15.15,15.15-15.15h17.103
	c8.354,0,15.15,6.797,15.15,15.15v17.103c0,8.354-6.797,15.151-15.15,15.151H207z M207,506.213c-1.076,0-1.952,0.875-1.952,1.951
	v17.103c0,1.076,0.876,1.951,1.952,1.951h17.103c1.076,0,1.951-0.875,1.951-1.951v-17.103c0-1.076-0.875-1.951-1.951-1.951H207z"/>
<path class="st10"  d="M343.819,540.418c-8.354,0-15.151-6.797-15.151-15.151v-17.103c0-8.354,6.797-15.15,15.151-15.15h17.102
	c8.354,0,15.151,6.797,15.151,15.15v17.103c0,8.354-6.797,15.151-15.151,15.151H343.819z M343.819,506.213
	c-1.076,0-1.952,0.875-1.952,1.951v17.103c0,1.076,0.876,1.951,1.952,1.951h17.102c1.076,0,1.952-0.875,1.952-1.951v-17.103
	c0-1.076-0.876-1.951-1.952-1.951H343.819z"/>
<path class="st10"  d="M275.409,540.418c-8.354,0-15.15-6.797-15.15-15.151v-17.103c0-8.354,6.797-15.15,15.15-15.15h17.103
	c8.354,0,15.151,6.797,15.151,15.15v17.103c0,8.354-6.797,15.151-15.151,15.151H275.409z M275.409,506.213
	c-1.076,0-1.951,0.875-1.951,1.951v17.103c0,1.076,0.875,1.951,1.951,1.951h17.103c1.076,0,1.951-0.875,1.951-1.951v-17.103
	c0-1.076-0.875-1.951-1.951-1.951H275.409z"/>
<path class="st10"  d="M207,608.827c-8.354,0-15.15-6.797-15.15-15.151v-17.102c0-8.354,6.796-15.151,15.15-15.151h17.103
	c8.354,0,15.15,6.797,15.15,15.151v17.102c0,8.354-6.797,15.151-15.15,15.151H207z M207,574.622c-1.076,0-1.952,0.876-1.952,1.952
	v17.102c0,1.076,0.876,1.952,1.952,1.952h17.103c1.076,0,1.951-0.876,1.951-1.952v-17.102c0-1.076-0.875-1.952-1.951-1.952H207z"/>
<path class="st10"  d="M343.819,608.827c-8.354,0-15.151-6.797-15.151-15.151v-17.102c0-8.354,6.797-15.151,15.151-15.151h17.102
	c8.354,0,15.151,6.797,15.151,15.151v17.102c0,8.354-6.797,15.151-15.151,15.151H343.819z M343.819,574.622
	c-1.076,0-1.952,0.876-1.952,1.952v17.102c0,1.076,0.876,1.952,1.952,1.952h17.102c1.076,0,1.952-0.876,1.952-1.952v-17.102
	c0-1.076-0.876-1.952-1.952-1.952H343.819z"/>
<path class="st10"  d="M275.409,608.827c-8.354,0-15.15-6.797-15.15-15.151v-17.102c0-8.354,6.797-15.151,15.15-15.151h17.103
	c8.354,0,15.151,6.797,15.151,15.151v17.102c0,8.354-6.797,15.151-15.151,15.151H275.409z M275.409,574.622
	c-1.076,0-1.951,0.876-1.951,1.952v17.102c0,1.076,0.875,1.952,1.951,1.952h17.103c1.076,0,1.951-0.876,1.951-1.952v-17.102
	c0-1.076-0.875-1.952-1.951-1.952H275.409z"/>
</svg>
