<?xml version="1.0" encoding="utf-8"?>
<!-- Generator: Adobe Illustrator 21.1.0, SVG Export Plug-In . SVG Version: 6.00 Build 0)  -->
<svg version="1.1" id="Layer_1" xmlns="http://www.w3.org/2000/svg" xmlns:xlink="http://www.w3.org/1999/xlink" x="0px" y="0px"
	 viewBox="-49 141 512 512" style="enable-background:new -49 141 512 512;" xml:space="preserve">
<style type="text/css">
	.st10{fill:#ffb945;stroke:#ffb945; clip-rule:evenodd;fill-rule:evenodd;}
</style>
<path class="st10" d="M305.934,562.292c-3.661,0-6.973-2.309-8.24-5.744c-0.813-2.201-0.719-4.587,0.263-6.718
	c0.982-2.13,2.735-3.751,4.936-4.563l106.071-39.139c0.982-0.362,2.005-0.547,3.041-0.547c3.66,0,6.972,2.309,8.239,5.745
	c1.677,4.543-0.655,9.604-5.198,11.279l-106.072,39.139C307.99,562.108,306.968,562.292,305.934,562.292z"/>
<path class="st10" d="M272.277,574.711c-3.662,0-6.974-2.31-8.24-5.746c-0.813-2.201-0.719-4.586,0.264-6.716c0.981-2.13,2.734-3.751,4.936-4.563
	l4.49-1.657c0.982-0.362,2.005-0.546,3.04-0.546c3.662,0,6.974,2.309,8.24,5.745c1.676,4.543-0.656,9.603-5.199,11.278l-4.491,1.657
	C274.334,574.527,273.312,574.711,272.277,574.711z"/>
<path class="st10" d="M328.18,512.521c-3.66,0-6.972-2.309-8.241-5.745c-1.675-4.543,0.657-9.603,5.199-11.278l83.825-30.931
	c0.981-0.361,2.004-0.545,3.038-0.545c3.662,0,6.975,2.309,8.242,5.744c0.813,2.2,0.719,4.586-0.263,6.716
	c-0.982,2.131-2.735,3.751-4.936,4.563l-83.825,30.931C330.238,512.338,329.216,512.521,328.18,512.521z"/>
<path class="st10" d="M328.18,471.393c-3.66,0-6.972-2.309-8.241-5.745c-1.675-4.543,0.657-9.604,5.199-11.279l83.825-30.93
	c0.981-0.362,2.004-0.546,3.039-0.546c3.661,0,6.974,2.309,8.241,5.745c0.813,2.2,0.719,4.586-0.263,6.716
	c-0.982,2.13-2.735,3.751-4.936,4.563l-83.825,30.931C330.236,471.209,329.214,471.393,328.18,471.393z"/>
<path class="st10" d="M206.999,642.381c-1.042,0-2.064-0.183-3.039-0.543l-245.801-90.696c-3.434-1.268-5.742-4.579-5.742-8.239V251.096
	c0-2.87,1.406-5.563,3.761-7.204c0.597-0.417,1.264-0.762,1.98-1.027l0.666-0.246l0.002-0.008l245.134-90.45
	c0.976-0.36,1.999-0.542,3.04-0.542c1.042,0,2.064,0.183,3.041,0.542l245.801,90.696c3.434,1.268,5.741,4.579,5.741,8.239v291.806
	c0,3.66-2.308,6.972-5.742,8.239l-244.754,90.311l-1.05,0.38C209.051,642.196,208.029,642.381,206.999,642.381z M215.782,347.914
	v273.083l228.236-84.215V263.697L215.782,347.914z M-30.019,536.782l228.237,84.215V347.914l-51.791-19.109V446.89
	c0,2.87-1.406,5.563-3.76,7.204c-1.481,1.032-3.218,1.578-5.022,1.578c-1.042,0-2.064-0.183-3.039-0.543L24.454,414.483
	c-3.434-1.267-5.741-4.578-5.741-8.239V281.679l-48.731-17.982V536.782z M36.276,400.123l92.588,34.165V322.323l-92.588-34.164
	V400.123z M137.646,226.05c1.041,0,2.063,0.183,3.04,0.542l110.152,40.644c3.434,1.267,5.741,4.578,5.741,8.239
	c0,3.661-2.308,6.972-5.742,8.239l-87.933,32.446L207,332.432l220.432-81.335L207,169.762l-220.432,81.334l40.814,15.061
	l107.222-39.564C135.582,226.232,136.605,226.05,137.646,226.05z M52.863,275.477l84.782,31.283l84.782-31.283l-84.782-31.283
	L52.863,275.477z"/>
</svg>
