<?xml version="1.0" encoding="utf-8"?>
<!-- Generator: Adobe Illustrator 21.1.0, SVG Export Plug-In . SVG Version: 6.00 Build 0)  -->
<svg version="1.1" id="Layer_1" xmlns="http://www.w3.org/2000/svg" xmlns:xlink="http://www.w3.org/1999/xlink" x="0px" y="0px"
	 viewBox="9.182 199.182 395.636 395.636" style="enable-background:new 9.182 199.182 395.636 395.636;" xml:space="preserve">
<style type="text/css">
	.st0{fill:none;}
	.st1{fill:#ffb945;;}
</style>
<rect x="15.388" y="205.388" class="st0" width="284.38" height="383.289"/>
<g>
	<polygon class="st0" points="162.459,456.345 127.873,478.002 99.428,551.57 172.996,523.125 194.653,487.893 	"/>

		<rect x="159.442" y="391.652" transform="matrix(0.7071 -0.7071 0.7071 0.7071 -234.5919 284.3111)" class="st0" width="132.912" height="67.361"/>
	<path class="st0" d="M301.578,406.891l-57.471-57.471l85.333-85.333c16.097-16.097,41.438-16.097,57.471,0l0,0
		c16.097,16.097,16.097,41.438,0,57.471L301.578,406.891z"/>
</g>
<g>
	<path class="st1" d="M391.242,259.756c-8.663-8.663-20.428-13.576-33.358-13.576c-12.347,0-24.113,4.978-33.358,13.576
		l-18.618,19.2v-79.774H9.182v395.636h296.727V411.222l85.333-85.333c8.663-8.663,13.576-20.428,13.576-33.358
		C404.818,280.184,399.905,268.418,391.242,259.756z M293.562,582.471H21.529V211.529h272.032v79.774l-58.117,58.117l4.913,4.913
		l-94.578,93.996l6.788,6.788l-28.444,17.325c-1.228,0.646-1.875,1.875-2.457,3.103l-27.798,72.921
		c-0.646,2.457,0,4.331,1.228,6.788c1.228,1.875,5.56,2.457,6.788,1.228l72.921-27.798c1.228-0.646,2.457-1.228,3.103-2.457
		l17.325-28.444l6.788,6.788l91.475-90.893v168.792H293.562z M163.752,448.329l85.333-85.333l38.917,38.917l-85.333,85.333
		L163.752,448.329z M186.572,489.121l-17.907,29.026l-58.117,22.238l22.238-58.117l29.026-17.907l22.885,22.885L186.572,489.121z
		 M382.58,317.226l-81.002,81.002L252.77,349.42l80.937-81.002c6.788-7.434,30.319-18.554,48.808,0
		C389.368,275.206,400.487,297.444,382.58,317.226z"/>

		<rect x="246.831" y="393.471" transform="matrix(0.7069 -0.7073 0.7073 0.7069 -207.6484 295.7249)" class="st1" width="12.347" height="9.891"/>

		<rect x="227.301" y="412.345" transform="matrix(0.7069 -0.7073 0.7073 0.7069 -226.722 287.4434)" class="st1" width="12.347" height="9.891"/>

		<rect x="208.191" y="431.669" transform="matrix(0.7073 -0.7069 0.7069 0.7073 -245.9025 279.3296)" class="st1" width="12.347" height="9.891"/>
	<rect x="70.984" y="260.402" class="st1" width="173.705" height="12.347"/>
	<rect x="70.984" y="301.776" class="st1" width="173.705" height="12.347"/>
	<rect x="70.984" y="342.632" class="st1" width="64.259" height="12.347"/>
</g>
</svg>
