<?xml version="1.0" encoding="utf-8"?>
<!-- Generator: Adobe Illustrator 21.1.0, SVG Export Plug-In . SVG Version: 6.00 Build 0)  -->
<svg version="1.1" id="Layer_1" xmlns="http://www.w3.org/2000/svg" xmlns:xlink="http://www.w3.org/1999/xlink" x="0px" y="0px"
	 viewBox="70.189 259.389 280.894 275.333" style="enable-background:new 70.189 259.389 280.894 275.333;" xml:space="preserve">
<style type="text/css">.st10{fill:#ffb945; clip-rule:evenodd;fill-rule:evenodd;}
</style>
<path class="st10" d="M80.616,534.594c-2.758,0-5.352-1.074-7.303-3.025c-1.955-1.956-3.032-4.55-3.032-7.305c0-2.754,1.077-5.348,3.032-7.303
	l254.625-254.64c1.954-1.955,4.547-3.032,7.302-3.032s5.35,1.077,7.305,3.032c4.026,4.027,4.026,10.58-0.001,14.606L87.919,531.568
	C85.959,533.518,83.364,534.594,80.616,534.594z"/>
<path class="st10" d="M127.864,374.771c-31.802,0-57.675-25.88-57.675-57.691s25.873-57.691,57.675-57.691c31.811,0,57.691,25.88,57.691,57.691
	S159.675,374.771,127.864,374.771z M127.864,280.051c-20.409,0-37.013,16.611-37.013,37.029s16.604,37.029,37.013,37.029
	c20.418,0,37.029-16.611,37.029-37.029S148.282,280.051,127.864,280.051z"/>
<path class="st10" d="M287.832,534.722c-31.793,0-57.658-25.879-57.658-57.689c0-31.802,25.865-57.675,57.658-57.675
	c31.802,0,57.674,25.873,57.674,57.675C345.506,508.843,319.634,534.722,287.832,534.722z M287.832,440.018
	c-20.4,0-36.998,16.604-36.998,37.015c0,20.418,16.598,37.029,36.998,37.029c20.409,0,37.014-16.611,37.014-37.029
	C324.846,456.622,308.241,440.018,287.832,440.018z"/>
</svg>
