<?xml version="1.0" encoding="utf-8"?>

<svg version="1.1" id="icon-phone" xmlns="http://www.w3.org/2000/svg" xmlns:xlink="http://www.w3.org/1999/xlink" x="0px" y="0px" viewBox="0 0 378.494 379.043"
	 style="enable-background:new 0 0 378.494 379.043;" xml:space="preserve">
<g>
	<path d="M299.29,234.805c-7.762-8.078-17.121-12.398-27.039-12.398c-9.84,0-19.281,4.238-27.359,12.32l-25.282,25.199
		c-2.082-1.121-4.16-2.16-6.16-3.199c-2.879-1.441-5.601-2.801-7.922-4.242c-23.679-15.039-45.199-34.641-65.839-60
		c-10-12.641-16.719-23.282-21.598-34.078c6.558-6,12.64-12.243,18.558-18.243c2.243-2.238,4.481-4.558,6.723-6.8
		c16.797-16.797,16.797-38.559,0-55.36l-21.844-21.84c-2.476-2.48-5.039-5.039-7.437-7.597
		c-4.801-4.961-9.84-10.082-15.039-14.883c-7.762-7.68-17.043-11.758-26.801-11.758c-9.762,0-19.199,4.078-27.199,11.758
		l-0.16,0.16L17.689,61.286C7.45,71.524,1.61,84.004,0.329,98.485c-1.918,23.359,4.961,45.121,10.242,59.359
		c12.957,34.961,32.321,67.359,61.2,102.082c35.039,41.84,77.199,74.879,125.359,98.16c18.398,8.719,42.961,19.039,70.398,20.797
		c1.684,0.082,3.442,0.16,5.043,0.16c18.481,0,34-6.636,46.16-19.84c0.079-0.16,0.239-0.238,0.321-0.398
		c4.16-5.039,8.957-9.602,14-14.48c3.437-3.282,6.957-6.719,10.398-10.321c7.922-8.238,12.078-17.84,12.078-27.679
		c0-9.918-4.238-19.442-12.316-27.442L299.29,234.805z M327.931,319.043C327.849,319.043,327.849,319.125,327.931,319.043
		c-3.121,3.364-6.321,6.403-9.762,9.762c-5.199,4.961-10.48,10.16-15.438,16c-8.082,8.641-17.601,12.719-30.082,12.719
		c-1.199,0-2.48,0-3.679-0.078c-23.758-1.52-45.84-10.801-62.399-18.719c-45.281-21.922-85.043-53.043-118.082-92.481
		c-27.277-32.882-45.519-63.281-57.597-95.921c-7.442-19.918-10.161-35.442-8.961-50.079c0.8-9.363,4.398-17.121,11.039-23.761
		l27.281-27.282c3.918-3.679,8.078-5.679,12.16-5.679c5.039,0,9.117,3.043,11.68,5.601l0.238,0.239
		c4.883,4.562,9.52,9.281,14.402,14.32c2.481,2.562,5.04,5.121,7.598,7.762l21.84,21.84c8.48,8.48,8.48,16.32,0,24.8
		c-2.32,2.321-4.559,4.641-6.879,6.879c-6.719,6.879-13.121,13.281-20.078,19.52c-0.16,0.16-0.32,0.242-0.402,0.398
		c-6.879,6.883-5.598,13.602-4.161,18.16l0.243,0.723c5.679,13.758,13.679,26.719,25.839,42.16l0.079,0.078
		c22.082,27.199,45.359,48.403,71.039,64.641c3.281,2.082,6.64,3.762,9.84,5.359c2.882,1.442,5.601,2.801,7.921,4.242
		c0.321,0.161,0.641,0.399,0.961,0.559c2.719,1.359,5.278,2,7.918,2c6.641,0,10.801-4.16,12.16-5.519l27.36-27.36
		c2.722-2.723,7.043-6,12.082-6c4.961,0,9.039,3.117,11.519,5.84l44.239,44.238C336.091,302.164,336.091,310.567,327.931,319.043
		L327.931,319.043z M327.931,319.043"/>
	<path d="M204.571,90.164c20.957,3.52,40,13.442,55.2,28.641c15.199,15.199,25.039,34.238,28.64,55.199
		c0.879,5.282,5.438,8.961,10.641,8.961c0.637,0,1.199-0.082,1.84-0.16c5.918-0.961,9.839-6.559,8.879-12.48
		c-4.321-25.36-16.321-48.481-34.641-66.801c-18.32-18.321-41.441-30.321-66.801-34.641c-5.918-0.957-11.437,2.961-12.48,8.801
		C194.81,83.524,198.649,89.203,204.571,90.164L204.571,90.164z M204.571,90.164"/>
	<path d="M378.329,167.203c-7.117-41.757-26.801-79.757-57.039-110c-30.238-30.238-68.238-49.917-110-57.039
		c-5.84-1.039-11.359,2.961-12.398,8.801c-0.961,5.918,2.957,11.442,8.879,12.481c37.281,6.32,71.281,24,98.32,50.961
		c27.039,27.039,44.64,61.039,50.961,98.32c0.879,5.277,5.437,8.957,10.637,8.957c0.64,0,1.203-0.078,1.839-0.16
		C375.372,178.645,379.372,173.043,378.329,167.203L378.329,167.203z M378.329,167.203"/>
</g>
</svg>
