<?xml version="1.0" encoding="utf-8"?>
<!-- Generator: Adobe Illustrator 21.1.0, SVG Export Plug-In . SVG Version: 6.00 Build 0)  -->
<svg version="1.1" id="Layer_1" xmlns="http://www.w3.org/2000/svg" xmlns:xlink="http://www.w3.org/1999/xlink" x="0px" y="0px"
	 viewBox="-49 141 512 512" style="enable-background:new -49 141 512 512;" xml:space="preserve">
<style type="text/css">.st10{fill:#ffb945; clip-rule:evenodd;fill-rule:evenodd;}
</style>
<g>
	<path class="st10" d="M-27.407,651C-38.21,651-47,642.21-47,631.406v-3.319c0-8.332,5.31-15.769,13.212-18.506l1.345-0.467V455.46
		c0-2.052,1.022-3.95,2.735-5.08l77.392-51.021c0.998-0.658,2.156-1.006,3.349-1.006c1.003,0,2,0.252,2.884,0.728
		c1.974,1.064,3.2,3.118,3.2,5.358v39.724l67.96-44.803c0.998-0.658,2.156-1.006,3.35-1.006c1.002,0,2,0.252,2.883,0.729
		c1.974,1.063,3.2,3.117,3.2,5.357v39.725l67.96-44.804c0.998-0.658,2.156-1.005,3.35-1.005c1.003,0,2,0.251,2.882,0.727
		c1.975,1.064,3.201,3.118,3.201,5.358v20.032h16.097l9.903-208.981l-0.004-0.093c-0.013-0.226-0.013-0.435-0.003-0.643
		l1.457-30.337c0.003-0.065,0.012-0.136,0.021-0.208l0.016-0.137l1.375-28.905h-4.292c-3.354,0-6.084-2.729-6.084-6.084
		c0-3.354,2.729-6.084,6.084-6.084h77.654c3.354,0,6.084,2.729,6.084,6.084c0,3.355-2.729,6.084-6.084,6.084h-4.291l1.365,28.781
		l0.024,0.258c0.012,0.1,0.019,0.153,0.021,0.208l1.457,30.342c0.01,0.208,0.01,0.416-0.002,0.622l-0.002,0.157l9.901,208.937
		h14.457l9.904-208.981l-0.004-0.093c-0.013-0.223-0.014-0.43-0.003-0.636l1.457-30.344c0.002-0.058,0.009-0.111,0.016-0.166
		l0.021-0.188l1.373-28.897h-4.291c-3.354,0-6.084-2.729-6.084-6.084c0-3.354,2.729-6.084,6.084-6.084h77.653
		c3.355,0,6.085,2.729,6.085,6.084c0,3.355-2.729,6.084-6.085,6.084h-4.291l1.365,28.78c0,0,0.042,0.401,0.045,0.458l1.458,30.35
		c0.009,0.204,0.01,0.413-0.002,0.62l-0.003,0.15l3.013,64.205c0.036,0.323,0.052,0.503,0.061,0.687l6.828,144.055h9.747
		c10.804,0,19.594,8.79,19.594,19.594v3.32c0,8.669-5.831,16.406-14.18,18.814l-1.445,0.418v142.233l1.445,0.418
		c8.349,2.409,14.18,10.146,14.18,18.815v3.319C461,642.21,452.21,651,441.406,651H-27.407z M-27.407,620.661
		c-4.094,0-7.425,3.331-7.425,7.426v3.319c0,4.095,3.331,7.426,7.425,7.426h468.813c4.095,0,7.426-3.331,7.426-7.426l0.001-3.319
		c0-4.095-3.331-7.426-7.426-7.426H-27.407z M211.902,608.492h221.304V466.98H211.902V608.492z M134.509,458.74v149.752h65.226
		V415.74L134.509,458.74z M57.116,458.74v149.752h65.226V415.74L57.116,458.74z M-20.276,458.74v149.752h65.224V415.74
		L-20.276,458.74z M211.903,454.813h229.503c4.094,0,7.425-3.331,7.425-7.425v-3.32c0-4.094-3.331-7.425-7.425-7.425H211.903
		V454.813z M349.239,424.474h70.238l-6.202-130.85c-0.042-0.353-0.06-0.547-0.069-0.745l-3.365-71.746h-50.965L349.239,424.474z
		 M240.182,424.474h70.239l-9.638-203.34h-50.964L240.182,424.474z M359.453,208.965h49.811l-0.861-18.17h-48.088L359.453,208.965z
		 M250.396,208.965h49.812l-0.861-18.17h-48.089L250.396,208.965z M360.891,178.626h46.936l-1.112-23.458h-44.712L360.891,178.626z
		 M251.834,178.626h46.935l-1.112-23.458h-44.71L251.834,178.626z"/>
	<path  class="st10" d="M237.035,589.936c-3.354,0-6.084-2.729-6.084-6.085v-92.229c0-3.354,2.729-6.084,6.084-6.084h171.89
		c3.355,0,6.085,2.729,6.085,6.084v92.229c0,3.355-2.729,6.085-6.085,6.085H237.035z M357.714,577.768h45.128v-33.946h-45.128
		V577.768z M300.416,577.767h45.129V543.82h-45.129V577.767z M243.12,577.767h45.128V543.82H243.12V577.767z M357.714,531.652
		h45.128v-33.946h-45.128V531.652z M300.417,531.652h45.129v-33.946h-45.129V531.652z M243.12,531.652h45.128v-33.946H243.12
		V531.652z"/>
	<path  class="st10" d="M154.545,497.706c-3.355,0-6.084-2.729-6.084-6.084s2.729-6.084,6.084-6.084h25.151c3.355,0,6.084,2.729,6.084,6.084
		s-2.729,6.084-6.084,6.084H154.545z"/>
	<path  class="st10" d="M154.545,523.997c-3.355,0-6.084-2.729-6.084-6.084s2.729-6.084,6.084-6.084h25.151c3.355,0,6.084,2.729,6.084,6.084
		s-2.729,6.084-6.084,6.084H154.545z"/>
	<path  class="st10" d="M77.154,497.706c-3.355,0-6.084-2.729-6.084-6.084s2.729-6.084,6.084-6.084h25.149c3.354,0,6.084,2.729,6.084,6.084
		s-2.729,6.084-6.084,6.084H77.154z"/>
	<path  class="st10" d="M77.154,523.997c-3.355,0-6.084-2.729-6.084-6.084s2.729-6.084,6.084-6.084h25.149c3.354,0,6.084,2.729,6.084,6.084
		s-2.729,6.084-6.084,6.084H77.154z"/>
	<path  class="st10" d="M-0.24,497.706c-3.355,0-6.084-2.729-6.084-6.084s2.729-6.084,6.084-6.084h25.151c3.355,0,6.084,2.729,6.084,6.084
		s-2.729,6.084-6.084,6.084H-0.24z"/>
	<path  class="st10" d="M-0.24,523.997c-3.355,0-6.084-2.729-6.084-6.084s2.729-6.084,6.084-6.084h25.151c3.355,0,6.084,2.729,6.084,6.084
		s-2.729,6.084-6.084,6.084H-0.24z"/>
</g>
</svg>
