<?xml version="1.0" encoding="utf-8"?>
<!-- Generator: Adobe Illustrator 21.1.0, SVG Export Plug-In . SVG Version: 6.00 Build 0)  -->
<svg version="1.1" id="Слой_1" xmlns="http://www.w3.org/2000/svg" xmlns:xlink="http://www.w3.org/1999/xlink" x="0px" y="0px"
	 viewBox="0 0 411.11 272.887" style="enable-background:new 0 0 411.11 272.887;" xml:space="preserve">
<style type="text/css">
	.st0{fill:#ffc748;}
	.st1{fill:none;}
</style>
<g>
	<rect x="198.899" y="18.203" class="st0" width="12.801" height="12.488"/>
	<rect x="199.898" y="19.203" class="st0" width="10.801" height="10.488"/>
	<rect x="173.297" y="18.203" class="st0" width="12.801" height="12.488"/>
	<rect x="174.296" y="19.203" class="st0" width="10.801" height="10.488"/>
	<rect x="147.7" y="18.203" class="st0" width="12.797" height="12.488"/>
	<rect x="148.7" y="19.203" class="st0" width="10.797" height="10.488"/>
</g>
<g>
	<rect x="17.047" y="10.488" class="st1" width="97.055" height="27.91"/>
	<polygon class="st1" points="212.696,48.891 212.867,70.402 111.352,70.402 111.352,48.891 	"/>
	<rect x="111.352" y="10.488" class="st1" width="114.305" height="27.91"/>
	<rect x="29.848" y="48.891" class="st1" width="84.254" height="21.511"/>
	<rect x="204.145" y="253.687" class="st1" width="27.914" height="8.711"/>
	<rect x="140.145" y="208.887" class="st1" width="40.711" height="8.715"/>
	<rect x="10.645" y="253.687" class="st1" width="27.914" height="8.711"/>
	<rect x="61.844" y="208.887" class="st1" width="40.715" height="8.715"/>
</g>
<g>
	<path  class="st0"  d="M340.673,56.422c-9.983,0-18.105-8.122-18.105-18.105c0-9.984,8.122-18.106,18.105-18.106s18.105,8.122,18.105,18.106
		C358.778,48.3,350.656,56.422,340.673,56.422z M340.673,30.809c-4.138,0-7.504,3.368-7.504,7.508s3.366,7.507,7.504,7.507
		c4.14,0,7.507-3.368,7.507-7.507S344.813,30.809,340.673,30.809z"/>
	<path  class="st0"  d="M340.673,107.649c-9.983,0-18.105-8.122-18.105-18.106c0-9.985,8.122-18.109,18.105-18.109s18.105,8.124,18.105,18.109
		C358.778,99.527,350.656,107.649,340.673,107.649z M340.673,82.035c-4.138,0-7.504,3.368-7.504,7.508
		c0,4.138,3.366,7.504,7.504,7.504c4.14,0,7.507-3.366,7.507-7.504C348.18,85.403,344.813,82.035,340.673,82.035z"/>
	<path  class="st0"  d="M340.673,158.875c-9.983,0-18.105-8.122-18.105-18.105c0-9.985,8.122-18.109,18.105-18.109s18.105,8.124,18.105,18.109
		C358.778,150.753,350.656,158.875,340.673,158.875z M340.673,133.262c-4.138,0-7.504,3.366-7.504,7.504
		c0,4.141,3.366,7.509,7.504,7.509c4.14,0,7.507-3.368,7.507-7.509C348.18,136.628,344.813,133.262,340.673,133.262z"/>
	<path  class="st0"  d="M335.372,271.887v-86.679l0.004-1v-6.122H303.36V1h74.629v177.082h-32.017l0.002,93.805H335.372z M313.958,167.485h53.429
		V11.602h-53.429V167.485z"/>
	<polygon  class="st0"  points="386.598,43.719 386.598,20.211 410.11,20.211 410.11,30.809 397.2,30.809 397.2,43.719 	"/>
	<polygon  class="st0"  points="386.598,94.946 386.598,71.434 410.11,71.434 410.11,82.035 397.2,82.035 397.2,94.946 	"/>
	<polygon  class="st0"  points="385.598,147.172 398.2,147.172 398.2,134.262 411.11,134.262 411.11,121.66 385.598,121.66 	"/>
	<polygon  class="st0"  points="386.598,146.172 386.598,122.66 410.11,122.66 410.11,133.262 397.2,133.262 397.2,146.172 	"/>
	<polygon  class="st0"  points="284.149,43.719 284.149,30.809 271.239,30.809 271.239,20.211 294.747,20.211 294.747,43.719 	"/>
	<polygon  class="st0"  points="284.149,94.946 284.149,82.035 271.239,82.035 271.239,71.434 294.747,71.434 294.747,94.946 	"/>
	<polygon  class="st0"  points="284.149,146.172 284.149,133.262 271.239,133.262 271.239,122.66 294.747,122.66 294.747,146.172 	"/>
</g>
<g>
	<polygon class="st1" points="17.047,10.488 17.047,38.398 111.352,38.398 114.102,38.398 225.657,38.398 225.657,10.488
		114.102,10.488 111.352,10.488 	"/>
	<polygon class="st1" points="29.848,48.891 29.848,70.402 111.352,70.402 114.102,70.402 212.867,70.402 212.696,48.891
		114.102,48.891 111.352,48.891 	"/>
	<polygon class="st1" points="113.047,208.887 113.047,228.09 51.355,228.09 51.355,208.887 37.402,208.887 36.402,208.891
		29.848,208.891 29.848,243.199 49.047,243.199 49.047,262.402 193.657,262.402 193.657,243.199 212.859,243.199 212.859,208.891
		198.467,208.891 198.467,208.887 191.344,208.887 191.344,228.09 129.656,228.09 129.656,208.887 114.102,208.887 113.935,208.887
			"/>
	<polygon class="st1" points="29.848,80.891 29.848,198.402 35.801,198.402 36.801,198.397 113.935,198.397 114.102,198.397
		197.902,198.397 197.902,198.402 212.859,198.402 212.859,80.891 114.102,80.891 111.352,80.891 	"/>
	<rect x="140.145" y="208.887" class="st1" width="40.711" height="8.715"/>
	<rect x="61.844" y="208.887" class="st1" width="40.715" height="8.715"/>
	<rect x="204.145" y="253.687" class="st1" width="27.914" height="8.711"/>
	<rect x="10.645" y="253.687" class="st1" width="27.914" height="8.711"/>
	<rect x="111.352" y="38.398" class="st0" width="2.75" height="10.493"/>
	<path class="st0" d="M302.457,262.402h-59.914v-19.203h-19.198l-0.161-194.309h12.961V0H114.102v10.488h111.555v27.91H114.102
		v10.493h98.595l0.171,21.511h-98.766v10.489h98.758v117.512h-14.957v-0.005h-83.801v10.489h15.555v19.203h61.688v-19.203h7.124
		v0.004h14.392v34.309h-19.203v19.203H49.047v-19.203H29.848v-34.309h6.555l1-0.004h13.953v19.203h61.691v-19.203h0.888v-10.489
		H36.801l-1,0.005h-5.953V80.891h81.504V70.402H29.848V48.891h81.504V38.398H17.047v-27.91h94.305V0H6.559v48.891h12.801v194.309
		H0.156v19.198H0v10.489h398.354v-10.489h-85.409L302.457,262.402z M180.855,217.602h-40.711v-8.715h40.711V217.602z
		 M61.844,208.887h40.715v8.715H61.844V208.887z M38.559,262.397H10.645v-8.711h27.914V262.397z M232.059,262.397h-27.914v-8.711
		h27.914V262.397z"/>
	<rect x="113.935" y="198.397" class="st0" width="0.167" height="10.489"/>
	<rect x="111.352" y="70.402" class="st0" width="2.75" height="10.489"/>
	<rect x="111.352" class="st0" width="2.75" height="10.488"/>
</g>
</svg>
