<?xml version="1.0" encoding="utf-8"?>
<!-- Generator: Adobe Illustrator 21.1.0, SVG Export Plug-In . SVG Version: 6.00 Build 0)  -->
<svg version="1.1" id="Layer_1" xmlns="http://www.w3.org/2000/svg" xmlns:xlink="http://www.w3.org/1999/xlink" x="0px" y="0px"
	 viewBox="-49 141 512 512" style="enable-background:new -49 141 512 512;" xml:space="preserve">
<style type="text/css">
	.st0{fill:#ffc748;}
</style>
<g>
	<path class="st0"  d="M207,165.474c-17.384,0-31.526,14.142-31.526,31.526s14.142,31.526,31.526,31.526s31.526-14.142,31.526-31.526
		C238.527,179.616,224.383,165.474,207,165.474z M207,213.474c-9.084,0-16.474-7.39-16.474-16.474s7.39-16.474,16.474-16.474
		c9.084,0,16.474,7.39,16.474,16.474C223.474,206.084,216.083,213.474,207,213.474z"/>
	<rect class="st0"  x="255.003" y="213.474" width="72.002" height="15.053"/>
	<rect class="st0"  x="86.996" y="213.474" width="72.002" height="15.053"/>
	<rect class="st0"  x="143.002" y="189.47" width="16" height="15.053"/>
	<rect class="st0"  x="255.003" y="189.47" width="16" height="15.053"/>
	<rect class="st0"  x="343.001" y="213.474" width="16" height="15.053"/>
	<rect class="st0"  x="55.004" y="213.474" width="16" height="15.053"/>
	<rect class="st0"  x="295.003" y="597.477" width="16" height="15.053"/>
	<rect class="st0"  x="327.005" y="597.477" width="16" height="15.053"/>
	<rect class="st0"  x="358.997" y="597.477" width="76.667" height="15.053"/>
	<path class="st0"  d="M463,324.526v-15.053h-16.474v-16.947h16v-84.95l-198.305-66.102H149.778l-198.305,66.102v84.95h16v16.947H-49v15.053
		h32.474v200.947H-49v15.053h16.474v56.947h-16v55.053h511.053v-55.053h-16v-56.947H463v-15.053h-32.474V324.526H463z
		 M-33.474,218.425l185.695-61.899h109.557l185.695,61.899v27.05H-33.474V218.425z M-33.474,277.474v-16.947h480.947v16.947H-33.474
		z M335.474,324.526v200.947H303v15.053h16.474v16.948h-48.947v-16.948H287v-15.053h-32.474V324.526H287v-15.053h-16.474v-16.947
		h48.947v16.947H303v15.053H335.474z M143.473,540.526v16.948H94.526v-16.948H111v-15.053H78.526V324.526H111v-15.053H94.526
		v-16.947h48.947v16.947H127v15.053h32.474v200.947H127v15.053H143.473z M214.526,436.999V324.526h24.947v200.947h-64.947V324.526
		h24.947v112.473H214.526z M158.526,309.473v-16.947h96.947v16.947H158.526z M158.526,540.526h96.947v16.948h-96.947V540.526z
		 M-17.474,309.473v-16.947h96.947v16.947H-17.474z M38.526,436.999V324.526h24.947v200.947H-1.474V324.526h24.947v112.473H38.526z
		 M-17.474,540.526h96.947v16.948h-96.947V540.526z M447.474,612.525v24.947H-33.474v-24.947h469.138v-15.053H-17.474v-24.946
		h448.947v39.999H447.474L447.474,612.525z M431.474,540.526v16.948h-96.947v-16.948H431.474z M390.527,436.999V324.526h24.947
		v200.947h-64.947V324.526h24.947v112.473H390.527z M334.527,309.473v-16.947h96.947v16.947H334.527z"/>
</g>
</svg>
