<?xml version="1.0" encoding="utf-8"?>
<!-- Generator: Adobe Illustrator 21.1.0, SVG Export Plug-In . SVG Version: 6.00 Build 0)  -->
<svg version="1.1" id="Слой_1" xmlns="http://www.w3.org/2000/svg" xmlns:xlink="http://www.w3.org/1999/xlink" x="0px" y="0px"
	 viewBox="0 0 409.602 409.602" style="enable-background:new 0 0 409.602 409.602;" xml:space="preserve">
<style type="text/css">
	.st0{fill:#ffc748;}
</style>
<g>
	<rect class="st0" x="198.508" y="275.234" width="12.59" height="115.258"/>
	<rect class="st0" x="166.379" y="326.574" width="19.211" height="12.594"/>
	<rect class="st0" x="224.008" y="326.574" width="19.211" height="12.594"/>
	<path class="st0" d="M89.648,172.676h236.707v-63.821H89.648V172.676z M211.098,121.449h102.668v13.02H211.098V121.449z M211.098,147.062
		h102.668v13.024H211.098V147.062z M102.238,121.449h96.266v13.02h-96.266V121.449z M102.238,147.062h96.266v13.024h-96.266V147.062
		z M102.238,147.062"/>
	<rect class="st0"  x="134.363" y="185.695" width="140.871" height="12.594"/>
	<path class="st0"  d="M349.613,59.984C310.934,21.305,259.504,0,204.801,0S98.668,21.305,59.984,59.984C21.305,98.668,0,150.098,0,204.801
		v204.801h409.602V204.801C409.602,150.098,388.297,98.664,349.613,59.984L349.613,59.984z M68.891,68.891
		c36.3-36.305,84.57-56.297,135.91-56.297s99.609,19.992,135.91,56.297c34.816,34.812,54.617,80.632,56.184,129.613h-13.016
		C380.555,102.602,301.5,25.613,204.801,25.613S29.047,102.602,25.723,198.504H12.707C14.27,149.523,34.074,103.703,68.891,68.891
		L68.891,68.891z M326.57,397.008H83.031V268.727H326.57V397.008z M83.031,256.133v-32.231h13.02v32.231H83.031z M108.641,256.133
		v-32.231h13.023v32.231H108.641z M134.258,256.133v-32.231h13.019v32.231H134.258z M159.867,256.133v-32.231h13.024v32.231H159.867
		z M185.48,256.133v-32.231h13.024v32.231H185.48z M211.098,256.133v-32.231h13.019v32.231H211.098z M236.711,256.133v-32.231
		h13.019v32.231H236.711z M262.324,256.133v-32.231h13.02v32.231H262.324z M287.938,256.133v-32.231h13.019v32.231H287.938z
		 M326.57,256.133h-13.019v-32.231h13.019V256.133z M397.008,397.008h-57.844V211.312H70.438v185.696H12.594v-185.91h25.613v-6.297
		c0-91.864,74.731-166.598,166.594-166.598c91.859,0,166.594,74.734,166.594,166.598v6.297h25.613V397.008z M397.008,397.008"/>
	<rect class="st0"  x="224.008" y="281.746" width="12.809" height="12.594"/>
	<rect class="st0"  x="243.219" y="281.746" width="12.805" height="12.594"/>
	<rect class="st0"  x="262.434" y="281.746" width="12.805" height="12.594"/>
</g>
</svg>
