<?xml version="1.0" encoding="utf-8"?>
<!-- Generator: Adobe Illustrator 21.1.0, SVG Export Plug-In . SVG Version: 6.00 Build 0)  -->
<svg version="1.1" id="Слой_1" xmlns="http://www.w3.org/2000/svg" xmlns:xlink="http://www.w3.org/1999/xlink" x="0px" y="0px"
	 viewBox="0 0 323.098 409.602" style="enable-background:new 0 0 323.098 409.602;" xml:space="preserve">
<style type="text/css">
	.st0{fill:none; stroke: #ffc748;}
	.st1{fill: #ffc748}
</style>
<g>
	<path class="st1" d="M25.617,294.328H297.48V25.613H25.617V294.328z M38.172,38.172h246.754v243.601H38.172V38.172z M38.172,38.172"/>
	<path class="st1" d="M128.027,75.488"/>
</g>
<path class="st1" d="M108.183,187.887h119.239v-92.35H95.675v142.3h12.508V187.887z M108.183,108.042h106.731v67.338H108.183V108.042z
	 M108.183,108.042"/>
<rect class="st1"   x="158.728" y="319.945" width="12.554" height="81.722"/>
<g>
	<rect  x="12.555" y="12.555" class="st0" width="297.988" height="294.836"/>
	<polygon  class="st1" points="129.402,397.043 116.848,397.043 84.828,397.043 0,397.043 0,409.602 323.098,409.602 323.098,397.043
		206.25,397.043 193.695,397.043 	"/>
	<path class="st1" d="M323.098,319.945V0H0v319.945h84.828h12.555H323.098z M12.555,307.391V12.555h297.988v294.836H12.555z"/>
</g>
</svg>
