<?xml version="1.0" encoding="utf-8"?>
<!-- Generator: Adobe Illustrator 21.1.0, SVG Export Plug-In . SVG Version: 6.00 Build 0)  -->
<svg version="1.1" id="Layer_1" xmlns="http://www.w3.org/2000/svg" xmlns:xlink="http://www.w3.org/1999/xlink" x="0px" y="0px"
	 viewBox="-49 233 512 325.937" style="enable-background:new -49 233 512 325.937;" xml:space="preserve">
<style type="text/css">
	.st10{fill:#dadada;}
</style>
<path class="st10" d="M427.158,372.363l-13.259-53.035c3.625-0.77,6.345-3.986,6.345-7.839v-8.551c0-18.566-15.105-33.67-33.67-33.67h-60.392
	V251.63c0-9.136-7.432-16.568-16.568-16.568H1.772c-9.136,0-16.568,7.432-16.568,16.568V397c0,4.427,3.589,8.017,8.017,8.017
	s8.017-3.589,8.017-8.017V251.63c0-0.295,0.239-0.534,0.534-0.534h307.841c0.295,0,0.534,0.239,0.534,0.534v145.372
	c0,4.427,3.589,8.017,8.017,8.017c4.427,0,8.017-3.589,8.017-8.017v-9.088h94.569c0.007,0,0.014,0.002,0.021,0.002
	c0.007,0,0.015-0.001,0.022-0.001c11.637,0.007,21.518,7.646,24.912,18.171h-24.928c-4.427,0-8.017,3.589-8.017,8.017v17.102
	c0,13.851,11.268,25.119,25.119,25.119h9.086v35.273h-20.962c-6.886-19.882-25.787-34.205-47.982-34.205
	s-41.097,14.322-47.982,34.205h-3.86v-60.392c0-4.427-3.589-8.017-8.017-8.017c-4.427,0-8.017,3.589-8.017,8.017v60.391H143.817
	c-6.886-19.883-25.787-34.205-47.982-34.205s-41.097,14.322-47.982,34.205H1.772c-0.295,0-0.534-0.239-0.534-0.534v-17.637h34.739
	c4.427,0,8.017-3.589,8.017-8.017c0-4.427-3.589-8.017-8.017-8.017h-76.96c-4.427,0-8.017,3.589-8.017,8.017
	c0,4.427,3.589,8.017,8.017,8.017h26.188v17.637c0,9.136,7.432,16.568,16.568,16.568h43.304c-0.002,0.178-0.014,0.355-0.014,0.534
	c0,27.996,22.777,50.772,50.772,50.772s50.772-22.776,50.772-50.772c0-0.18-0.012-0.356-0.014-0.534h180.67
	c-0.002,0.178-0.014,0.355-0.014,0.534c0,27.996,22.777,50.772,50.772,50.772c27.995,0,50.772-22.776,50.772-50.772
	c0-0.18-0.012-0.356-0.014-0.534h26.203c4.427,0,8.017-3.589,8.017-8.017v-85.512C463,392.99,447.423,375.448,427.158,372.363z
	 M326.182,319.505h71.235l13.094,52.376h-84.329V319.505z M386.574,285.301c9.725,0,17.637,7.912,17.637,17.637v0.534h-78.029
	v-18.171H386.574z M95.835,542.904c-19.155,0-34.739-15.583-34.739-34.739c0-19.156,15.584-34.739,34.739-34.739
	s34.739,15.583,34.739,34.739C130.574,527.321,114.99,542.904,95.835,542.904z M378.023,542.904
	c-19.155,0-34.739-15.583-34.739-34.739c0-19.156,15.584-34.739,34.739-34.739c19.155,0,34.739,15.583,34.739,34.739
	C412.762,527.321,397.178,542.904,378.023,542.904z M437.881,440.29c-5.01,0-9.086-4.076-9.086-9.086v-9.086h18.171v18.171H437.881z
	"/>
<path class="st10" d="M95.835,491.597c-9.136,0-16.568,7.432-16.568,16.568s7.432,16.568,16.568,16.568s16.568-7.432,16.568-16.568
	S104.971,491.597,95.835,491.597z"/>
<path class="st10" d="M378.023,491.597c-9.136,0-16.568,7.432-16.568,16.568s7.432,16.568,16.568,16.568s16.568-7.432,16.568-16.568
	S387.159,491.597,378.023,491.597z"/>
<path class="st10" d="M156.228,465.409c0,4.427,3.589,8.017,8.017,8.017H283.96c4.427,0,8.017-3.589,8.017-8.017c0-4.427-3.589-8.017-8.017-8.017
	H164.244C159.817,457.392,156.228,460.982,156.228,465.409z"/>
<path class="st10" d="M-23.881,439.221H78.733c4.427,0,8.017-3.589,8.017-8.017c0-4.427-3.589-8.017-8.017-8.017H-23.881
	c-4.427,0-8.017,3.589-8.017,8.017C-31.898,435.632-28.308,439.221-23.881,439.221z"/>
<path class="st10" d="M218.434,314.371l-71.292,71.291l-37.087-37.087c-3.131-3.131-8.207-3.131-11.337,0c-3.131,3.131-3.131,8.206,0,11.337
	l42.756,42.756c1.565,1.566,3.617,2.348,5.668,2.348s4.103-0.782,5.668-2.348l76.96-76.96c3.131-3.131,3.131-8.206,0-11.337
	C226.641,311.241,221.564,311.241,218.434,314.371z"/>
</svg>
