<?xml version="1.0" encoding="utf-8"?>
<!-- Generator: Adobe Illustrator 21.1.0, SVG Export Plug-In . SVG Version: 6.00 Build 0)  -->
<svg version="1.1" id="Layer_1" xmlns="http://www.w3.org/2000/svg" xmlns:xlink="http://www.w3.org/1999/xlink" x="0px" y="0px"
	 viewBox="-49 200.452 512 393.095" style="enable-background:new -49 200.452 512 393.095;" xml:space="preserve">
<style type="text/css">
	.st0{fill:none;}
	.st10{fill:#ffb945; clip-rule:evenodd;fill-rule:evenodd;}
</style>
<path class="st10"  d="M69.238,333.115c1.992,1.992,4.602,2.987,7.212,2.987s5.221-0.995,7.212-2.987c3.983-3.983,3.983-10.441,0-14.425
	L64.211,299.24v-56.97c0-5.633-4.566-10.199-10.199-10.199s-10.199,4.566-10.199,10.199v61.195c0,2.705,1.075,5.299,2.987,7.212
	L69.238,333.115z"/>
<g>
	<path class="st0" d="M54.012,386.079c45.554,0,82.614-37.06,82.614-82.614s-37.06-82.614-82.614-82.614
		s-82.614,37.06-82.614,82.614S8.458,386.079,54.012,386.079z"/>
	<path class="st0" d="M-9.501,536.958h9.899c4.661-20.688,23.172-36.192,45.247-36.192c22.076,0,40.587,15.504,45.248,36.192
		h199.905V492.01H-9.501V536.958z"/>
	<path class="st0" d="M156.992,300.999c0.019,0.819,0.032,1.641,0.032,2.465c0,56.8-46.212,103.012-103.012,103.012
		c-23.942,0-46.001-8.21-63.513-21.963v87.098h300.298V300.999H156.992z"/>
	<path class="st0" d="M45.646,521.164c-14.332,0-25.992,11.661-25.992,25.993c0,14.332,11.66,25.992,25.992,25.992
		c14.333,0,25.993-11.66,25.993-25.992C71.638,532.825,59.977,521.164,45.646,521.164z"/>
	<polygon class="st0" points="386.596,388.535 386.596,439.106 430.895,439.106 	"/>
	<path class="st0" d="M375.391,521.164c-14.332,0-25.992,11.661-25.992,25.993c0,14.332,11.66,25.992,25.992,25.992
		c14.332,0,25.993-11.66,25.993-25.992C401.384,532.825,389.723,521.164,375.391,521.164z"/>
	<path class="st0" d="M366.197,449.306v-76.929h-55v164.581h18.947c4.661-20.688,23.172-36.192,45.247-36.192
		c22.076,0,40.587,15.504,45.248,36.192h21.963v-77.453h-66.205C370.763,459.505,366.197,454.939,366.197,449.306z"/>
	<path  class="st10"  d="M460.473,441.915l-75.734-86.458c-1.936-2.21-4.732-3.479-7.672-3.479h-0.67h-65.199V290.8
		c0-5.633-4.566-10.199-10.199-10.199H154.463c-10.428-45.834-51.506-80.148-100.451-80.148C-2.788,200.452-49,246.664-49,303.464
		c0,22.23,7.079,42.839,19.101,59.689V514.84v20.398v11.918c0,5.633,4.566,10.199,10.199,10.199H0.399
		c4.661,20.687,23.172,36.191,45.247,36.191c22.075,0,40.586-15.504,45.248-36.191h239.251v0.001
		c4.661,20.687,23.172,36.191,45.247,36.191c22.075,0,40.586-15.504,45.248-36.191h32.162c5.633,0,10.199-4.566,10.199-10.199
		v-97.851v-0.67C463,446.163,462.102,443.775,460.473,441.915z M-28.602,303.465c0-45.554,37.06-82.614,82.614-82.614
		s82.614,37.06,82.614,82.614s-37.06,82.614-82.614,82.614S-28.602,349.019-28.602,303.465z M45.646,573.148
		c-14.332,0-25.992-11.66-25.992-25.992c0-14.332,11.66-25.993,25.992-25.993c14.332,0,25.993,11.661,25.993,25.993
		C71.638,561.489,59.979,573.148,45.646,573.148z M290.799,536.958H90.893c-4.661-20.688-23.172-36.192-45.248-36.192
		c-22.075,0-40.586,15.504-45.247,36.192h-9.899V492.01h300.299V536.958z M290.798,471.611H-9.501v-87.098
		c17.511,13.753,39.571,21.963,63.513,21.963c56.8,0,103.012-46.212,103.012-103.012c0-0.824-0.012-1.646-0.032-2.465h133.805
		V471.611h0.001H290.798z M386.596,388.535l44.299,50.572h-44.299V388.535z M375.391,573.148c-14.332,0-25.992-11.66-25.992-25.992
		c0-14.332,11.66-25.993,25.992-25.993c14.332,0,25.993,11.661,25.993,25.993C401.384,561.489,389.723,573.148,375.391,573.148z
		 M442.602,536.958h-21.963c-4.661-20.688-23.172-36.192-45.248-36.192c-22.075,0-40.586,15.504-45.247,36.192h-18.947V372.377h55
		v76.929c0,5.633,4.566,10.199,10.199,10.199h66.205V536.958z"/>
</g>
</svg>
