<svg xmlns="http://www.w3.org/2000/svg" viewBox="0 0 51.9 69"><path d="M40 30.9c-.8 0-1.5-.7-1.5-1.5V6.5C38.5 4.6 36.9 3 35 3H15c-1.9 0-3.5 1.6-3.5 3.5v22.9c0 .8-.7 1.5-1.5 1.5s-1.5-.7-1.5-1.5V6.5C8.5 2.9 11.4 0 15 0h20c3.6 0 6.5 2.9 6.5 6.5v22.9c0 .8-.6 1.5-1.5 1.5z" fill="#5a65a7"/><path d="M26 69c-1.4 0-2.8-.7-3.6-1.9L.8 35.5c-.9-1.3-1-3-.3-4.4s2.2-2.3 3.8-2.3H10c.8 0 1.5.7 1.5 1.5s-.7 1.5-1.5 1.5H4.3c-.7 0-1 .5-1.2.7s-.3.8.1 1.3l21.6 31.6c.5.7 1.7.7 2.2 0l21.6-31.6c.4-.6.2-1.1.1-1.3s-.4-.7-1.2-.7H40c-.8 0-1.5-.7-1.5-1.5s.7-1.5 1.5-1.5h7.6c1.6 0 3.1.9 3.8 2.3.7 1.4.7 3.1-.3 4.4L29.5 67.1c-.8 1.2-2.1 1.9-3.5 1.9zM15.7 25.4c-.8 0-1.5-.7-1.5-1.5V5.4c0-.8.7-1.5 1.5-1.5s1.5.7 1.5 1.5v18.5c0 .8-.7 1.5-1.5 1.5z" fill="#5a65a7"/><path d="M15.7 33.7c-.8 0-1.5-.7-1.5-1.5v-3.7c0-.8.7-1.5 1.5-1.5s1.5.7 1.5 1.5v3.7c0 .8-.7 1.5-1.5 1.5z" fill="#5a65a7"/></svg>