<svg xmlns="http://www.w3.org/2000/svg" viewBox="0 0 64 63.4"><path d="M32.3 63.4C14.8 63.4.6 49.2.6 31.7S14.8 0 32.3 0 64 14.2 64 31.7 49.7 63.4 32.3 63.4zm0-60.3C16.5 3.1 3.6 16 3.6 31.8s12.9 28.7 28.7 28.7S61 47.6 61 31.8 48.1 3.1 32.3 3.1z" fill="#5a65a7"/><path d="M18.5 38.2c-4.9 0-8.9-4-8.9-8.9s4-8.9 8.9-8.9 8.9 4 8.9 8.9-4 8.9-8.9 8.9zm0-14.8c-3.2 0-5.9 2.6-5.9 5.9s2.6 5.9 5.9 5.9 5.9-2.6 5.9-5.9-2.7-5.9-5.9-5.9zm12.9-5.7c-2.5 0-4.5-2-4.5-4.5s2-4.5 4.5-4.5 4.5 2 4.5 4.5-2.1 4.5-4.5 4.5zm0-6c-.8 0-1.5.7-1.5 1.5s.7 1.5 1.5 1.5 1.5-.7 1.5-1.5-.7-1.5-1.5-1.5zm17 13c-2.3 0-4.3-1.9-4.3-4.3s1.9-4.3 4.3-4.3 4.3 1.9 4.3 4.3-2 4.3-4.3 4.3zm0-5.5c-.7 0-1.3.6-1.3 1.3s.6 1.3 1.3 1.3 1.3-.6 1.3-1.3-.7-1.3-1.3-1.3zm-9.3 19c-1.7 0-3-1.3-3-3s1.3-3 3-3 3 1.3 3 3-1.3 3-3 3zm0-3.1zm-12 12.3c-1.5 0-2.8-1.2-2.8-2.8s1.2-2.8 2.8-2.8 2.8 1.2 2.8 2.8-1.3 2.8-2.8 2.8zm0-3c-.1 0-.3.1-.3.3 0 .3.5.3.5 0 .1-.2-.1-.3-.2-.3zm16 8c-2.2 0-4-1.8-4-4s1.8-4 4-4 4 1.8 4 4-1.8 4-4 4zm0-5c-.6 0-1 .4-1 1s.4 1 1 1 1-.4 1-1-.4-1-1-1z" fill="#5a65a7"/></svg>