<?xml version="1.0" encoding="utf-8"?>
<!-- Generator: Adobe Illustrator 21.1.0, SVG Export Plug-In . SVG Version: 6.00 Build 0)  -->
<svg version="1.1" id="Layer_1" xmlns="http://www.w3.org/2000/svg" xmlns:xlink="http://www.w3.org/1999/xlink" x="0px" y="0px"
	 viewBox="10 141 392.463 512" style="enable-background:new 10 141 392.463 512;" xml:space="preserve">
<style type="text/css">
	.st0{fill:#fff;}
</style>
<path class="st0" d="M211.201,654.002c-2.757,0-5.267-1.289-6.885-3.537c-1.618-2.247-2.042-5.039-1.165-7.661l18.399-54.998l-16.707-18.884
	l-24.705,5.028l-17.306,51.726c-1.161,3.47-4.412,5.802-8.091,5.802c-2.414,0-4.641-0.993-6.271-2.795
	c-17.236-19.038-23.107-45.323-15.322-68.597c8.198-24.501,29.859-42.115,56.62-46.092l2.431-7.264
	c-25.149-1.789-37.95-6-49.265-9.723c-9.56-3.146-18.599-6.119-33.714-7.216c-1.711,10.067-10.482,17.545-20.779,17.545H32.63
	c-11.632,0-21.096-9.464-21.096-21.096V353.648c0-11.632,9.463-21.095,21.096-21.095h55.812c9.693,0,18.157,6.68,20.473,16.013
	c26.795-3.583,40.058-12.587,54.09-22.113c19.717-13.386,40.108-27.227,99.127-28.756l13.398-40.047
	c-19.633-19.949-26.027-47.831-16.68-72.916c9.512-25.524,33.095-42.657,61.547-44.712c0.203-0.014,0.404-0.021,0.604-0.021
	c2.611,0,5.125,1.229,6.724,3.288c1.748,2.25,2.251,5.207,1.346,7.909l-18.399,55l16.707,18.882l24.706-5.028l17.305-51.725
	c1.16-3.471,4.412-5.803,8.092-5.803c2.411,0,4.639,0.993,6.271,2.795c16.887,18.652,22.813,43.592,15.852,66.714
	c-6.848,22.745-25.181,40.025-49.098,46.321l-1.262,3.771c-0.026,0.822-0.173,1.636-0.437,2.423l-16.425,48.004h22.13
	c15.537,0,28.178,12.641,28.178,28.178c0,11.343-6.917,21.648-17.332,26.007c3.767,6.975,4.411,15.191,1.746,22.728
	c-2.671,7.555-8.362,13.558-15.713,16.628c3.767,6.975,4.411,15.191,1.746,22.728c-2.672,7.555-8.363,13.558-15.713,16.628
	c2.205,4.089,3.365,8.678,3.365,13.345c0,15.538-12.64,28.18-28.177,28.18H274.02l-11.914,35.607
	c16.347,20.739,20.052,46.92,9.898,70.144c-10.435,23.866-32.932,39.29-60.18,41.256
	C211.613,653.995,211.406,654.002,211.201,654.002z M207.956,551.11c2.436,0,4.758,1.046,6.371,2.869l23.211,26.233
	c2.007,2.27,2.656,5.462,1.694,8.331l-15.38,45.972c16.32-5.116,29.027-17.203,34.196-32.646
	c9.278-27.736-7.569-58.471-37.555-68.513c-6.575-2.2-13.242-3.315-19.813-3.315c-19.475,0-37.552,10.089-47.177,26.331
	c-8.735,14.742-9.209,32.033-1.395,47.781l13.468-40.256c0.961-2.872,3.4-5.03,6.366-5.633l34.324-6.983
	C206.819,551.168,207.388,551.11,207.956,551.11z M207.872,513.471c14.702,1.317,29.076,6.893,40.759,15.807l7.464-22.306
	c-33.613,0.007-43.727,0.266-46.167,0.353L207.872,513.471z M32.63,349.553c-2.257,0-4.094,1.837-4.094,4.094v132.595
	c0,2.257,1.837,4.094,4.094,4.094h55.81c2.257,0,4.094-1.837,4.094-4.094l0.002-132.595c0-2.257-1.836-4.094-4.094-4.094H32.63z
	 M109.535,472.771c17.601,1.178,32.305,5.735,34.511,6.602c24.039,9.524,51.564,10.946,65.833,10.946
	c6.817-0.001,11.018-0.318,11.059-0.321c0.108-0.009,0.365-0.028,52.545-0.028l39.132,0.003c6.162,0,11.176-5.015,11.176-11.179
	c0-6.162-5.014-11.175-11.176-11.175h-48.211c-4.687,0-8.5-3.813-8.5-8.5c0-4.688,3.813-8.501,8.5-8.501h62.177
	c6.163,0,11.177-5.015,11.177-11.179c0-6.162-5.014-11.175-11.177-11.175h-62.177c-4.687,0-8.5-3.813-8.5-8.501
	c0-4.687,3.813-8.5,8.5-8.5h76.146c6.162,0,11.176-5.016,11.176-11.18c0-6.162-5.014-11.175-11.176-11.175h-76.146
	c-4.687,0-8.5-3.813-8.5-8.5s3.813-8.5,8.5-8.5h90.11c6.163,0,11.177-5.014,11.177-11.177s-5.014-11.177-11.177-11.177H256.59
	c-2.728,0-5.307-1.321-6.899-3.534c-1.593-2.215-2.027-5.08-1.161-7.665l7.848-23.454c-49.415,2.138-67.892,14.716-85.771,26.884
	c-15.209,10.352-29.585,20.135-61.069,23.864L109.535,472.771z M314.45,332.552l13.976-40.924c0.049-0.718,0.19-1.429,0.421-2.117
	l2.904-8.681c-0.112,0-0.224,0-0.336,0c-14.799,0-29.199-4.109-41.732-11.896l-21.285,63.618H314.45z M308.371,159.484
	c-15.03,4.705-26.933,15.218-32.827,29.08c-5.987,14.078-5.065,30.196,2.527,44.222c10.326,19.071,30.74,30.918,53.277,30.918
	c24.569,0,44.342-13.48,51.603-35.181c4.259-12.73,3.241-26.375-2.835-38.675L366.648,230.1c-0.958,2.871-3.397,5.029-6.366,5.633
	l-34.324,6.984c-0.557,0.112-1.125,0.169-1.69,0.169c-2.436,0-4.758-1.044-6.371-2.866l-23.211-26.234
	c-2.006-2.269-2.655-5.46-1.694-8.331L308.371,159.484z"/>
<path  class="st0" d="M383.011,165.991c-3.853-4.256-10.86-2.769-12.673,2.653l-17.487,52.272l-25.838,5.258l-17.472-19.747l18.583-55.547
	c0.796-2.379,0.351-4.997-1.188-6.979c-1.538-1.98-3.968-3.059-6.465-2.882c-60.227,4.349-86.664,73.489-43.796,116.363
	l-13.816,41.296c-102.667,2.477-89.331,42.645-154.718,50.997c-1.849-9.185-9.977-16.123-19.698-16.123H32.63
	c-11.081,0-20.096,9.015-20.096,20.096v132.592c0,11.081,9.015,20.096,20.096,20.096h55.811c10.236,0,18.692-7.698,19.925-17.606
	c34.414,2.285,37.349,13.901,85.192,17.091l-3.036,9.074c-26.256,3.687-48.239,21.042-56.424,45.509
	c-7.671,22.931-1.879,48.837,15.115,67.608c3.843,4.246,10.856,2.779,12.673-2.653l17.488-52.274l25.836-5.257l17.472,19.748
	L204.1,643.121c-1.687,5.042,2.283,10.239,7.653,9.861c56.503-4.077,84.59-65.979,49.233-110.205l12.315-36.805h39.313
	c14.985,0,27.177-12.192,27.177-27.179c0-5.056-1.389-9.795-3.803-13.854c15.94-5.9,22.612-24.82,13.967-39.355
	c15.94-5.9,22.612-24.819,13.967-39.355c10.363-3.836,17.769-13.818,17.769-25.499c0-14.985-12.192-27.178-27.178-27.178h-23.529
	l16.875-49.321c1.314-3.929-0.805-8.179-4.732-9.493c-3.932-1.319-8.18,0.805-9.493,4.732l-18.469,54.082h-48.157
	c1.967-5.877,18.917-56.543,22.13-66.145c12.833,8.264,27.95,12.752,44.007,12.405l-3.351,10.017
	c-1.314,3.929,0.805,8.179,4.732,9.493c3.931,1.316,8.179-0.804,9.493-4.732l5.709-17.066
	C400.886,264.45,418.181,204.838,383.011,165.991z M258.996,602.186c-5.544,16.569-19.374,29.029-36.701,33.832l15.988-47.791
	c0.851-2.541,0.28-5.343-1.495-7.351l-23.211-26.235c-1.812-2.047-4.546-2.904-7.113-2.38l-34.324,6.984
	c-2.626,0.534-4.767,2.429-5.617,4.97l-14.214,42.487c-23.707-43.301,19.06-90.836,68.5-74.294
	C251.17,542.575,268.494,573.792,258.996,602.186z M249.131,530.934c-12.481-9.901-27.576-15.476-42.613-16.569l2.68-8.011
	c0,0,6.276-0.382,48.285-0.382L249.131,530.934z M354.514,348.553c6.715,0,12.177,5.462,12.177,12.177
	c0,6.715-5.462,12.177-12.177,12.177c-10.708,0-79.305,0-90.11,0c-4.143,0-7.501,3.357-7.501,7.501s3.357,7.501,7.501,7.501h76.145
	c6.714,0,12.176,5.461,12.176,12.175c0,6.716-5.462,12.179-12.176,12.179c-28.751,0-47.53,0-76.145,0
	c-4.143,0-7.501,3.357-7.501,7.501c0,4.143,3.357,7.501,7.501,7.501h62.177c6.715,0,12.177,5.461,12.177,12.175
	c0,6.716-5.462,12.179-12.177,12.179c-6.414,0-55.808,0-62.177,0c-4.143,0-7.501,3.357-7.501,7.501c0,4.142,3.357,7.501,7.501,7.501
	h48.211c6.714,0,12.176,5.461,12.176,12.175c0,6.715-5.462,12.178-12.176,12.178c-0.487,0-91.113-0.015-91.599,0.023
	c-0.418,0.032-42.384,3.156-77.335-10.692c-1.322-0.519-16.356-5.473-35.145-6.593V373.388c0-4.143-3.358-7.501-7.501-7.501
	c-4.142,0-7.501,3.357-7.501,7.501v112.854c0,2.809-2.285,5.094-5.094,5.094H32.63c-2.809,0-5.094-2.285-5.094-5.094V353.648
	c0-2.809,2.285-5.094,5.094-5.094h55.811c2.809,0,5.094,2.285,5.094,5.094v20.736c0,4.143,3.358,7.501,7.501,7.501
	c4.142,0,7.501-3.357,7.501-7.501v-9.625c70.648-8.032,56.75-47.339,149.248-50.916l-8.308,24.83
	c-0.766,2.288-0.384,4.804,1.025,6.763c1.409,1.958,3.675,3.118,6.087,3.118C306.197,348.553,304.601,348.553,354.514,348.553z
	 M383.9,228.84c-15.458,46.202-83.19,47.857-106.707,4.421c-16.504-30.484-0.672-66.019,32.736-75.279l-15.988,47.792
	c-0.851,2.541-0.28,5.343,1.495,7.351l23.211,26.233c1.776,2.006,4.488,2.911,7.113,2.38l34.325-6.985
	c2.626-0.534,4.768-2.429,5.617-4.97l14.214-42.486C386.981,200.202,388.527,215.008,383.9,228.84z"/>
</svg>
