<?xml version="1.0" encoding="utf-8"?>
<!-- Generator: Adobe Illustrator 21.1.0, SVG Export Plug-In . SVG Version: 6.00 Build 0)  -->
<svg version="1.1" id="Layer_1" xmlns="http://www.w3.org/2000/svg" xmlns:xlink="http://www.w3.org/1999/xlink" x="0px" y="0px"
	 viewBox="-49 141 512 506.4" style="enable-background:new -49 141 512 506.4;" xml:space="preserve">
<style type="text/css">
	.st0{fill:#fff;}
</style>
<g>
	<path class="st0" d="M139.721,449.21c-4.133,0-7.483,3.35-7.483,7.483v18.759c0,4.133,3.35,7.483,7.483,7.483
		s7.483-3.35,7.483-7.483v-18.759C147.204,452.561,143.854,449.21,139.721,449.21z"/>
	<path class="st0" d="M324.967,447.242c-34.148,0-61.931,27.808-61.931,61.989c0,34.18,27.782,61.988,61.931,61.988
		c34.15,0,61.932-27.808,61.932-61.988C386.899,475.05,359.117,447.242,324.967,447.242z M324.967,556.089
		c-25.806,0-46.801-21.021-46.801-46.859s20.995-46.859,46.801-46.859s46.802,21.021,46.802,46.859
		C371.769,535.069,350.774,556.089,324.967,556.089z"/>
	<path class="st0" d="M448.287,478.99h-6.548c-8.934,0-14.517-5.789-16.764-11.207c-2.251-5.43-2.399-13.49,3.931-19.828
		l4.632-4.636c5.731-5.738,5.731-15.074-0.001-20.811l-21.925-21.948c-2.779-2.783-6.475-4.315-10.407-4.315
		c-3.931,0-7.627,1.532-10.407,4.314l-4.276,4.281l0.446-0.446v-56.675l31.64,21.859c1.927,1.331,4.164,2.006,6.412,2.006
		c1.793,0,3.592-0.43,5.247-1.297c3.729-1.956,6.046-5.789,6.046-10.002v-43.687c0-3.702-1.815-7.171-4.855-9.28l-101.395-70.343
		c-3.396-2.356-8.059-1.513-10.414,1.883c-2.356,3.396-1.513,8.058,1.882,10.413l99.815,69.247v34.762L197.895,198.906
		c-0.296-0.205-0.607-0.377-0.923-0.535c-0.073-0.036-0.147-0.068-0.221-0.101c-0.247-0.113-0.498-0.212-0.754-0.297
		c-0.087-0.029-0.174-0.06-0.262-0.086c-0.304-0.089-0.611-0.161-0.923-0.21c-0.026-0.004-0.051-0.012-0.076-0.016
		c-0.002,0-0.004-0.001-0.005-0.001c-0.319-0.047-0.64-0.065-0.96-0.071c-0.084-0.001-0.166-0.003-0.25-0.002
		c-0.314,0.005-0.627,0.026-0.937,0.07c-0.067,0.01-0.134,0.025-0.201,0.036c-0.273,0.046-0.542,0.108-0.809,0.184
		c-0.07,0.02-0.14,0.036-0.21,0.059c-0.302,0.096-0.598,0.214-0.888,0.35c-0.075,0.035-0.149,0.073-0.223,0.111
		c-0.29,0.147-0.574,0.307-0.846,0.494c-0.009,0.006-0.02,0.01-0.029,0.017l-1.471,1.018L-34,353.231l0.169-34.672l224.837-156.187
		c1.575-1.093,3.689-1.094,5.261-0.002l145.201,100.688c3.398,2.357,8.06,1.512,10.414-1.883c2.356-3.396,1.513-8.058-1.882-10.413
		L204.799,150.073c-6.681-4.633-15.655-4.631-22.332,0.007L-43.939,307.359c-3.019,2.098-4.831,5.545-4.848,9.22L-49,360.203
		c-0.021,4.225,2.286,8.074,6.021,10.045c3.735,1.973,8.211,1.704,11.682-0.696L0.3,347.723v132.652c0,4.133,3.35,7.483,7.483,7.483
		s7.483-3.35,7.483-7.483v-142.81l178.368-123.404l178.367,123.404v72.9c-4.147-0.349-8.17-2.084-11.222-4.938
		c-2.552-2.386-5.595-6.612-5.595-13.191v-6.555c0-8.116-6.601-14.72-14.713-14.72h-31.008c-8.113,0-14.712,6.604-14.712,14.72
		v6.555c0,11.41-9.324,18.23-18.338,18.231c-3.32,0-8.209-0.932-12.646-5.373l-4.632-4.636c-2.779-2.782-6.475-4.313-10.406-4.313
		s-7.627,1.532-10.406,4.314l-21.928,21.95c-5.73,5.737-5.73,15.072,0.001,20.811l4.63,4.635c6.331,6.339,6.182,14.398,3.931,19.828
		c-2.246,5.418-7.829,11.208-16.764,11.208h-6.547c-8.113,0-14.713,6.604-14.713,14.72v31.041c0,8.116,6.601,14.72,14.713,14.72
		h6.547c8.935,0,14.518,5.79,16.764,11.208c0.797,1.922,1.321,4.177,1.396,6.566h-44.912v-172.34
		c0-11.691-9.511-21.202-21.202-21.202H74.971c-11.69,0-21.202,9.511-21.202,21.202v172.338H15.267v-88.958
		c0-4.133-3.35-7.483-7.483-7.483s-7.483,3.35-7.483,7.483v88.958h-27.177c-10.278,0-18.64,8.367-18.64,18.652v19.61
		c0,10.284,8.362,18.651,18.64,18.651h261.46l3.741,3.745c2.779,2.782,6.474,4.315,10.406,4.315c3.931,0,7.627-1.532,10.408-4.315
		l4.629-4.634c4.436-4.441,9.326-5.373,12.647-5.373c9.014,0,18.337,6.819,18.337,18.23v6.555c0,8.116,6.6,14.72,14.712,14.72
		h31.008c8.113,0,14.713-6.604,14.713-14.72v-6.555c0-11.411,9.323-18.23,18.337-18.23c3.321,0,8.211,0.932,12.647,5.373
		l4.631,4.635c2.779,2.782,6.475,4.315,10.406,4.315c3.932,0,7.628-1.533,10.406-4.314l21.927-21.95
		c5.731-5.738,5.731-15.074-0.001-20.812l-4.63-4.635c-6.332-6.339-6.183-14.398-3.932-19.828
		c2.247-5.418,7.83-11.207,16.764-11.207h6.548c8.112,0,14.713-6.604,14.713-14.72V493.71
		C463,485.593,456.399,478.99,448.287,478.99z M68.739,384.906c0-3.438,2.797-6.236,6.236-6.236h85.268
		c3.438,0,6.236,2.797,6.236,6.236v172.338H68.74V384.906H68.739z M-26.876,599.192c-2.026,0-3.674-1.653-3.674-3.685v-19.61
		c0-2.033,1.649-3.686,3.674-3.686l0,0l0,0h246.203l0,0l-2.929,2.932c-5.73,5.737-5.73,15.072,0.001,20.811l3.235,3.238H-26.876z
		 M447.87,524.341h-6.132c-13.709,0-25.487,7.872-30.74,20.543c-5.259,12.686-2.499,26.601,7.204,36.315l4.344,4.348l-21.342,21.364
		l-4.332-4.337c-6.32-6.326-14.613-9.81-23.351-9.81c-18.453,0-33.467,14.965-33.467,33.36v6.145H309.88v-6.145
		c0-18.395-15.013-33.36-33.467-33.36c-8.739,0-17.032,3.484-23.352,9.81l-4.332,4.337l-21.342-21.365l4.344-4.348
		c9.703-9.713,12.463-23.628,7.206-36.314c-5.253-12.672-17.033-20.544-30.741-20.544h-6.131v-30.22h6.131
		c13.708,0,25.488-7.872,30.741-20.544c5.258-12.686,2.498-26.601-7.206-36.314l-4.344-4.348l21.342-21.365l4.333,4.337
		c6.32,6.327,14.611,9.811,23.348,9.811c0.001,0,0.002,0,0.003,0c18.454-0.003,33.467-14.968,33.467-33.36v-6.145h30.174v6.145
		c0,9.368,3.691,17.978,10.392,24.243c6.198,5.794,14.608,9.117,23.075,9.117c8.738,0,17.031-3.484,23.352-9.81l4.331-4.336
		l21.342,21.364l-4.345,4.348c-9.702,9.713-12.462,23.628-7.203,36.314c5.253,12.672,17.032,20.543,30.74,20.543h6.132
		L447.87,524.341L447.87,524.341z"/>
</g>
</svg>
