<?xml version="1.0" encoding="utf-8"?>
<!-- Generator: Adobe Illustrator 21.1.0, SVG Export Plug-In . SVG Version: 6.00 Build 0)  -->
<svg version="1.1" id="Layer_1" xmlns="http://www.w3.org/2000/svg" xmlns:xlink="http://www.w3.org/1999/xlink" x="0px" y="0px"
	 viewBox="24.965 138.166 364.07 519.168" style="enable-background:new 24.965 138.166 364.07 519.168;" xml:space="preserve">
<style type="text/css">
	.st0{fill:#fff;}
</style>
<g transform="translate(1 1)">
	<path class="st0" d="M69.467,603.635c-3.873,0-6.99-1.539-9.034-4.454c-2.334-2.518-2.334-5.894-2.334-8.621v-0.324l99.914-431.249
		c2.917-12.643,14.486-21.821,27.508-21.821h40.96c13.021,0,24.591,9.178,27.508,21.824l99.813,430.812
		c1.033,3.269,0.182,6.828-2.238,9.388c-2.044,2.91-5.16,4.446-9.029,4.446H69.467z M328.727,580.898l-96.475-416.365
		c-0.588-2.932-2.738-4.632-5.771-4.632h-40.96c-3.033,0-5.184,1.7-5.753,4.548L84.12,580.898H328.727z"/>
	<path class="st0" d="M342.533,600.8H69.467c-2.56,0-5.12-0.853-6.827-3.413c-1.707-1.707-1.707-4.267-1.707-6.827l99.84-430.933
		c2.56-11.093,12.8-19.627,24.747-19.627h40.96c11.947,0,22.187,8.533,24.747,19.627l99.84,430.933c0.853,2.56,0,5.12-1.707,6.827
		C347.653,599.947,345.093,600.8,342.533,600.8z M80.56,583.733h251.733l-97.28-419.84c-0.853-4.267-4.267-6.827-8.533-6.827h-40.96
		c-4.267,0-7.68,2.56-8.533,6.827L80.56,583.733z"/>
	<path class="st0" d="M60.933,654.835c-20.384,0-36.968-16.584-36.968-36.969c0-20.384,16.583-36.968,36.968-36.968h290.133
		c20.385,0,36.969,16.584,36.969,36.968c0,20.385-16.584,36.969-36.969,36.969H60.933z M60.933,603.635
		c-7.847,0-14.232,6.384-14.232,14.231s6.385,14.232,14.232,14.232h290.133c7.848,0,14.232-6.385,14.232-14.232
		s-6.385-14.231-14.232-14.231H60.933z"/>
	<path class="st0" d="M351.067,652H60.933C42.16,652,26.8,636.64,26.8,617.867c0-18.773,15.36-34.133,34.133-34.133h290.133
		c18.773,0,34.133,15.36,34.133,34.133C385.2,636.64,369.84,652,351.067,652z M60.933,600.8c-9.387,0-17.067,7.68-17.067,17.067
		s7.68,17.067,17.067,17.067h290.133c9.387,0,17.067-7.68,17.067-17.067s-7.68-17.067-17.067-17.067H60.933z"/>
	<path class="st0" d="M130.907,339.101c-3.875,0-6.993-1.54-9.036-4.457c-2.092-2.272-3.421-6.532-2.198-9.52l19.565-85.066
		c1.09-5.452,5.53-9.026,11.296-9.026H262.32c5.766,0,10.206,3.574,11.313,9.105l19.583,85.134c1.031,3.269,0.179,6.826-2.24,9.383
		c-2.044,2.911-5.159,4.446-9.029,4.446H130.907z M267.311,316.366l-14.085-62.598H159.6l-14.867,62.598H267.311z"/>
	<path class="st0" d="M281.947,336.267h-151.04c-2.56,0-5.12-0.853-6.827-3.413c-1.707-1.707-2.56-5.12-1.707-6.827L142,240.693
		c0.853-4.267,4.267-6.827,8.533-6.827H262.32c4.267,0,7.68,2.56,8.533,6.827l19.627,85.333c0.853,2.56,0,5.12-1.707,6.827
		C287.067,335.413,284.507,336.267,281.947,336.267z M141.147,319.2h129.707l-15.36-68.267H157.36L141.147,319.2z"/>
	<path class="st0" d="M91.653,509.769c-3.87,0-6.985-1.537-9.029-4.447c-2.42-2.558-3.272-6.115-2.239-9.384l19.599-85.213
		c1.09-5.452,5.53-9.026,11.296-9.026h190.293c5.766,0,10.206,3.574,11.313,9.106l19.582,85.133
		c1.033,3.269,0.181,6.826-2.239,9.384c-2.043,2.91-5.158,4.447-9.028,4.447H91.653z M306.563,487.031l-14.084-62.597H120.347
		l-14.866,62.597H306.563z"/>
	<path class="st0" d="M321.2,506.933H91.653c-2.56,0-5.12-0.853-6.827-3.413c-1.707-1.707-2.56-4.267-1.707-6.827l19.627-85.333
		c0.853-4.267,4.267-6.827,8.533-6.827h190.293c4.267,0,7.68,2.56,8.533,6.827l19.627,85.333c0.853,2.56,0,5.12-1.707,6.827
		C326.32,506.08,323.76,506.933,321.2,506.933z M101.893,489.867h208.213l-15.36-68.267h-176.64L101.893,489.867z"/>
</g>
</svg>
