<?xml version="1.0" encoding="utf-8"?>
<!-- Generator: Adobe Illustrator 21.1.0, SVG Export Plug-In . SVG Version: 6.00 Build 0)  -->
<svg version="1.1" id="Слой_1" xmlns="http://www.w3.org/2000/svg" xmlns:xlink="http://www.w3.org/1999/xlink" x="0px" y="0px"
	 viewBox="0 0 389.76 392.88" style="enable-background:new 0 0 389.76 392.88;" xml:space="preserve">
<!-- <style type="text/css">
	.st0{clip-path:url(#SVGID_2_);}
</style> -->
<style type="text/css">
	.st0{fill:#fff;}
</style>
<g>
	<g>
		<defs>
			<rect id="SVGID_1_" width="389.76" height="392.88"/>
		</defs>
		<clipPath id="SVGID_2_">
			<use xlink:href="#SVGID_1_"  style="overflow:visible;"/>
		</clipPath>
		<path class="st0" d="M385.52,144.481L199.68,2.399c-2.481-2.48-6.641-2.48-10,0L4.641,143.919C2.16,145.599,0,151.438,0,154.72
			v228.879c0,4.961,3.359,8.32,8.32,8.32h372.879c4.961,0,8.321-3.359,8.321-8.32V154.72C389.441,151.2,388.48,147.2,385.52,144.481
			L385.52,144.481z M194.723,19.919l163.117,124H32.402L194.723,19.919z M312.879,375.278H75.68v-29.117h237.199V375.278z
			 M312.879,329.52H75.68v-26.64h237.199V329.52z M312.879,286.239H75.68v-28.32h237.199V286.239z M372.801,375.278H329.52V249.599
			c0-4.957-3.36-8.321-8.321-8.321H67.359c-4.957,0-8.32,3.364-8.32,8.321v125.679H16.562V160.56h356.239V375.278z M372.801,375.278
			"/>
	</g>
	<rect class="st0" x="57.359" y="189.681" width="34.16" height="16.641"/>
	<rect class="st0" x="117.281" y="189.681" width="34.16" height="16.641"/>
	<rect class="st0" x="177.199" y="189.681" width="34.16" height="16.641"/>
	<rect class="st0" x="238" y="189.681" width="34.16" height="16.641"/>
	<rect class="st0" x="297.922" y="189.681" width="34.156" height="16.641"/>
</g>
</svg>
