<?xml version="1.0" encoding="utf-8"?>
<!-- Generator: Adobe Illustrator 21.1.0, SVG Export Plug-In . SVG Version: 6.00 Build 0)  -->
<svg version="1.1" id="Capa_1" xmlns="http://www.w3.org/2000/svg" xmlns:xlink="http://www.w3.org/1999/xlink" x="0px" y="0px"
	 viewBox="-49 141 512 512" style="enable-background:new -49 141 512 512;" xml:space="preserve">
<style type="text/css">
	.st0{fill:#fff;}
</style>
<path class="st0" d="M207,650.165c-67.623,0-131.199-26.333-179.016-74.15C-19.832,528.198-46.166,464.623-46.166,397
	c0-67.622,26.333-131.197,74.15-179.015C75.801,170.168,139.377,143.834,207,143.834s131.199,26.334,179.015,74.151
	c47.817,47.817,74.15,111.392,74.15,179.015c0,67.623-26.333,131.198-74.15,179.015C338.198,623.832,274.623,650.165,207,650.165z
	 M34.888,246.365C-1.69,288.107-21.834,341.604-21.834,397c0,126.18,102.655,228.835,228.834,228.835
	c55.396,0,108.894-20.145,150.635-56.723l2.277-1.995L220.895,428.099h-60.432v121.929h-24.331V343.335l-99.248-99.248
	L34.888,246.365z M230.871,243.971c50.764,0,92.063,41.3,92.063,92.064c0,20.164-6.427,39.321-18.585,55.402
	c-11.765,15.561-28.463,27.202-47.02,32.78l-4.542,1.365l124.329,124.329l1.995-2.277c36.578-41.741,56.723-95.238,56.723-150.635
	c0-126.18-102.655-228.834-228.835-228.834c-55.396,0-108.893,20.145-150.635,56.723l-2.277,1.995l82.045,82.045v-64.955
	l14.065-0.003H230.871z M160.462,403.769h36.103l-36.103-36.102V403.769z M160.462,333.258l70.501,70.501l1.205-0.023
	c36.632-0.695,66.435-31.067,66.435-67.702c0-37.349-30.385-67.734-67.733-67.734h-70.408V333.258z"/>
</svg>
