<?xml version="1.0" encoding="utf-8"?>
<!-- Generator: Adobe Illustrator 21.1.0, SVG Export Plug-In . SVG Version: 6.00 Build 0)  -->
<svg version="1.1" id="Layer_1" xmlns="http://www.w3.org/2000/svg" xmlns:xlink="http://www.w3.org/1999/xlink" x="0px" y="0px"
	 viewBox="-49 160.115 512 473.771" style="enable-background:new -49 160.115 512 473.771;" xml:space="preserve">
<style type="text/css">
	.st0{fill:#fff;}
</style>
<path  class="st0"  d="M165.685,543.829c-24.829,0-45.029,20.2-45.029,45.029c0,24.829,20.2,45.029,45.029,45.029s45.029-20.2,45.029-45.029
	C210.713,564.029,190.513,543.829,165.685,543.829z M165.685,608.743c-10.966,0-19.887-8.922-19.887-19.887
	c0-10.966,8.922-19.887,19.887-19.887c10.966,0,19.887,8.922,19.887,19.887C185.572,599.823,176.65,608.743,165.685,608.743z"/>
<path  class="st0"  d="M323.63,543.829c-24.829,0-45.029,20.2-45.029,45.029c0,24.829,20.2,45.029,45.029,45.029
	c24.829,0,45.029-20.2,45.029-45.029C368.658,564.029,348.458,543.829,323.63,543.829z M323.63,608.743
	c-10.966,0-19.887-8.922-19.887-19.887c0-10.966,8.922-19.887,19.887-19.887s19.887,8.922,19.887,19.887
	C343.517,599.823,334.595,608.743,323.63,608.743z"/>
<path  class="st0"  d="M154.567,331.897h180.149c6.943,0,12.571-5.628,12.571-12.571s-5.628-12.571-12.571-12.571H154.567
	c-6.943,0-12.571,5.628-12.571,12.571S147.625,331.897,154.567,331.897z"/>
<path  class="st0"  d="M324.911,372.036H164.374c-6.943,0-12.571,5.628-12.571,12.571c0,6.943,5.628,12.571,12.571,12.571h160.537
	c6.943,0,12.571-5.628,12.571-12.571C337.481,377.665,331.854,372.036,324.911,372.036z"/>
<path  class="st0"  d="M457.341,250.745c-4.794-5.884-11.898-9.258-19.489-9.258H46.278l-7.908-38.389c-1.651-8.008-7.113-14.732-14.614-17.989
	l-55.177-23.95c-6.37-2.767-13.773,0.156-16.536,6.524c-2.766,6.37,0.157,13.774,6.524,16.537l55.177,23.951l60.826,295.261
	C76.967,515.06,87.323,523.5,99.196,523.5h301.166c6.943,0,12.571-5.628,12.571-12.571c0-6.943-5.628-12.571-12.571-12.571H99.198
	l-7.399-35.916H402.69c11.872,0,22.229-8.44,24.624-20.068l35.163-170.675C464.008,264.267,462.136,256.628,457.341,250.745z
	 M402.69,437.302H86.619L51.459,266.628l386.393,0.001L402.69,437.302z"/>
</svg>
