<?xml version="1.0" encoding="utf-8"?>
<!-- Generator: Adobe Illustrator 21.1.0, SVG Export Plug-In . SVG Version: 6.00 Build 0)  -->
<svg version="1.1" id="Слой_1" xmlns="http://www.w3.org/2000/svg" xmlns:xlink="http://www.w3.org/1999/xlink" x="0px" y="0px"
	 viewBox="0 0 45.168 49" style="enable-background:new 0 0 45.168 49;" xml:space="preserve">
<style type="text/css">
	.st0{fill:#fff;}
</style>
<g>
	<g>
		<path class="st0"  d="M1.467,49c-0.717,0-1.301-0.584-1.301-1.301V1.301C0.167,0.583,0.75,0,1.467,0s1.301,0.583,1.301,1.301v1.097h16.296
			c0.717,0,1.301,0.584,1.301,1.301v2.699h23.5c0.484,0,0.926,0.268,1.15,0.699c0.226,0.42,0.197,0.935-0.077,1.337L36.644,20.5
			l8.294,12.064c0.276,0.399,0.306,0.915,0.075,1.344c-0.223,0.426-0.663,0.693-1.147,0.693H14.269c-2.481,0-4.5-2.019-4.5-4.5
			c0-0.662,0.147-1.307,0.432-1.902H2.769v19.5C2.769,48.416,2.185,49,1.467,49z M14.269,28.199c-1.049,0-1.903,0.854-1.903,1.902
			c0,1.047,0.854,1.898,1.903,1.898h27.127l-7.399-10.764c-0.303-0.44-0.303-1.032,0-1.473L41.396,9h-21.03v17.898
			c0,0.717-0.584,1.301-1.301,1.301H14.269z M17.769,25.602V5h-15v20.602H17.769z"/>
		<path class="st0"  d="M36.038,20.5l8.488-12.348c0.168-0.246,0.188-0.562,0.047-0.824c-0.136-0.262-0.41-0.43-0.707-0.43h-24V3.699
			c0-0.441-0.355-0.801-0.801-0.801H2.269V1.301c0-0.442-0.36-0.801-0.801-0.801c-0.442,0-0.801,0.359-0.801,0.801v46.398
			c0,0.442,0.359,0.801,0.801,0.801c0.441,0,0.801-0.359,0.801-0.801v-20h8.82c-0.508,0.672-0.82,1.496-0.82,2.403
			c0,2.203,1.793,4,4,4h29.597c0.297,0,0.571-0.168,0.707-0.43c0.141-0.262,0.121-0.582-0.047-0.824L36.038,20.5z M2.269,4.5h16
			v21.602h-16V4.5z M14.269,32.5c-1.325,0-2.403-1.078-2.403-2.398c0-1.325,1.078-2.403,2.403-2.403h4.796
			c0.446,0,0.801-0.355,0.801-0.801V8.5h22.481l-7.938,11.547c-0.187,0.273-0.187,0.633,0,0.906L42.347,32.5H14.269z M14.269,32.5"
			/>
	</g>
</g>
</svg>
