<?xml version="1.0" encoding="utf-8"?>
<!-- Generator: Adobe Illustrator 21.1.0, SVG Export Plug-In . SVG Version: 6.00 Build 0)  -->
<svg version="1.1" id="Layer_1" xmlns="http://www.w3.org/2000/svg" xmlns:xlink="http://www.w3.org/1999/xlink" x="0px" y="0px"
	 viewBox="-11.319 141 436.638 512" style="enable-background:new -11.319 141 436.638 512;" xml:space="preserve">
<style type="text/css">
	.st0{fill:#fff;}
</style>

<g>
	<path  class="st0"  d="M417.394,229.411c-70.445-19.302-141.304-49.357-204.917-86.915c-3.379-1.995-7.572-1.995-10.95,0
		C136.08,181.133,69.049,209.562-3.395,229.411c-4.68,1.281-7.924,5.535-7.924,10.388v110.046
		c0,113.323,52.279,188.335,96.137,231.306c47.216,46.265,102.216,71.85,122.185,71.85c19.967,0,74.967-25.585,122.183-71.85
		c43.857-42.97,96.133-117.983,96.133-231.306V239.798C425.319,234.946,422.075,230.692,417.394,229.411z M403.779,349.844
		c0,105.843-48.761,175.838-89.669,215.92c-46.431,45.495-96.074,65.695-107.107,65.695c-11.033,0-60.679-20.2-107.111-65.695
		c-40.907-40.083-89.67-110.077-89.67-215.92V247.974c69.278-19.67,133.796-47.121,196.784-83.724
		c61.414,35.632,129.151,64.448,196.774,83.72V349.844z"/>
	<path  class="st0"  d="M133.589,375.019c-6.613-6.614-15.408-10.254-24.762-10.254s-18.15,3.641-24.766,10.254
		c-13.653,13.656-13.653,35.876,0,49.531l63.596,63.594c6.614,6.612,15.409,10.253,24.764,10.253c9.355,0,18.15-3.641,24.765-10.255
		L329.947,355.38c13.652-13.659,13.652-35.876-0.002-49.527c-6.614-6.614-15.409-10.254-24.765-10.254
		c-9.355,0-18.15,3.641-24.765,10.254L172.419,413.848L133.589,375.019z M295.647,321.085c2.545-2.545,5.932-3.946,9.534-3.946
		c3.604,0,6.988,1.401,9.535,3.946c5.255,5.255,5.255,13.809-0.002,19.066l-132.759,132.76c-2.545,2.545-5.932,3.946-9.534,3.946
		c-3.602,0-6.989-1.401-9.535-3.946l-63.594-63.592c-5.257-5.257-5.257-13.811-0.002-19.066c2.546-2.545,5.933-3.948,9.536-3.948
		c3.603,0,6.988,1.401,9.533,3.946l46.445,46.446c2.02,2.019,4.759,3.154,7.615,3.154c2.856,0,5.595-1.134,7.614-3.154
		L295.647,321.085z"/>
</g>
</svg>
