<?xml version="1.0" encoding="utf-8"?>
<!-- Generator: Adobe Illustrator 21.1.0, SVG Export Plug-In . SVG Version: 6.00 Build 0)  -->
<svg version="1.1" id="Слой_1" xmlns="http://www.w3.org/2000/svg" xmlns:xlink="http://www.w3.org/1999/xlink" x="0px" y="0px"
	 viewBox="0 0 325.535 260.48" style="enable-background:new 0 0 325.535 260.48;" xml:space="preserve">
<style type="text/css">
	.st0{fill:#fff;}
</style>
<g>
	<path  class="st0" d="M319.535,0H6C2.688,0,0,2.687,0,6v248.48c0,3.313,2.688,6,6,6h313.535c3.317,0,6-2.687,6-6V6
		C325.535,2.687,322.852,0,319.535,0L319.535,0z M192.934,12h33.714c-1.125,8.551-2.578,28.254,3.391,50.98
		c5.875,22.356,20.106,51.063,54.012,72.325c-25.313-4.817-45.68-15.539-60.781-32.059C194.133,71.363,192.613,26.312,192.934,12
		L192.934,12z M271.938,12c-0.918,7.937-2.399,26.141-0.043,47.844c2.902,26.758,10.769,49.816,23.062,68.054
		c-27.535-15.679-45.387-38.308-53.187-67.503c-6.008-22.485-3.918-42.141-2.993-48.395H271.938z M313.535,153.641v65.289
		c-5.238-2.743-12.715-5.688-20.656-5.688c-7.57,0-15.988,2.961-22.301,5.785c2.195-17.953,10.289-34.48,24.141-49.257
		C301.648,162.375,308.652,156.988,313.535,153.641L313.535,153.641z M313.535,132.215c-20.074-22.043-27.269-51.465-29.68-73.363
		c-2.414-21.942-0.609-40.508,0.176-46.852h29.504V132.215z M101.812,103.246c-15.097,16.52-35.468,27.242-60.777,32.059
		c33.903-21.262,48.137-49.969,54.008-72.325c5.973-22.726,4.519-42.429,3.391-50.98h33.718
		C132.469,26.312,130.949,71.363,101.812,103.246L101.812,103.246z M53.148,12h33.164c0.93,6.18,3.012,25.523-2.874,47.934
		c-7.731,29.418-25.626,52.207-53.313,67.968c12.297-18.242,20.164-41.3,23.066-68.058C55.543,38.141,54.062,19.937,53.148,12
		L53.148,12z M12,153.953c4.859,3.363,11.645,8.649,18.367,15.817c13.852,14.777,21.942,31.304,24.137,49.257
		c-6.313-2.824-14.731-5.785-22.301-5.785c-7.715,0-14.992,2.781-20.203,5.449V153.953z M41.055,12
		c0.785,6.348,2.586,24.914,0.172,46.852C38.836,80.586,31.73,109.73,12,131.715V12H41.055z M12,248.48v-15.832
		c2.242-1.562,11.219-7.406,20.203-7.406c8.949,0,21.652,6.539,25.785,9.059c0.961,0.586,2.043,0.879,3.129,0.879
		c1.012,0,2.024-0.254,2.938-0.766c1.89-1.062,3.062-3.062,3.062-5.234c0-24.836-9.781-48.325-28.293-67.934
		c-4.402-4.664-8.797-8.586-12.765-11.777c35.976-3.16,64.406-15.973,84.683-38.207C142.84,76.074,144.613,28.301,144.188,12h36.71
		c-0.425,16.301,1.348,64.074,33.446,99.262c20.277,22.234,48.707,35.047,84.683,38.207c-3.965,3.191-8.363,7.113-12.765,11.777
		c-18.512,19.609-28.293,43.098-28.293,67.934c0,2.168,1.172,4.168,3.062,5.23c0.914,0.512,1.926,0.77,2.938,0.77
		c1.086,0,2.168-0.293,3.125-0.879c4.136-2.52,16.84-9.059,25.789-9.059c9.914,0,19.699,7.024,20.656,7.731v15.507H12z M12,248.48"
		/>
</g>
</svg>
