<?xml version="1.0" encoding="utf-8"?>
<!-- Generator: Adobe Illustrator 21.1.0, SVG Export Plug-In . SVG Version: 6.00 Build 0)  -->
<svg version="1.1" id="Capa_1" xmlns="http://www.w3.org/2000/svg" xmlns:xlink="http://www.w3.org/1999/xlink" x="0px" y="0px"
	 viewBox="-31.932 141 477.867 512" style="enable-background:new -31.932 141 477.867 512;" xml:space="preserve">
<style type="text/css">
	.st0{fill:#fff;}
</style>
<g>
	<path class="st0"  d="M44.868,635.933h68.369V171.182l-19.746-13.116H64.521l-19.652,13.099V635.933z M121.771,653H36.335
		c-4.71,0-8.533-3.823-8.533-8.533V166.6c0-2.85,1.425-5.513,3.797-7.1l25.6-17.067c1.399-0.93,3.055-1.434,4.736-1.434h34.133
		c1.681,0,3.319,0.495,4.719,1.425l25.702,17.067c2.381,1.579,3.814,4.25,3.814,7.108v477.867
		C130.304,649.177,126.481,653,121.771,653L121.771,653z"/>
	<path class="st0"  d="M172.868,653H-23.398c-4.71,0-8.533-3.823-8.533-8.533s3.823-8.533,8.533-8.533h196.267c4.71,0,8.533,3.823,8.533,8.533
		S177.579,653,172.868,653"/>
	<path class="st0"  d="M10.733,269H27.8v-68.267H10.733V269z M36.333,286.067H2.2c-4.71,0-8.533-3.823-8.533-8.533V192.2
		c0-4.71,3.823-8.533,8.533-8.533h34.133c4.71,0,8.533,3.823,8.533,8.533v85.333C44.867,282.244,41.044,286.067,36.333,286.067
		L36.333,286.067z"/>
	<path class="st0"  d="M121.768,653c-2.031,0-4.079-0.717-5.7-2.193l-85.333-76.8c-1.869-1.673-2.901-4.079-2.825-6.588
		c0.068-2.509,1.237-4.855,3.2-6.417l77.005-61.602L31.11,437.798c-2.022-1.621-3.209-4.07-3.209-6.665
		c0-2.594,1.186-5.043,3.209-6.665l77.005-61.602L31.11,301.265c-3.686-2.944-4.275-8.311-1.331-11.998
		c2.935-3.686,8.32-4.267,11.989-1.331l85.333,68.267c2.022,1.621,3.2,4.07,3.2,6.665c0,2.594-1.178,5.043-3.2,6.665l-77.005,61.602
		l77.005,61.602c2.022,1.621,3.2,4.07,3.2,6.665s-1.178,5.043-3.2,6.665l-77.483,61.986l77.858,70.076
		c3.507,3.149,3.789,8.542,0.64,12.049C126.427,652.044,124.106,653,121.768,653"/>
	<path class="st0"  d="M36.343,303.133c-2.688,0-5.333-1.263-6.997-3.644c-2.705-3.857-1.766-9.173,2.099-11.878l85.333-59.733
		c3.866-2.697,9.182-1.766,11.878,2.099c2.705,3.857,1.766,9.173-2.099,11.878l-85.333,59.733
		C39.739,302.63,38.032,303.133,36.343,303.133"/>
	<path class="st0"  d="M36.343,243.4c-2.688,0-5.333-1.263-6.997-3.644c-2.705-3.857-1.766-9.173,2.099-11.878l85.333-59.733
		c3.866-2.705,9.182-1.758,11.878,2.099c2.705,3.857,1.766,9.173-2.099,11.878l-85.333,59.733
		C39.739,242.897,38.032,243.4,36.343,243.4"/>
	<path class="st0"  d="M334.993,286.067c-1.69,0-3.396-0.503-4.881-1.545c-3.866-2.705-4.804-8.021-2.099-11.878l59.733-85.333
		c2.705-3.866,8.03-4.796,11.878-2.099c3.866,2.705,4.804,8.021,2.099,11.878l-59.733,85.333
		C340.327,284.804,337.681,286.067,334.993,286.067"/>
	<path class="st0"  d="M130.306,269.004h293.291l-34.133-68.267H130.306V269.004z M437.403,286.071H121.772c-4.71,0-8.533-3.823-8.533-8.533
		v-85.333c0-4.71,3.823-8.533,8.533-8.533h272.964c3.234,0,6.187,1.818,7.629,4.71l42.667,85.342
		c1.323,2.645,1.186,5.786-0.375,8.303C443.104,284.535,440.356,286.071,437.403,286.071L437.403,286.071z"/>
	<path class="st0"  d="M335.109,286.071c-2.5,0-4.983-1.092-6.665-3.2l-61.602-77.005l-61.611,77.005c-3.234,4.045-10.086,4.045-13.321,0
		l-68.267-85.333c-2.944-3.686-2.355-9.054,1.331-11.998c3.669-2.935,9.054-2.347,11.989,1.331l61.611,77.005l61.602-77.005
		c3.234-4.045,10.086-4.045,13.321,0l68.267,85.333c2.944,3.686,2.355,9.054-1.331,11.998
		C338.864,285.457,336.978,286.071,335.109,286.071"/>
	<path class="st0"  d="M335.002,362.867c-4.71,0-8.533-3.823-8.533-8.533v-76.8c0-4.71,3.823-8.533,8.533-8.533c4.71,0,8.533,3.823,8.533,8.533
		v76.8C343.535,359.044,339.712,362.867,335.002,362.867"/>
	<path class="st0"  d="M326.468,397h17.067v-1.459c0-10.095-2.987-19.721-8.533-27.887c-5.547,8.166-8.533,17.792-8.533,27.887V397z
		 M352.068,414.067h-34.133c-4.71,0-8.533-3.823-8.533-8.533v-9.993c0-17.852,6.946-34.628,19.567-47.241
		c3.337-3.337,8.73-3.337,12.066,0c12.621,12.612,19.567,29.389,19.567,47.241v9.993
		C360.602,410.244,356.779,414.067,352.068,414.067L352.068,414.067z"/>
	<path class="st0"  d="M335.002,439.667c-4.71,0-8.533-3.823-8.533-8.533v-25.6c0-4.71,3.823-8.533,8.533-8.533c4.71,0,8.533,3.823,8.533,8.533
		v25.6C343.535,435.844,339.712,439.667,335.002,439.667"/>
	<path class="st0"  d="M335.002,490.867c-18.825,0-34.133-15.309-34.133-34.133c0-4.71,3.823-8.533,8.533-8.533c4.71,0,8.533,3.823,8.533,8.533
		c0,9.412,7.654,17.067,17.067,17.067s17.067-7.654,17.067-17.067c0-9.412-7.654-17.067-17.067-17.067
		c-4.71,0-8.533-3.823-8.533-8.533c0-4.71,3.823-8.533,8.533-8.533c18.825,0,34.133,15.309,34.133,34.133
		C369.135,475.558,353.826,490.867,335.002,490.867"/>
	<path class="st0"  d="M241.133,610.333h187.733V576.2H241.133V610.333z M437.4,627.4H232.6c-4.71,0-8.533-3.823-8.533-8.533v-51.2
		c0-4.71,3.823-8.533,8.533-8.533h204.8c4.71,0,8.533,3.823,8.533,8.533v51.2C445.933,623.577,442.11,627.4,437.4,627.4L437.4,627.4
		z"/>
	<path class="st0"  d="M437.397,576.2c-1.928,0-3.866-0.648-5.461-1.98l-96.939-80.777l-96.93,80.777c-3.627,3.021-9.011,2.517-12.023-1.092
		c-3.012-3.618-2.526-9.003,1.092-12.015l102.4-85.333c3.166-2.645,7.765-2.645,10.931,0l102.4,85.333
		c3.618,3.012,4.105,8.397,1.092,12.015C442.27,575.15,439.847,576.2,437.397,576.2"/>
</g>
</svg>
